<svg version="1.1" viewBox="0.0 0.0 749.7664041994751 480.0" fill="none" stroke="none" stroke-linecap="square" stroke-miterlimit="10" xmlns:xlink="http://www.w3.org/1999/xlink" xmlns="http://www.w3.org/2000/svg"><clipPath id="p.0"><path d="m0 0l749.7664 0l0 480.0l-749.7664 0l0 -480.0z" clip-rule="nonzero"/></clipPath><g clip-path="url(#p.0)"><path fill="#000000" fill-opacity="0.0" d="m0 0l749.7664 0l0 480.0l-749.7664 0z" fill-rule="evenodd"/><defs><linearGradient id="p.1" gradientUnits="userSpaceOnUse" gradientTransform="matrix(28.24768408213206 0.0 0.0 28.24768408213206 0.0 0.0)" spreadMethod="pad" x1="2.930202268791337" y1="16.653616548300704" x2="31.177886350923398" y2="16.653616548300704"><stop offset="0.0" stop-color="#8cff98"/><stop offset="1.0" stop-color="#41984a"/></linearGradient></defs><path fill="url(#p.1)" d="m859.691 41.16034c-12.808594 -7.8896637 -22.954163 -20.800463 -55.948425 -25.821598c-32.994263 -5.0211353 -103.28479 -7.78908 -142.01715 -4.305213c-38.73242 3.4838667 -45.90674 19.77741 -90.37726 25.208412c-44.47052 5.4310036 -133.6149 6.557869 -176.44598 7.3776016c-42.831055 0.81973267 -60.559143 -1.7416649 -80.540405 -2.4592018c-19.981262 -0.7175331 -26.74405 -2.4608116 -39.3472 -1.8460121c-12.603119 0.6147995 -20.389511 1.128479 -36.271576 5.534813c-15.882065 4.4063377 -42.11354 14.243137 -59.020813 20.903202c-16.907257 6.6600647 -36.58194 12.806984 -42.422806 19.057182c-5.840866 6.2501984 1.8443909 14.2425995 7.377594 18.444c5.533203 4.2014008 23.15747 3.6904144 25.82161 6.7644196c2.6641235 3.0739975 -4.0986786 6.454048 -9.836807 11.679581c-5.7381287 5.2255325 -15.369995 13.0130005 -24.591995 19.6736c-9.222 6.6605988 -21.927872 16.601212 -30.740005 20.290024c-8.812134 3.688797 -19.776329 -1.9482117 -22.132797 1.8427734c-2.3564606 3.7910004 5.739746 14.755203 7.994011 20.903198c2.2542725 6.1480103 2.252655 13.422867 5.5315857 15.984802c3.2789383 2.5619354 6.8666153 -2.1504517 14.142014 -0.61317444c7.275406 1.537262 20.391136 7.172653 29.510399 9.836792c9.119263 2.6641388 17.417725 4.4063416 25.205185 6.147995c7.7874756 1.7416687 13.322281 5.224457 21.519623 4.3019867c8.197327 -0.9224701 18.237457 -9.426926 27.664383 -9.836792c9.426941 -0.40986633 6.1496124 -0.71754456 28.897217 7.377594c22.74759 8.095139 86.27533 32.99588 107.58838 41.193207c21.31308 8.197357 16.806152 3.4822693 20.290009 7.9907837c3.4838867 4.508545 0.9208679 2.4608154 0.6131897 19.060425c-0.3076477 16.59961 -0.3076477 63.732666 -2.459198 80.5372c-2.1515198 16.804535 -7.273773 14.039276 -10.449982 20.290009c-3.1762085 6.2507324 -6.1480103 12.500916 -8.607208 17.214386c-2.459198 4.7134705 -3.6887817 7.992401 -6.1479797 11.066406c-2.459198 3.0740051 -7.6847534 5.0211487 -8.607208 7.377594c-0.92248535 2.3564758 -1.9482117 6.146393 3.0723877 6.7612c5.0205994 0.6148071 21.415253 -1.0230713 27.051208 -3.0723877c5.6359253 -2.049347 3.280548 -7.5841675 6.7644043 -9.223633c3.4838562 -1.6394653 10.75766 2.0509644 14.138794 -0.6131592c3.381134 -2.664154 5.1233215 -8.4039 6.1479797 -15.371613c1.0246887 -6.967743 -2.459198 -17.827606 0 -26.434814c2.459198 -8.607178 11.066406 -25.310608 14.7552185 -25.208405c3.6887817 0.10220337 6.250183 13.73053 7.377594 25.821594c1.1274109 12.091064 1.128479 35.45349 -0.6131897 46.724823c-1.7416687 11.271332 -6.352936 14.755188 -9.836792 20.903198c-3.4838867 6.1479797 -10.5538025 11.476257 -11.066406 15.984802c-0.51260376 4.5085144 2.8674622 9.631866 7.9907837 11.066376c5.1233215 1.4345398 15.883667 0.92193604 22.749207 -2.459198c6.8655396 -3.381134 13.218475 -11.064789 18.444 -17.827576c5.225525 -6.762787 12.089447 -15.98642 12.90918 -22.749207c0.81973267 -6.7628174 -7.683655 -5.7365417 -7.9907837 -17.827606c-0.3071289 -12.091064 2.459198 -35.250122 6.1480103 -54.71881c3.6888123 -19.468658 12.500946 -48.157715 15.984802 -62.09317c3.4838562 -13.935486 1.4345398 -17.83081 4.918396 -21.519623c3.4838562 -3.6888123 6.1480103 -1.0230408 15.984802 -0.6131897c9.836792 0.4098816 16.59961 1.5356445 43.03601 3.0723877c26.436401 1.5367432 81.56348 7.684723 115.5824 6.1480103c34.01892 -1.5367432 54.717163 -5.4293823 88.53119 -15.368408c33.814026 -9.93898 90.58057 -10.758713 114.35278 -44.26558c23.772278 -33.50688 27.051208 -127.06029 28.280823 -156.77562c1.2296143 -29.715332 -8.0946045 -13.62672 -20.903198 -21.516388z" fill-rule="evenodd"/></g></svg>