<svg id="AllEarth" width="12000" height="12000" viewBox="0 0 12000 12000" fill="none" xmlns="http://www.w3.org/2000/svg">
<g id="Earth">
<path id="Sea" d="M11949.1 5999.87C11949.1 9284.45 9286.23 11947.1 6001.41 11947.1C2716.6 11947.1 53.7322 9284.45 53.7322 5999.87C53.7322 2715.29 2716.6 52.615 6001.41 52.615C9286.23 52.615 11949.1 2715.29 11949.1 5999.87Z" fill="url(#paint0_linear)"/>
<g id="AllMainLands">
<g id="Group">
<g id="Lighter">
<mask id="mask0" mask-type="alpha" maskUnits="userSpaceOnUse" x="5393" y="11530" width="1406" height="470">
<path id="Vector 1" d="M6018.77 11942L6016.64 11947.8C6011.99 11960.4 6020.87 11973.9 6034.29 11974.6L6482.72 11999.7C6486.82 11999.9 6490.9 11998.9 6494.39 11996.7L6562.83 11954.1C6564.61 11953 6566.21 11951.6 6567.57 11950L6596.88 11915.2C6598.02 11913.9 6599.34 11912.7 6600.8 11911.7L6618.62 11899.3C6623.01 11896.3 6626 11891.6 6626.93 11886.4L6630.59 11865.6C6631.3 11861.6 6633.24 11857.9 6636.14 11855L6650.29 11840.8L6659.42 11832.6C6666.21 11826.5 6676.29 11825.8 6683.89 11830.8L6687.74 11833.4C6692.82 11836.8 6696.07 11842.3 6696.58 11848.4L6699.59 11884.5C6699.8 11887.1 6699.52 11889.6 6698.74 11892.1L6692.21 11913C6690.53 11918.4 6691.19 11924.2 6694.02 11929.1L6710.81 11957.9C6715.36 11965.7 6724.57 11969.4 6733.29 11967.1L6760.92 11959.7C6767.93 11957.8 6773.37 11952.2 6775.13 11945.2L6786.75 11898.7L6798.16 11851.2C6798.81 11848.4 6798.89 11845.6 6798.38 11842.9L6789.53 11795.1C6789.06 11792.5 6788.1 11790.1 6786.71 11787.9L6756.58 11740.9C6756.02 11740 6755.38 11739.1 6754.69 11738.3L6598.13 11562.2C6593.32 11556.8 6585.95 11554.4 6578.88 11556C6516.76 11569.8 6409.44 11593.8 6400.12 11596.9C6390.34 11600.1 6142.98 11603.7 6015.06 11605.1C6011.27 11605.1 6007.65 11604.1 6004.43 11602.1L5892.38 11533C5887.85 11530.2 5882.43 11529.3 5877.26 11530.6C5808.59 11547 5680.61 11576.7 5659.95 11578.3C5633.07 11580.3 5428.38 11594.8 5409.77 11596.9C5397.12 11598.3 5393.53 11641.6 5393.16 11672.8C5393.06 11681.7 5399.18 11689.4 5407.81 11691.7L5511.68 11718.9C5516.61 11720.2 5520.86 11723.3 5523.56 11727.7L5554.37 11776.9C5558.27 11783.2 5565.29 11786.8 5572.63 11786.3L5646.56 11781.5C5652.43 11781.1 5658.17 11783.3 5662.25 11787.5L5713.7 11840.8L5754.49 11877.7C5756.23 11879.3 5758.23 11880.6 5760.4 11881.4L5838.78 11913.2C5842.17 11914.5 5845.86 11914.9 5849.47 11914.4L5903 11905.7C5906.31 11905.2 5909.44 11903.8 5912.09 11901.8L5935.61 11883.5C5941.54 11878.9 5949.54 11878 5956.35 11881.1L6000.98 11902C6005.07 11903.9 6008.39 11907.1 6010.41 11911.2L6017.89 11926.1C6020.36 11931.1 6020.68 11936.8 6018.77 11942Z" fill="white"/>
</mask>
<g mask="url(#mask0)">
<path id="Land" d="M11949.1 5999.89C11949.1 9284.47 9286.19 11947.1 6001.37 11947.1C2716.56 11947.1 53.6917 9284.47 53.6917 5999.89C53.6917 2715.31 2716.56 52.6365 6001.37 52.6365C9286.19 52.6365 11949.1 2715.31 11949.1 5999.89Z" fill="url(#paint1_linear)"/>
</g>
</g>
<g id="Lighter_2">
<mask id="mask1" mask-type="alpha" maskUnits="userSpaceOnUse" x="5312" y="11832" width="112" height="68">
<path id="Vector 2" d="M5317.27 11876.8L5325.23 11885.7C5326.39 11887 5327.71 11888.1 5329.16 11889.1L5339.7 11896C5345.84 11900 5353.69 11900.3 5360.15 11896.8L5418.34 11865.4C5419.71 11864.7 5420.86 11863.6 5421.7 11862.3C5425.29 11856.6 5421.76 11849.2 5415.12 11848.4L5386.51 11844.8C5384.52 11844.6 5382.57 11844.1 5380.74 11843.2L5360.42 11834.1C5354.67 11831.5 5348.02 11831.8 5342.51 11834.8L5322.44 11846C5311.21 11852.2 5308.69 11867.3 5317.27 11876.8Z" fill="white"/>
</mask>
<g mask="url(#mask1)">
<path id="Land_2" d="M11949.1 5999.89C11949.1 9284.47 9286.19 11947.1 6001.37 11947.1C2716.56 11947.1 53.6941 9284.47 53.6941 5999.89C53.6941 2715.31 2716.56 52.6366 6001.37 52.6366C9286.19 52.6366 11949.1 2715.31 11949.1 5999.89Z" fill="url(#paint2_linear)"/>
</g>
</g>
<g id="Darker">
<mask id="mask2" mask-type="alpha" maskUnits="userSpaceOnUse" x="5945" y="11651" width="484" height="208">
<path id="Rectangle 1" d="M5946.1 11775.8C5943.49 11765.7 5949.12 11755.2 5959.01 11751.9L6249.93 11652.7C6255.11 11650.9 6260.79 11651.4 6265.65 11653.9L6417.41 11733.3C6431.16 11740.5 6431.84 11759.9 6418.62 11768L6361.73 11803C6358.39 11805.1 6354.52 11806.1 6350.6 11806L6300.91 11804.4C6290.93 11804.1 6282.24 11811.2 6280.55 11821L6277.79 11837.2C6276.28 11846.1 6269.07 11852.8 6260.14 11853.8L6220.7 11857.9C6219.32 11858 6217.93 11858 6216.55 11857.9L6172.47 11853.3C6165.93 11852.6 6160.14 11848.7 6156.99 11843L6148.8 11828C6144.16 11819.5 6134.1 11815.5 6124.92 11818.6L6094.13 11828.8C6092.23 11829.5 6090.43 11830.4 6088.79 11831.6L6056.65 11854.6C6049.81 11859.5 6040.64 11859.6 6033.7 11854.9L5958.31 11803.4C5954.3 11800.6 5951.43 11796.5 5950.22 11791.8L5946.1 11775.8Z" fill="white"/>
</mask>
<g mask="url(#mask2)">
<path id="DarkerLand" d="M11949.1 5999.89C11949.1 9284.47 9286.19 11947.1 6001.38 11947.1C2716.56 11947.1 53.6953 9284.47 53.6953 5999.89C53.6953 2715.31 2716.56 52.6366 6001.38 52.6366C9286.19 52.6366 11949.1 2715.31 11949.1 5999.89Z" fill="black" fill-opacity="0.1"/>
</g>
</g>
</g>
<g id="Group_2">
<g id="Lighter_3">
<mask id="mask3" mask-type="alpha" maskUnits="userSpaceOnUse" x="8277" y="10521" width="1361" height="713">
<path id="Vector 1_2" d="M8980.02 11141.5L8981.07 11147.6C8983.35 11160.8 8997.8 11168.1 9009.8 11162L9410.65 10959.5C9414.32 10957.7 9417.33 10954.7 9419.27 10951.1L9457.27 10880C9458.26 10878.2 9458.95 10876.2 9459.32 10874.1L9467.3 10829.3C9467.61 10827.6 9468.16 10825.9 9468.91 10824.3L9478.18 10804.7C9480.46 10799.8 9480.72 10794.3 9478.89 10789.3L9471.7 10769.5C9470.3 10765.7 9470.11 10761.5 9471.17 10757.5L9476.35 10738.2L9480.15 10726.5C9482.98 10717.8 9491.34 10712.1 9500.46 10712.7L9505.07 10713C9511.16 10713.4 9516.74 10716.6 9520.22 10721.6L9540.87 10751.3C9542.35 10753.4 9543.39 10755.8 9543.96 10758.4L9548.76 10779.7C9549.99 10785.2 9553.47 10789.9 9558.35 10792.7L9587.29 10809.3C9595.13 10813.7 9604.99 10812.4 9611.37 10806L9631.58 10785.8C9636.71 10780.6 9638.65 10773.1 9636.65 10766.1L9623.47 10720.1L9609.58 10673.2C9608.78 10670.5 9607.43 10668 9605.61 10665.9L9574.05 10628.9C9572.37 10627 9570.33 10625.3 9568.04 10624.1L9518.42 10598.4C9517.48 10598 9516.52 10597.6 9515.52 10597.2L9291.88 10523C9285 10520.7 9277.43 10522.3 9272.08 10527.2C9225.17 10570.2 9144.23 10644.6 9137.72 10652C9130.88 10659.7 8918.42 10786.4 8808.34 10851.6C8805.09 10853.5 8801.43 10854.4 8797.65 10854.3L8666.07 10850.5C8660.75 10850.4 8655.62 10852.3 8651.75 10856C8600.48 10904.5 8504.5 10994.2 8487.4 11005.9C8465.16 11021.2 8295.13 11136 8280.05 11147.1C8269.79 11154.7 8288.36 11194 8303.62 11221.2C8307.99 11228.9 8317.14 11232.5 8325.74 11230.2L8429.32 11201.8C8434.24 11200.5 8439.48 11201.1 8443.99 11203.5L8495.31 11230.8C8501.81 11234.2 8509.69 11233.8 8515.81 11229.7L8577.42 11188.6C8582.31 11185.3 8588.39 11184.4 8594.04 11186L8665.24 11206.4L8719.02 11218C8721.31 11218.5 8723.67 11218.6 8726 11218.2L8809.73 11206.5C8813.35 11206 8816.76 11204.5 8819.59 11202.2L8861.63 11168C8864.24 11165.9 8866.26 11163.1 8867.53 11160L8878.75 11132.4C8881.58 11125.5 8888.06 11120.7 8895.54 11120L8944.6 11115.8C8949.1 11115.4 8953.6 11116.5 8957.36 11119L8971.33 11128.2C8975.94 11131.3 8979.08 11136.1 8980.02 11141.5Z" fill="white"/>
</mask>
<g mask="url(#mask3)">
<path id="Land_3" d="M11144.5 3030.57C12786.9 5875.1 11812.3 9512.39 8967.54 11154.7C6122.8 12797 2485.26 11822.4 842.854 8977.83C-799.553 6133.3 175.124 2496.02 3019.86 853.727C5864.59 -788.562 9502.13 186.046 11144.5 3030.57Z" fill="url(#paint3_linear)"/>
</g>
</g>
<g id="Lighter_4">
<mask id="mask4" mask-type="alpha" maskUnits="userSpaceOnUse" x="8326" y="11361" width="98" height="81">
<path id="Vector 2_2" d="M8339.93 11435.8L8351.26 11439.5C8352.91 11440 8354.62 11440.4 8356.35 11440.5L8368.91 11441.2C8376.24 11441.6 8383.21 11437.9 8387.05 11431.7L8421.74 11375.4C8422.56 11374.1 8423.02 11372.6 8423.09 11371C8423.37 11364.3 8416.59 11359.6 8410.43 11362.2L8383.9 11373.5C8382.05 11374.3 8380.09 11374.8 8378.09 11375L8355.93 11377.2C8349.65 11377.9 8344.03 11381.4 8340.79 11386.8L8328.98 11406.5C8322.38 11417.5 8327.72 11431.8 8339.93 11435.8Z" fill="white"/>
</mask>
<g mask="url(#mask4)">
<path id="Land_4" d="M11144.5 3030.57C12786.9 5875.1 11812.3 9512.39 8967.54 11154.7C6122.81 12797 2485.26 11822.4 842.857 8977.83C-799.55 6133.3 175.127 2496.02 3019.86 853.727C5864.59 -788.563 9502.14 186.045 11144.5 3030.57Z" fill="url(#paint4_linear)"/>
</g>
</g>
<g id="Darker_2">
<mask id="mask5" mask-type="alpha" maskUnits="userSpaceOnUse" x="8828" y="10761" width="414" height="298">
<path id="Rectangle 1_2" d="M8833.98 11033.9C8826.66 11026.4 8826.33 11014.6 8833.21 11006.7L9035.56 10775.4C9039.17 10771.3 9044.31 10768.8 9049.78 10768.6L9220.9 10761.5C9236.4 10760.8 9246.7 10777.3 9239.32 10791L9207.56 10849.7C9205.69 10853.2 9202.86 10856 9199.4 10857.8L9155.57 10881.3C9146.76 10886 9142.78 10896.5 9146.25 10905.9L9151.96 10921.3C9155.07 10929.7 9152.21 10939.2 9144.94 10944.4L9112.84 10967.7C9111.72 10968.5 9110.51 10969.2 9109.25 10969.8L9068.78 10987.8C9062.77 10990.5 9055.82 10990.1 9050.21 10986.7L9035.62 10977.7C9027.35 10972.7 9016.66 10974.3 9010.24 10981.6L8988.71 11005.8C8987.37 11007.3 8986.27 11009 8985.45 11010.9L8969.14 11046.9C8965.68 11054.6 8957.79 11059.3 8949.4 11058.6L8858.35 11051.7C8853.51 11051.3 8848.97 11049.2 8845.58 11045.7L8833.98 11033.9Z" fill="white"/>
</mask>
<g mask="url(#mask5)">
<path id="DarkerLand_2" d="M11144.5 3030.57C12786.9 5875.1 11812.3 9512.39 8967.54 11154.7C6122.81 12797 2485.26 11822.4 842.857 8977.83C-799.549 6133.3 175.128 2496.02 3019.86 853.726C5864.59 -788.564 9502.14 186.044 11144.5 3030.57Z" fill="black" fill-opacity="0.1"/>
</g>
</g>
</g>
<g id="Group_3">
<g id="Lighter_5">
<mask id="mask6" mask-type="alpha" maskUnits="userSpaceOnUse" x="10556" y="8206" width="992" height="1152">
<path id="Vector 1_3" d="M11160.3 8948.15L11164.3 8952.89C11172.9 8963.23 11189 8962.3 11196.4 8951.05L11442.2 8575.24C11444.5 8571.8 11445.6 8567.75 11445.5 8563.64L11442.9 8483.1C11442.8 8481 11442.4 8478.92 11441.7 8476.95L11426.2 8434.15C11425.6 8432.49 11425.2 8430.75 11425.1 8428.98L11423.3 8407.38C11422.9 8402.06 11420.3 8397.14 11416.2 8393.7L11400.1 8380.18C11397 8377.54 11394.7 8374 11393.6 8370.03L11388.5 8350.71L11385.9 8338.7C11384 8329.75 11388.4 8320.66 11396.6 8316.61L11400.8 8314.56C11406.2 8311.86 11412.6 8311.8 11418.1 8314.4L11450.9 8329.84C11453.3 8330.95 11455.4 8332.49 11457.1 8334.39L11472 8350.51C11475.8 8354.65 11481.1 8356.99 11486.8 8356.96L11520.1 8356.81C11529.1 8356.77 11537 8350.69 11539.3 8341.97L11546.7 8314.32C11548.6 8307.31 11546.5 8299.83 11541.3 8294.79L11506.8 8261.48L11471.3 8227.82C11469.3 8225.89 11466.9 8224.41 11464.3 8223.48L11418.4 8207.25C11416 8206.38 11413.4 8206 11410.8 8206.12L11355 8208.67C11354 8208.72 11352.9 8208.85 11351.9 8209.06L11121.1 8256.58C11114 8258.04 11108.2 8263.22 11106.1 8270.13C11086.9 8330.8 11054.1 8435.74 11052.1 8445.37C11050 8455.47 10929.4 8671.43 10866.7 8782.92C10864.8 8786.22 10862.1 8788.84 10858.8 8790.64L10742.9 8853.12C10738.2 8855.65 10734.8 8859.9 10733.2 8865C10713.1 8932.66 10674.8 9058.34 10665.9 9077.03C10654.2 9101.34 10564.4 9285.82 10556.9 9302.97C10551.8 9314.63 10587.6 9339.41 10614.4 9355.31C10622 9359.86 10631.8 9358.41 10638 9352.07L10713.6 9275.74C10717.1 9272.12 10722 9270 10727.1 9269.82L10785.2 9267.79C10792.5 9267.53 10799.1 9263.25 10802.4 9256.65L10835.2 9190.23C10837.8 9184.95 10842.6 9181.09 10848.3 9179.67L10920.2 9161.76L10972.5 9144.89C10974.8 9144.17 10976.8 9143.06 10978.7 9141.62L11045.4 9089.61C11048.2 9087.36 11050.4 9084.37 11051.7 9080.96L11071 9030.29C11072.2 9027.15 11072.6 9023.76 11072.1 9020.43L11068.1 8990.92C11067 8983.48 11070.3 8976.1 11076.4 8971.79L11116.8 8943.56C11120.5 8940.97 11124.9 8939.71 11129.4 8939.98L11146.1 8940.99C11151.6 8941.32 11156.8 8943.91 11160.3 8948.15Z" fill="white"/>
</mask>
<g mask="url(#mask6)">
<path id="Land_5" d="M8979.08 841.702C11823.8 2483.99 12798.5 6121.28 11156.1 8965.8C9513.68 11810.3 5876.13 12784.9 3031.4 11142.7C186.668 9500.36 -788.009 5863.08 854.398 3018.55C2496.8 174.02 6134.35 -800.587 8979.08 841.702Z" fill="url(#paint5_linear)"/>
</g>
</g>
<g id="Lighter_6">
<mask id="mask7" mask-type="alpha" maskUnits="userSpaceOnUse" x="10729" y="9420" width="65" height="104">
<path id="Vector 2_3" d="M10753.1 9523.05L10764.8 9520.59C10766.5 9520.23 10768.1 9519.66 10769.7 9518.87L10780.9 9513.2C10787.5 9509.89 10791.7 9503.26 10791.9 9495.92L10793.8 9429.82C10793.8 9428.27 10793.5 9426.73 10792.7 9425.35C10789.6 9419.41 10781.4 9418.74 10777.4 9424.08L10760.1 9447.1C10758.8 9448.7 10757.4 9450.12 10755.8 9451.29L10737.7 9464.31C10732.6 9468 10729.5 9473.89 10729.4 9480.21L10729 9503.16C10728.8 9516 10740.6 9525.71 10753.1 9523.05Z" fill="white"/>
</mask>
<g mask="url(#mask7)">
<path id="Land_6" d="M8979.08 841.699C11823.8 2483.99 12798.5 6121.27 11156.1 8965.8C9513.68 11810.3 5876.13 12784.9 3031.4 11142.6C186.67 9500.36 -788.007 5863.07 854.4 3018.55C2496.81 174.017 6134.35 -800.59 8979.08 841.699Z" fill="url(#paint6_linear)"/>
</g>
</g>
<g id="Darker_3">
<mask id="mask8" mask-type="alpha" maskUnits="userSpaceOnUse" x="10965" y="8495" width="247" height="439">
<path id="Rectangle 1_3" d="M10980 8927.99C10970 8925.18 10963.8 8915.1 10965.8 8904.85L11025.4 8603.35C11026.4 8597.97 11029.6 8593.27 11034.3 8590.34L11178.9 8498.6C11192 8490.29 11209.2 8499.42 11209.6 8514.93L11211.5 8581.7C11211.6 8585.62 11210.5 8589.49 11208.5 8592.82L11182.2 8635.04C11177 8643.53 11178.8 8654.6 11186.4 8660.98L11199.1 8671.48C11206 8677.21 11208.2 8686.83 11204.6 8695.03L11188.4 8731.24C11187.9 8732.5 11187.2 8733.71 11186.4 8734.83L11160.3 8770.7C11156.5 8776.03 11150.2 8779.12 11143.7 8778.96L11126.6 8778.54C11116.9 8778.31 11108.4 8785.04 11106.5 8794.53L11100 8826.31C11099.6 8828.28 11099.5 8830.3 11099.7 8832.3L11103.6 8871.68C11104.4 8880.05 11099.9 8888.05 11092.3 8891.69L11010 8931.21C11005.7 8933.31 11000.7 8933.75 10996 8932.44L10980 8927.99Z" fill="white"/>
</mask>
<g mask="url(#mask8)">
<path id="DarkerLand_3" d="M8979.08 841.698C11823.8 2483.99 12798.5 6121.27 11156.1 8965.8C9513.68 11810.3 5876.13 12784.9 3031.4 11142.6C186.67 9500.36 -788.007 5863.07 854.4 3018.55C2496.81 174.017 6134.35 -800.591 8979.08 841.698Z" fill="black" fill-opacity="0.1"/>
</g>
</g>
</g>
<g id="Group_4">
<g id="Lighter_7">
<mask id="mask9" mask-type="alpha" maskUnits="userSpaceOnUse" x="11531" y="5207" width="471" height="1407">
<path id="Vector 1_4" d="M11944 5987.46L11949.7 5989.59C11962.4 5994.24 11975.9 5985.37 11976.6 5971.94L12001.6 5523.55C12001.9 5519.45 12000.8 5515.37 11998.7 5511.88L11956.1 5443.45C11955 5441.66 11953.6 5440.06 11952 5438.71L11917.2 5409.39C11915.8 5408.25 11914.6 5406.94 11913.6 5405.48L11901.3 5387.66C11898.3 5383.27 11893.6 5380.28 11888.3 5379.35L11867.6 5375.69C11863.6 5374.98 11859.8 5373.04 11856.9 5370.14L11842.8 5355.99L11834.6 5346.86C11828.5 5340.07 11827.7 5329.99 11832.8 5322.39L11835.4 5318.54C11838.8 5313.47 11844.3 5310.21 11850.4 5309.7L11886.5 5306.7C11889 5306.48 11891.6 5306.77 11894.1 5307.54L11915 5314.08C11920.4 5315.75 11926.2 5315.1 11931 5312.26L11959.8 5295.47C11967.6 5290.92 11971.4 5281.71 11969.1 5273L11961.6 5245.37C11959.7 5238.36 11954.2 5232.92 11947.2 5231.16L11900.7 5219.54L11853.1 5208.13C11850.4 5207.48 11847.6 5207.4 11844.8 5207.91L11797 5216.76C11794.5 5217.23 11792.1 5218.19 11789.9 5219.58L11742.8 5249.7C11741.9 5250.27 11741.1 5250.9 11740.3 5251.6L11564.2 5408.14C11558.8 5412.96 11556.4 5420.32 11557.9 5427.4C11571.7 5489.51 11595.7 5596.82 11598.8 5606.14C11602.1 5615.92 11605.6 5863.26 11607 5991.18C11607.1 5994.96 11606 5998.59 11604.1 6001.8L11535 6113.84C11532.2 6118.37 11531.3 6123.79 11532.5 6128.97C11548.9 6197.63 11578.6 6325.6 11580.2 6346.26C11582.3 6373.14 11596.8 6577.81 11598.8 6596.42C11600.2 6609.07 11643.6 6612.66 11674.7 6613.03C11683.7 6613.13 11691.4 6607.01 11693.6 6598.38L11720.9 6494.52C11722.2 6489.59 11725.3 6485.34 11729.6 6482.64L11778.9 6451.83C11785.1 6447.93 11788.7 6440.92 11788.3 6433.57L11783.4 6359.65C11783.1 6353.78 11785.3 6348.04 11789.5 6343.96L11842.8 6292.51L11879.7 6251.73C11881.3 6249.99 11882.5 6247.98 11883.4 6245.81L11915.1 6167.44C11916.5 6164.06 11916.9 6160.36 11916.3 6156.75L11907.7 6103.23C11907.2 6099.92 11905.8 6096.79 11903.7 6094.14L11885.5 6070.62C11880.8 6064.69 11879.9 6056.68 11883.1 6049.88L11903.9 6005.26C11905.8 6001.17 11909.1 5997.84 11913.1 5995.83L11928.1 5988.34C11933 5985.87 11938.8 5985.55 11944 5987.46Z" fill="white"/>
</mask>
<g mask="url(#mask9)">
<path id="Land_7" d="M6001.44 57.6047C9286.25 57.6046 11949.1 2720.28 11949.1 6004.86C11949.1 9289.44 9286.25 11952.1 6001.44 11952.1C2716.63 11952.1 53.7597 9289.44 53.7595 6004.86C53.7594 2720.28 2716.63 57.6048 6001.44 57.6047Z" fill="url(#paint7_linear)"/>
</g>
</g>
<g id="Lighter_8">
<mask id="mask10" mask-type="alpha" maskUnits="userSpaceOnUse" x="11834" y="6583" width="68" height="112">
<path id="Vector 2_4" d="M11878.8 6688.91L11887.7 6680.95C11889 6679.79 11890.1 6678.47 11891 6677.02L11897.9 6666.49C11902 6660.35 11902.3 6652.5 11898.8 6646.04L11867.4 6587.85C11866.6 6586.48 11865.6 6585.33 11864.2 6584.49C11858.6 6580.9 11851.1 6584.43 11850.3 6591.07L11846.8 6619.68C11846.6 6621.67 11846 6623.62 11845.2 6625.45L11836.1 6645.76C11833.5 6651.52 11833.7 6658.16 11836.8 6663.68L11848 6683.74C11854.2 6694.97 11869.2 6697.49 11878.8 6688.91Z" fill="white"/>
</mask>
<g mask="url(#mask10)">
<path id="Land_8" d="M6001.44 57.6025C9286.25 57.6023 11949.1 2720.28 11949.1 6004.86C11949.1 9289.44 9286.25 11952.1 6001.44 11952.1C2716.63 11952.1 53.7598 9289.44 53.7596 6004.86C53.7595 2720.28 2716.63 57.6026 6001.44 57.6025Z" fill="url(#paint8_linear)"/>
</g>
</g>
<g id="Darker_4">
<mask id="mask11" mask-type="alpha" maskUnits="userSpaceOnUse" x="11653" y="5578" width="208" height="483">
<path id="Rectangle 1_4" d="M11777.7 6060.13C11767.6 6062.74 11757.2 6057.11 11753.8 6047.22L11654.7 5756.33C11652.9 5751.14 11653.3 5745.46 11655.9 5740.6L11735.2 5588.85C11742.4 5575.1 11761.9 5574.43 11770 5587.64L11805 5644.53C11807.1 5647.87 11808.1 5651.74 11808 5655.66L11806.4 5705.34C11806 5715.32 11813.1 5724.02 11823 5725.7L11839.2 5728.47C11848 5729.98 11854.8 5737.19 11855.7 5746.11L11859.8 5785.55C11860 5786.93 11860 5788.32 11859.8 5789.7L11855.2 5833.77C11854.6 5840.32 11850.7 5846.11 11844.9 5849.26L11829.9 5857.44C11821.4 5862.08 11817.5 5872.14 11820.5 5881.33L11830.8 5912.11C11831.4 5914.01 11832.3 5915.81 11833.5 5917.44L11856.6 5949.59C11861.5 5956.42 11861.6 5965.6 11856.9 5972.54L11805.3 6047.92C11802.6 6051.93 11798.5 6054.8 11793.8 6056.01L11777.7 6060.13Z" fill="white"/>
</mask>
<g mask="url(#mask11)">
<path id="DarkerLand_4" d="M6001.44 57.6025C9286.25 57.6023 11949.1 2720.28 11949.1 6004.86C11949.1 9289.44 9286.25 11952.1 6001.44 11952.1C2716.63 11952.1 53.7597 9289.44 53.7596 6004.86C53.7595 2720.28 2716.63 57.6026 6001.44 57.6025Z" fill="black" fill-opacity="0.1"/>
</g>
</g>
</g>
<g id="Group_5">
<g id="Lighter_9">
<mask id="mask12" mask-type="alpha" maskUnits="userSpaceOnUse" x="10529" y="2371" width="712" height="1361">
<path id="Vector 1_5" d="M11149.3 3028.84L11155.4 3027.8C11168.7 3025.51 11175.9 3011.07 11169.9 2999.07L10967.3 2598.24C10965.5 2594.57 10962.5 2591.57 10958.9 2589.63L10887.8 2551.63C10886 2550.64 10884 2549.95 10881.9 2549.58L10837.1 2541.6C10835.4 2541.29 10833.7 2540.75 10832.1 2539.99L10812.5 2530.72C10807.7 2528.44 10802.1 2528.18 10797.1 2530.01L10777.3 2537.2C10773.5 2538.61 10769.3 2538.79 10765.3 2537.73L10746 2532.55L10734.3 2528.75C10725.6 2525.93 10719.9 2517.57 10720.5 2508.44L10720.8 2503.83C10721.2 2497.74 10724.4 2492.17 10729.4 2488.69L10759.1 2468.03C10761.3 2466.56 10763.6 2465.51 10766.2 2464.95L10787.6 2460.15C10793 2458.92 10797.8 2455.44 10800.5 2450.56L10817.1 2421.62C10821.6 2413.78 10820.2 2403.92 10813.8 2397.54L10793.6 2377.33C10788.4 2372.21 10780.9 2370.27 10774 2372.26L10727.9 2385.44L10681 2399.33C10678.3 2400.13 10675.8 2401.48 10673.7 2403.3L10636.7 2434.86C10634.8 2436.54 10633.1 2438.58 10631.9 2440.87L10606.2 2490.49C10605.8 2491.42 10605.4 2492.39 10605 2493.38L10530.8 2717.01C10528.5 2723.89 10530.1 2731.46 10535 2736.81C10578 2783.72 10652.4 2864.64 10659.8 2871.16C10667.5 2878 10794.2 3090.44 10859.4 3200.51C10861.3 3203.76 10862.3 3207.42 10862.2 3211.2L10858.3 3342.78C10858.2 3348.09 10860.1 3353.23 10863.8 3357.09C10912.3 3408.37 11002 3504.33 11013.8 3521.43C11029 3543.67 11143.9 3713.69 11155 3728.77C11162.5 3739.02 11201.8 3720.46 11229 3705.2C11236.8 3700.83 11240.4 3691.68 11238 3683.08L11209.7 3579.51C11208.3 3574.59 11208.9 3569.34 11211.3 3564.84L11238.6 3513.52C11242.1 3507.02 11241.7 3499.15 11237.6 3493.03L11196.4 3431.42C11193.2 3426.53 11192.2 3420.45 11193.8 3414.8L11214.3 3343.6L11225.8 3289.83C11226.3 3287.54 11226.4 3285.17 11226.1 3282.85L11214.4 3199.12C11213.9 3195.5 11212.4 3192.09 11210.1 3189.26L11175.8 3147.23C11173.7 3144.62 11171 3142.6 11167.9 3141.33L11140.3 3130.11C11133.3 3127.28 11128.5 3120.8 11127.9 3113.32L11123.6 3064.26C11123.2 3059.76 11124.3 3055.27 11126.8 3051.5L11136 3037.53C11139.1 3032.93 11143.9 3029.78 11149.3 3028.84Z" fill="white"/>
</mask>
<g mask="url(#mask12)">
<path id="Land_9" d="M3037.83 864.482C5882.57 -777.808 9520.11 196.799 11162.5 3041.33C12804.9 5885.86 11830.2 9523.14 8985.51 11165.4C6140.78 12807.7 2503.24 11833.1 860.831 8988.58C-781.576 6144.06 193.101 2506.77 3037.83 864.482Z" fill="url(#paint9_linear)"/>
</g>
</g>
<g id="Lighter_10">
<mask id="mask13" mask-type="alpha" maskUnits="userSpaceOnUse" x="11369" y="3585" width="81" height="98">
<path id="Vector 2_5" d="M11443.7 3668.89L11447.4 3657.57C11447.9 3655.92 11448.2 3654.2 11448.3 3652.47L11449 3639.91C11449.4 3632.58 11445.8 3625.62 11439.5 3621.77L11383.2 3587.08C11381.9 3586.27 11380.4 3585.8 11378.9 3585.74C11372.2 3585.45 11367.5 3592.24 11370.1 3598.4L11381.3 3624.93C11382.1 3626.78 11382.6 3628.73 11382.8 3630.73L11385.1 3652.89C11385.7 3659.18 11389.3 3664.79 11394.7 3668.04L11414.4 3679.84C11425.4 3686.44 11439.7 3681.1 11443.7 3668.89Z" fill="white"/>
</mask>
<g mask="url(#mask13)">
<path id="Land_10" d="M3037.83 864.481C5882.56 -777.809 9520.11 196.799 11162.5 3041.33C12804.9 5885.86 11830.2 9523.14 8985.51 11165.4C6140.78 12807.7 2503.24 11833.1 860.829 8988.58C-781.578 6144.05 193.099 2506.77 3037.83 864.481Z" fill="url(#paint10_linear)"/>
</g>
</g>
<g id="Darker_5">
<mask id="mask14" mask-type="alpha" maskUnits="userSpaceOnUse" x="10769" y="2767" width="298" height="414">
<path id="Rectangle 1_5" d="M11041.7 3174.88C11034.3 3182.19 11022.4 3182.53 11014.6 3175.65L10783.2 2973.31C10779.1 2969.7 10776.6 2964.56 10776.4 2959.09L10769.3 2787.99C10768.6 2772.48 10785.1 2762.18 10798.8 2769.56L10857.5 2801.32C10861 2803.19 10863.8 2806.03 10865.7 2809.48L10889.1 2853.31C10893.8 2862.12 10904.3 2866.1 10913.7 2862.63L10929.1 2856.92C10937.5 2853.81 10947 2856.67 10952.3 2863.94L10975.5 2896.04C10976.3 2897.16 10977 2898.36 10977.6 2899.63L10995.7 2940.1C10998.4 2946.11 10997.9 2953.05 10994.5 2958.67L10985.6 2973.25C10980.5 2981.52 10982.1 2992.21 10989.4 2998.63L11013.7 3020.16C11015.2 3021.49 11016.9 3022.59 11018.7 3023.42L11054.8 3039.72C11062.4 3043.19 11067.1 3051.08 11066.5 3059.46L11059.5 3150.51C11059.2 3155.35 11057 3159.88 11053.6 3163.28L11041.7 3174.88Z" fill="white"/>
</mask>
<g mask="url(#mask14)">
<path id="DarkerLand_5" d="M3037.83 864.479C5882.56 -777.811 9520.11 196.797 11162.5 3041.33C12804.9 5885.85 11830.2 9523.14 8985.51 11165.4C6140.78 12807.7 2503.24 11833.1 860.83 8988.58C-781.577 6144.05 193.1 2506.77 3037.83 864.479Z" fill="black" fill-opacity="0.1"/>
</g>
</g>
</g>
<g id="Group_6">
<g id="Lighter_11">
<mask id="mask15" mask-type="alpha" maskUnits="userSpaceOnUse" x="8217" y="458" width="1153" height="992">
<path id="Vector 1_6" d="M8959.68 845.317L8964.42 841.373C8974.75 832.771 8973.82 816.627 8962.57 809.266L8586.73 563.405C8583.29 561.155 8579.24 560.019 8575.13 560.153L8494.59 562.777C8492.49 562.845 8490.41 563.244 8488.44 563.96L8445.64 579.45C8443.98 580.053 8442.24 580.432 8440.47 580.577L8418.87 582.351C8413.55 582.788 8408.62 585.336 8405.19 589.426L8391.66 605.541C8389.02 608.684 8385.48 610.94 8381.52 612.002L8362.19 617.18L8350.17 619.731C8341.23 621.629 8332.14 617.225 8328.09 609.032L8326.04 604.886C8323.34 599.417 8323.28 593.013 8325.88 587.494L8341.32 554.728C8342.42 552.393 8343.97 550.293 8345.87 548.544L8361.99 533.692C8366.13 529.884 8368.47 524.512 8368.44 518.891L8368.3 485.567C8368.25 476.54 8362.17 468.659 8353.45 466.333L8325.8 458.959C8318.78 457.089 8311.31 459.165 8306.26 464.382L8272.96 498.826L8239.29 534.301C8237.37 536.333 8235.89 538.748 8234.95 541.388L8218.72 587.206C8217.85 589.641 8217.47 592.219 8217.59 594.799L8220.14 650.617C8220.19 651.665 8220.32 652.708 8220.53 653.736L8268.05 884.525C8269.51 891.624 8274.69 897.375 8281.61 899.556C8342.28 918.699 8447.23 951.555 8456.86 953.524C8466.95 955.59 8682.94 1076.21 8794.44 1138.94C8797.73 1140.79 8800.36 1143.5 8802.15 1146.82L8864.64 1262.68C8867.17 1267.36 8871.42 1270.84 8876.52 1272.35C8944.18 1292.5 9069.87 1330.74 9088.56 1339.7C9112.87 1351.35 9297.37 1441.15 9314.52 1448.66C9326.18 1453.77 9350.96 1418.03 9366.87 1391.23C9371.42 1383.56 9369.96 1373.83 9363.62 1367.56L9287.29 1292.03C9283.67 1288.45 9281.55 1283.61 9281.37 1278.52L9279.34 1220.43C9279.08 1213.07 9274.8 1206.45 9268.2 1203.2L9201.77 1170.41C9196.49 1167.81 9192.63 1163.02 9191.21 1157.31L9173.3 1085.44L9156.43 1033.09C9155.71 1030.86 9154.6 1028.77 9153.16 1026.92L9101.14 960.266C9098.9 957.387 9095.9 955.178 9092.49 953.878L9041.82 934.593C9038.68 933.398 9035.29 933.013 9031.96 933.474L9002.45 937.556C8995.01 938.585 8987.62 935.362 8983.32 929.212L8955.08 888.864C8952.5 885.167 8951.24 880.703 8951.51 876.199L8952.51 859.49C8952.84 853.979 8955.43 848.849 8959.68 845.317Z" fill="white"/>
</mask>
<g mask="url(#mask15)">
<path id="Land_11" d="M852.646 3026.39C2495.05 181.859 6132.6 -792.748 8977.33 849.542C11822.1 2491.83 12796.7 6129.12 11154.3 8973.64C9511.92 11818.2 5874.38 12792.8 3029.65 11150.5C184.916 9508.2 -789.761 5870.92 852.646 3026.39Z" fill="url(#paint11_linear)"/>
</g>
</g>
<g id="Lighter_12">
<mask id="mask16" mask-type="alpha" maskUnits="userSpaceOnUse" x="9432" y="1211" width="104" height="66">
<path id="Vector 2_6" d="M9534.62 1252.46L9532.16 1240.8C9531.8 1239.11 9531.22 1237.46 9530.44 1235.92L9524.76 1224.68C9521.45 1218.13 9514.82 1213.92 9507.48 1213.71L9441.38 1211.82C9439.82 1211.78 9438.28 1212.13 9436.9 1212.85C9430.97 1215.95 9430.29 1224.17 9435.64 1228.2L9458.66 1245.55C9460.26 1246.76 9461.67 1248.2 9462.85 1249.83L9475.87 1267.9C9479.56 1273.03 9485.46 1276.11 9491.77 1276.21L9514.72 1276.59C9527.56 1276.8 9537.27 1265.03 9534.62 1252.46Z" fill="white"/>
</mask>
<g mask="url(#mask16)">
<path id="Land_12" d="M852.642 3026.39C2495.05 181.859 6132.59 -792.748 8977.33 849.541C11822.1 2491.83 12796.7 6129.12 11154.3 8973.64C9511.92 11818.2 5874.38 12792.8 3029.64 11150.5C184.912 9508.2 -789.765 5870.92 852.642 3026.39Z" fill="url(#paint12_linear)"/>
</g>
</g>
<g id="Darker_6">
<mask id="mask17" mask-type="alpha" maskUnits="userSpaceOnUse" x="8506" y="794" width="439" height="247">
<path id="Rectangle 1_6" d="M8939.51 1025.58C8936.71 1035.65 8926.62 1041.86 8916.37 1039.83L8614.85 980.264C8609.47 979.202 8604.77 975.983 8601.83 971.357L8510.09 826.75C8501.78 813.647 8510.91 796.48 8526.42 796.045L8593.2 794.171C8597.12 794.061 8600.98 795.105 8604.31 797.174L8646.54 823.402C8655.03 828.674 8666.1 826.874 8672.48 819.186L8682.99 806.531C8688.72 799.629 8698.34 797.385 8706.53 801.04L8742.75 817.204C8744.01 817.768 8745.21 818.463 8746.33 819.276L8782.22 845.292C8787.54 849.154 8790.63 855.39 8790.47 861.967L8790.05 879.052C8789.82 888.731 8796.55 897.189 8806.04 899.13L8837.83 905.635C8839.8 906.038 8841.82 906.141 8843.82 905.943L8883.2 902.028C8891.57 901.196 8899.57 905.691 8903.21 913.273L8942.73 995.59C8944.83 999.961 8945.27 1004.95 8943.97 1009.62L8939.51 1025.58Z" fill="white"/>
</mask>
<g mask="url(#mask17)">
<path id="DarkerLand_6" d="M852.642 3026.39C2495.05 181.857 6132.59 -792.75 8977.33 849.539C11822.1 2491.83 12796.7 6129.11 11154.3 8973.64C9511.92 11818.2 5874.38 12792.8 3029.64 11150.5C184.912 9508.2 -789.765 5870.91 852.642 3026.39Z" fill="black" fill-opacity="0.1"/>
</g>
</g>
</g>
<g id="Group_7">
<g id="Lighter_13">
<mask id="mask18" mask-type="alpha" maskUnits="userSpaceOnUse" x="5204" y="0" width="1406" height="471">
<path id="Vector 1_7" d="M5984.2 58.0533L5986.33 52.2704C5990.98 39.6536 5982.1 26.136 5968.68 25.387L5520.26 0.369196C5516.15 0.140192 5512.08 1.18176 5508.58 3.35208L5440.15 45.8917C5438.36 47.0016 5436.76 48.3862 5435.41 49.9945L5406.09 84.8055C5404.95 86.1607 5403.63 87.3581 5402.18 88.3665L5384.35 100.704C5379.96 103.743 5376.97 108.413 5376.04 113.672L5372.39 134.39C5371.67 138.431 5369.73 142.155 5366.83 145.057L5352.68 159.205L5343.55 167.421C5336.76 173.534 5326.69 174.265 5319.08 169.196L5315.23 166.629C5310.16 163.245 5306.9 157.729 5306.39 151.649L5303.39 115.551C5303.17 112.979 5303.46 110.389 5304.23 107.925L5310.77 86.9998C5312.44 81.6345 5311.78 75.8114 5308.95 70.956L5292.16 42.1708C5287.61 34.3733 5278.4 30.5896 5269.69 32.9363L5242.05 40.3762C5235.04 42.2627 5229.61 47.7972 5227.85 54.8375L5216.23 101.319L5204.81 148.872C5204.16 151.596 5204.08 154.427 5204.59 157.181L5213.45 204.977C5213.92 207.517 5214.87 209.941 5216.27 212.117L5246.39 259.179C5246.95 260.063 5247.59 260.901 5248.29 261.685L5404.84 437.797C5409.66 443.214 5417.02 445.605 5424.09 444.038C5486.21 430.281 5593.53 406.263 5602.85 403.156C5612.63 399.897 5859.99 396.371 5987.92 394.949C5991.7 394.907 5995.32 395.94 5998.54 397.925L6110.59 467.017C6115.12 469.809 6120.54 470.69 6125.72 469.455C6194.38 453.073 6322.36 423.352 6343.03 421.762C6369.9 419.695 6574.59 405.223 6593.2 403.156C6605.85 401.75 6609.44 358.411 6609.81 327.245C6609.92 318.327 6603.79 310.632 6595.17 308.37L6491.3 281.127C6486.36 279.834 6482.11 276.706 6479.41 272.382L6448.6 223.092C6444.7 216.85 6437.69 213.256 6430.34 213.735L6356.41 218.556C6350.54 218.939 6344.81 216.72 6340.72 212.491L6289.27 159.205L6248.48 122.303C6246.74 120.73 6244.74 119.475 6242.57 118.595L6164.19 86.8743C6160.81 85.5041 6157.11 85.0871 6153.5 85.6686L6099.98 94.3015C6096.66 94.8363 6093.53 96.1972 6090.88 98.259L6067.36 116.552C6061.44 121.161 6053.43 122.063 6046.63 118.889L6002 98.0632C5997.91 96.1551 5994.58 92.9202 5992.57 88.8841L5985.08 73.9127C5982.61 68.9741 5982.29 63.2344 5984.2 58.0533Z" fill="white"/>
</mask>
<g mask="url(#mask18)">
<path id="Land_13" d="M53.9201 6000.14C53.9198 2715.56 2716.79 52.8876 6001.6 52.8873C9286.41 52.887 11949.3 2715.56 11949.3 6000.14C11949.3 9284.72 9286.41 11947.4 6001.6 11947.4C2716.79 11947.4 53.9204 9284.72 53.9201 6000.14Z" fill="url(#paint13_linear)"/>
</g>
</g>
<g id="Lighter_14">
<mask id="mask19" mask-type="alpha" maskUnits="userSpaceOnUse" x="6579" y="100" width="112" height="68">
<path id="Vector 2_7" d="M6685.7 123.198L6677.74 114.335C6676.58 113.045 6675.26 111.911 6673.81 110.961L6663.28 104.072C6657.13 100.054 6649.29 99.7234 6642.83 103.21L6584.63 134.625C6583.26 135.364 6582.11 136.441 6581.27 137.754C6577.68 143.401 6581.21 150.862 6587.85 151.677L6616.46 155.19C6618.45 155.435 6620.4 155.978 6622.23 156.802L6642.55 165.945C6648.31 168.536 6654.95 168.256 6660.47 165.19L6680.53 154.045C6691.76 147.807 6694.28 132.755 6685.7 123.198Z" fill="white"/>
</mask>
<g mask="url(#mask19)">
<path id="Land_14" d="M53.9171 6000.14C53.9168 2715.56 2716.78 52.8877 6001.6 52.8874C9286.41 52.8872 11949.3 2715.56 11949.3 6000.14C11949.3 9284.72 9286.41 11947.4 6001.6 11947.4C2716.79 11947.4 53.9174 9284.72 53.9171 6000.14Z" fill="url(#paint14_linear)"/>
</g>
</g>
<g id="Darker_7">
<mask id="mask20" mask-type="alpha" maskUnits="userSpaceOnUse" x="5574" y="141" width="484" height="208">
<path id="Rectangle 1_7" d="M6056.88 224.249C6059.48 234.37 6053.85 244.788 6043.96 248.16L5753.05 347.324C5747.86 349.091 5742.18 348.655 5737.32 346.116L5585.57 266.751C5571.81 259.559 5571.14 240.127 5584.35 231.994L5641.25 196.986C5644.58 194.931 5648.45 193.903 5652.37 194.03L5702.06 195.632C5712.04 195.954 5720.74 188.857 5722.42 179.009L5725.19 162.8C5726.7 153.958 5733.91 147.203 5742.83 146.273L5782.27 142.165C5783.65 142.021 5785.04 142.021 5786.42 142.165L5830.5 146.756C5837.05 147.438 5842.84 151.295 5845.99 157.071L5854.17 172.074C5858.81 180.574 5868.87 184.532 5878.05 181.47L5908.84 171.21C5910.74 170.574 5912.54 169.655 5914.18 168.483L5946.33 145.403C5953.16 140.498 5962.33 140.392 5969.28 145.138L6044.67 196.666C6048.67 199.403 6051.54 203.5 6052.75 208.197L6056.88 224.249Z" fill="white"/>
</mask>
<g mask="url(#mask20)">
<path id="DarkerLand_7" d="M53.9161 6000.14C53.9158 2715.56 2716.78 52.8877 6001.6 52.8874C9286.41 52.8872 11949.3 2715.56 11949.3 6000.14C11949.3 9284.72 9286.41 11947.4 6001.6 11947.4C2716.78 11947.4 53.9164 9284.72 53.9161 6000.14Z" fill="black" fill-opacity="0.1"/>
</g>
</g>
</g>
<g id="Group_8">
<g id="Lighter_15">
<mask id="mask21" mask-type="alpha" maskUnits="userSpaceOnUse" x="2366" y="765" width="1361" height="712">
<path id="Vector 1_8" d="M3023.77 856.726L3022.72 850.652C3020.44 837.401 3005.99 830.133 2993.99 836.196L2593.13 1038.73C2589.47 1040.58 2586.46 1043.52 2584.52 1047.14L2546.52 1118.2C2545.53 1120.06 2544.84 1122.05 2544.47 1124.12L2536.48 1168.93C2536.17 1170.67 2535.63 1172.37 2534.88 1173.97L2525.61 1193.56C2523.33 1198.39 2523.07 1203.93 2524.9 1208.95L2532.09 1228.72C2533.49 1232.58 2533.68 1236.77 2532.61 1240.74L2527.43 1260.06L2523.64 1271.74C2520.81 1280.43 2512.45 1286.1 2503.33 1285.51L2498.71 1285.22C2492.63 1284.82 2487.05 1281.67 2483.57 1276.66L2462.91 1246.9C2461.44 1244.78 2460.39 1242.4 2459.83 1239.88L2455.03 1218.49C2453.8 1213 2450.32 1208.29 2445.44 1205.5L2416.5 1188.97C2408.66 1184.49 2398.79 1185.82 2392.42 1192.21L2372.21 1212.47C2367.08 1217.6 2365.14 1225.11 2367.14 1232.09L2380.31 1278.15L2394.21 1325.04C2395 1327.73 2396.36 1330.22 2398.17 1332.35L2429.74 1369.32C2431.42 1371.28 2433.46 1372.9 2435.75 1374.09L2485.37 1399.79C2486.3 1400.27 2487.27 1400.68 2488.27 1401.01L2711.91 1475.25C2718.79 1477.54 2726.36 1475.93 2731.71 1471.03C2778.62 1428.06 2859.55 1353.6 2866.07 1346.25C2872.91 1338.54 3085.37 1211.82 3195.44 1146.63C3198.7 1144.7 3202.35 1143.78 3206.13 1143.89L3337.72 1147.71C3343.04 1147.86 3348.17 1145.91 3352.04 1142.26C3403.31 1093.74 3499.29 1004.01 3516.39 992.306C3538.63 977.078 3708.66 862.21 3723.74 851.116C3733.99 843.572 3715.43 804.244 3700.17 777.07C3695.8 769.294 3686.65 765.691 3678.05 768.045L3574.47 796.384C3569.55 797.729 3564.3 797.146 3559.8 794.753L3508.48 767.469C3501.98 764.014 3494.1 764.409 3487.98 768.496L3426.37 809.633C3421.48 812.897 3415.4 813.845 3409.75 812.224L3338.54 791.802L3284.77 780.236C3282.48 779.743 3280.11 779.657 3277.79 779.982L3194.06 791.696C3190.44 792.202 3187.03 793.689 3184.2 795.995L3142.16 830.233C3139.55 832.354 3137.53 835.096 3136.26 838.207L3125.04 865.809C3122.21 872.763 3115.73 877.548 3108.25 878.2L3059.18 882.478C3054.69 882.87 3050.19 881.73 3046.43 879.244L3032.46 870.021C3027.85 866.979 3024.7 862.167 3023.77 856.726Z" fill="white"/>
</mask>
<g mask="url(#mask21)">
<path id="Land_15" d="M859.25 8967.66C-783.157 6123.13 191.52 2485.84 3036.25 843.554C5880.98 -798.736 9518.53 175.871 11160.9 3020.4C12803.3 5864.93 11828.7 9502.21 8983.93 11144.5C6139.2 12786.8 2501.66 11812.2 859.25 8967.66Z" fill="url(#paint15_linear)"/>
</g>
</g>
<g id="Lighter_16">
<mask id="mask22" mask-type="alpha" maskUnits="userSpaceOnUse" x="3580" y="557" width="98" height="80">
<path id="Vector 2_8" d="M3663.86 562.419L3652.53 558.723C3650.88 558.184 3649.17 557.863 3647.44 557.766L3634.87 557.066C3627.55 556.657 3620.58 560.295 3616.73 566.543L3582.04 622.843C3581.23 624.168 3580.77 625.679 3580.7 627.233C3580.42 633.918 3587.2 638.618 3593.36 636.003L3619.89 624.741C3621.74 623.956 3623.7 623.455 3625.69 623.253L3647.86 621.013C3654.14 620.378 3659.76 616.814 3663 611.399L3674.8 591.716C3681.41 580.701 3676.07 566.405 3663.86 562.419Z" fill="white"/>
</mask>
<g mask="url(#mask22)">
<path id="Land_16" d="M859.247 8967.66C-783.16 6123.13 191.517 2485.84 3036.25 843.554C5880.98 -798.735 9518.53 175.872 11160.9 3020.4C12803.3 5864.93 11828.7 9502.21 8983.93 11144.5C6139.2 12786.8 2501.65 11812.2 859.247 8967.66Z" fill="url(#paint16_linear)"/>
</g>
</g>
<g id="Darker_8">
<mask id="mask23" mask-type="alpha" maskUnits="userSpaceOnUse" x="2762" y="939" width="414" height="298">
<path id="Rectangle 1_8" d="M3169.81 964.32C3177.13 971.784 3177.46 983.62 3170.58 991.485L2968.23 1222.81C2964.62 1226.93 2959.48 1229.4 2954.01 1229.62L2782.89 1236.77C2767.39 1237.41 2757.09 1220.92 2764.46 1207.27L2796.23 1148.51C2798.09 1145.06 2800.93 1142.24 2804.39 1140.39L2848.22 1116.93C2857.03 1112.22 2861.01 1101.73 2857.54 1092.36L2851.83 1076.94C2848.72 1068.53 2851.58 1059.07 2858.85 1053.8L2890.95 1030.52C2892.07 1029.71 2893.28 1029.02 2894.54 1028.45L2935.01 1010.39C2941.02 1007.71 2947.97 1008.15 2953.58 1011.58L2968.17 1020.48C2976.44 1025.52 2987.13 1023.92 2993.55 1016.68L3015.08 992.401C3016.42 990.897 3017.52 989.201 3018.34 987.369L3034.64 951.309C3038.11 943.644 3046 938.967 3054.39 939.605L3145.44 946.538C3150.28 946.906 3154.81 949.018 3158.21 952.482L3169.81 964.32Z" fill="white"/>
</mask>
<g mask="url(#mask23)">
<path id="DarkerLand_8" d="M859.247 8967.66C-783.16 6123.13 191.517 2485.84 3036.25 843.554C5880.98 -798.735 9518.53 175.872 11160.9 3020.4C12803.3 5864.93 11828.7 9502.21 8983.93 11144.5C6139.2 12786.8 2501.65 11812.2 859.247 8967.66Z" fill="black" fill-opacity="0.1"/>
</g>
</g>
</g>
<g id="Group_9">
<g id="Lighter_17">
<mask id="mask24" mask-type="alpha" maskUnits="userSpaceOnUse" x="458" y="2632" width="992" height="1153">
<path id="Vector 1_9" d="M845.639 3042.81L841.694 3038.07C833.092 3027.73 816.947 3028.66 809.586 3039.91L563.707 3415.72C561.456 3419.16 560.32 3423.21 560.454 3427.32L563.078 3507.86C563.147 3509.96 563.546 3512.03 564.262 3514.01L579.753 3556.8C580.356 3558.47 580.735 3560.21 580.88 3561.97L582.654 3583.58C583.091 3588.9 585.639 3593.82 589.729 3597.26L605.846 3610.78C608.989 3613.42 611.245 3616.96 612.307 3620.93L617.486 3640.25L620.036 3652.26C621.935 3661.2 617.53 3670.29 609.336 3674.35L605.19 3676.4C599.721 3679.1 593.317 3679.16 587.798 3676.56L555.029 3661.11C552.694 3660.01 550.594 3658.47 548.845 3656.57L533.991 3640.45C530.183 3636.31 524.811 3633.97 519.191 3634L485.863 3634.15C476.835 3634.19 468.953 3640.27 466.627 3648.99L459.254 3676.64C457.384 3683.65 459.459 3691.13 464.676 3696.17L499.123 3729.48L534.601 3763.14C536.633 3765.06 539.048 3766.54 541.688 3767.48L587.51 3783.71C589.945 3784.57 592.523 3784.96 595.103 3784.84L650.925 3782.29C651.973 3782.24 653.016 3782.11 654.044 3781.9L884.849 3734.38C891.949 3732.92 897.701 3727.74 899.882 3720.83C919.026 3660.16 951.884 3555.21 953.854 3545.59C955.92 3535.49 1076.55 3319.53 1139.28 3208.04C1141.13 3204.74 1143.84 3202.12 1147.17 3200.32L1263.03 3137.84C1267.72 3135.31 1271.19 3131.06 1272.71 3125.96C1292.85 3058.3 1331.1 2932.62 1340.06 2913.93C1351.7 2889.62 1441.51 2705.13 1449.03 2687.99C1454.14 2676.32 1418.39 2651.55 1391.59 2635.64C1383.92 2631.09 1374.19 2632.55 1367.92 2638.89L1292.39 2715.21C1288.8 2718.84 1283.97 2720.96 1278.87 2721.14L1220.78 2723.17C1213.42 2723.43 1206.8 2727.7 1203.54 2734.31L1170.75 2800.73C1168.15 2806.01 1163.36 2809.87 1157.66 2811.29L1085.78 2829.2L1033.43 2846.07C1031.19 2846.79 1029.11 2847.9 1027.26 2849.34L960.597 2901.35C957.717 2903.6 955.507 2906.59 954.208 2910L934.921 2960.67C933.727 2963.81 933.342 2967.2 933.802 2970.52L937.884 3000.04C938.913 3007.47 935.69 3014.86 929.539 3019.16L889.189 3047.4C885.492 3049.99 881.028 3051.25 876.524 3050.98L859.812 3049.97C854.301 3049.64 849.172 3047.05 845.639 3042.81Z" fill="white"/>
</mask>
<g mask="url(#mask24)">
<path id="Land_17" d="M3026.87 11149.3C182.134 9506.97 -792.543 5869.68 849.864 3025.15C2492.27 180.626 6129.82 -793.981 8974.55 848.308C11819.3 2490.6 12794 6127.88 11151.5 8972.41C9509.14 11816.9 5871.6 12791.5 3026.87 11149.3Z" fill="url(#paint17_linear)"/>
</g>
</g>
<g id="Lighter_18">
<mask id="mask25" mask-type="alpha" maskUnits="userSpaceOnUse" x="1212" y="2467" width="65" height="104">
<path id="Vector 2_9" d="M1252.81 2467.9L1241.15 2470.37C1239.46 2470.72 1237.81 2471.3 1236.27 2472.08L1225.03 2477.76C1218.48 2481.07 1214.27 2487.7 1214.06 2495.04L1212.17 2561.14C1212.13 2562.69 1212.48 2564.23 1213.2 2565.61C1216.3 2571.54 1224.52 2572.22 1228.55 2566.88L1245.9 2543.86C1247.11 2542.26 1248.55 2540.84 1250.18 2539.67L1268.26 2526.65C1273.38 2522.96 1276.46 2517.06 1276.56 2510.75L1276.94 2487.8C1277.15 2474.96 1265.38 2465.25 1252.81 2467.9Z" fill="white"/>
</mask>
<g mask="url(#mask25)">
<path id="Land_18" d="M3026.86 11149.3C182.132 9506.97 -792.545 5869.69 849.862 3025.16C2492.27 180.628 6129.81 -793.979 8974.55 848.311C11819.3 2490.6 12794 6127.88 11151.5 8972.41C9509.14 11816.9 5871.6 12791.5 3026.86 11149.3Z" fill="url(#paint18_linear)"/>
</g>
</g>
<g id="Darker_9">
<mask id="mask26" mask-type="alpha" maskUnits="userSpaceOnUse" x="794" y="3057" width="247" height="439">
<path id="Rectangle 1_9" d="M1025.92 3062.97C1035.98 3065.77 1042.19 3075.86 1040.17 3086.11L980.595 3387.61C979.534 3392.98 976.314 3397.69 971.688 3400.62L827.069 3492.36C813.965 3500.67 796.798 3491.54 796.363 3476.03L794.489 3409.26C794.379 3405.34 795.423 3401.47 797.492 3398.14L823.722 3355.92C828.995 3347.43 827.195 3336.36 819.506 3329.98L806.85 3319.48C799.948 3313.75 797.703 3304.12 801.359 3295.93L817.524 3259.72C818.088 3258.46 818.783 3257.25 819.596 3256.13L845.613 3220.25C849.476 3214.93 855.712 3211.84 862.291 3212L879.376 3212.42C889.056 3212.65 897.514 3205.92 899.456 3196.43L905.961 3164.64C906.364 3162.68 906.468 3160.66 906.269 3158.66L902.354 3119.28C901.522 3110.91 906.017 3102.91 913.601 3099.27L995.922 3059.75C1000.29 3057.65 1005.28 3057.21 1009.95 3058.52L1025.92 3062.97Z" fill="white"/>
</mask>
<g mask="url(#mask26)">
<path id="DarkerLand_9" d="M3026.86 11149.3C182.132 9506.97 -792.545 5869.69 849.862 3025.16C2492.27 180.63 6129.81 -793.978 8974.55 848.312C11819.3 2490.6 12794 6127.89 11151.5 8972.41C9509.14 11816.9 5871.6 12791.5 3026.86 11149.3Z" fill="black" fill-opacity="0.1"/>
</g>
</g>
</g>
<g id="Group_10">
<g id="Lighter_19">
<mask id="mask27" mask-type="alpha" maskUnits="userSpaceOnUse" x="1" y="5391" width="471" height="1407">
<path id="Vector 1_10" d="M59.0372 6017.25L53.2494 6015.12C40.6329 6010.47 27.116 6019.35 26.3669 6032.77L1.34735 6481.16C1.11826 6485.27 2.1601 6489.34 4.3309 6492.83L46.8729 6561.27C47.983 6563.05 49.3678 6564.65 50.9761 6566.01L85.7897 6595.32C87.1448 6596.46 88.3424 6597.78 89.351 6599.23L101.689 6617.05C104.729 6621.44 109.398 6624.44 114.657 6625.37L135.379 6629.02C139.42 6629.74 143.143 6631.67 146.045 6634.58L160.195 6648.72L168.409 6657.85C174.524 6664.64 175.255 6674.72 170.184 6682.32L167.619 6686.17C164.235 6691.25 158.719 6694.5 152.639 6695.01L116.537 6698.02C113.965 6698.23 111.375 6697.95 108.911 6697.18L87.9824 6690.64C82.6178 6688.96 76.7954 6689.62 71.9405 6692.45L43.1527 6709.24C35.3543 6713.79 31.5701 6723 33.9173 6731.72L41.3569 6759.35C43.2437 6766.35 48.7783 6771.79 55.8187 6773.55L102.304 6785.17L149.861 6796.58C152.585 6797.24 155.416 6797.31 158.17 6796.8L205.97 6787.95C208.51 6787.48 210.934 6786.52 213.109 6785.13L260.176 6755.01C261.06 6754.44 261.898 6753.81 262.682 6753.11L438.806 6596.57C444.224 6591.75 446.614 6584.39 445.047 6577.31C431.289 6515.2 407.27 6407.89 404.163 6398.57C400.904 6388.79 397.378 6141.45 395.956 6013.54C395.914 6009.75 396.947 6006.13 398.932 6002.91L468.028 5890.87C470.821 5886.34 471.701 5880.92 470.466 5875.74C454.083 5807.08 424.36 5679.11 422.771 5658.45C420.703 5631.57 406.23 5426.9 404.163 5408.3C402.757 5395.64 359.413 5392.05 328.245 5391.68C319.327 5391.58 311.633 5397.7 309.37 5406.33L282.126 5510.19C280.832 5515.12 277.704 5519.37 273.38 5522.08L224.087 5552.88C217.844 5556.78 214.25 5563.8 214.729 5571.14L219.55 5645.06C219.932 5650.93 217.714 5656.67 213.484 5660.75L160.195 5712.2L123.29 5752.99C121.717 5754.73 120.462 5756.73 119.582 5758.9L87.8591 5837.27C86.4884 5840.66 86.0714 5844.35 86.6531 5847.96L95.2863 5901.48C95.8211 5904.8 97.1824 5907.92 99.2445 5910.58L117.538 5934.09C122.147 5940.02 123.049 5948.03 119.874 5954.83L99.0485 5999.46C97.1401 6003.54 93.905 6006.87 89.8689 6008.89L74.8947 6016.37C69.9566 6018.84 64.2177 6019.16 59.0372 6017.25Z" fill="white"/>
</mask>
<g mask="url(#mask27)">
<path id="Land_19" d="M6001.55 11947.1C2716.74 11947.1 53.8701 9284.43 53.8702 5999.85C53.8704 2715.27 2716.74 52.5971 6001.55 52.5972C9286.36 52.5974 11949.2 2715.27 11949.2 5999.85C11949.2 9284.43 9286.36 11947.1 6001.55 11947.1Z" fill="url(#paint19_linear)"/>
</g>
</g>
<g id="Lighter_20">
<mask id="mask28" mask-type="alpha" maskUnits="userSpaceOnUse" x="101" y="5310" width="68" height="112">
<path id="Vector 2_10" d="M124.188 5315.8L115.322 5323.76C114.031 5324.92 112.897 5326.24 111.947 5327.69L105.059 5338.22C101.04 5344.36 100.709 5352.21 104.196 5358.67L135.613 5416.86C136.352 5418.23 137.429 5419.39 138.742 5420.22C144.39 5423.81 151.851 5420.29 152.666 5413.64L156.179 5385.04C156.424 5383.04 156.968 5381.1 157.792 5379.27L166.934 5358.95C169.526 5353.19 169.246 5346.55 166.179 5341.03L155.033 5320.97C148.795 5309.74 133.744 5307.22 124.188 5315.8Z" fill="white"/>
</mask>
<g mask="url(#mask28)">
<path id="Land_20" d="M6001.55 11947.1C2716.74 11947.1 53.8694 9284.43 53.8695 5999.85C53.8696 2715.28 2716.74 52.5995 6001.55 52.5997C9286.36 52.5998 11949.2 2715.28 11949.2 5999.86C11949.2 9284.43 9286.36 11947.1 6001.55 11947.1Z" fill="url(#paint20_linear)"/>
</g>
</g>
<g id="Darker_10">
<mask id="mask29" mask-type="alpha" maskUnits="userSpaceOnUse" x="142" y="5943" width="208" height="484">
<path id="Rectangle 1_10" d="M225.245 5944.58C235.366 5941.98 245.784 5947.6 249.156 5957.49L348.326 6248.39C350.094 6253.57 349.657 6259.26 347.118 6264.11L267.746 6415.86C260.554 6429.61 241.124 6430.29 232.991 6417.07L197.978 6360.18C195.923 6356.84 194.895 6352.97 195.022 6349.05L196.624 6299.37C196.946 6289.39 189.849 6280.7 180 6279.01L163.788 6276.25C154.947 6274.74 148.191 6267.53 147.262 6258.6L143.153 6219.16C143.009 6217.78 143.009 6216.4 143.153 6215.02L147.745 6170.94C148.427 6164.39 152.284 6158.6 158.061 6155.45L173.064 6147.27C181.565 6142.63 185.523 6132.57 182.461 6123.39L172.2 6092.61C171.564 6090.7 170.645 6088.9 169.473 6087.27L146.393 6055.12C141.486 6048.29 141.381 6039.12 146.128 6032.17L197.659 5956.79C200.395 5952.79 204.493 5949.91 209.189 5948.71L225.245 5944.58Z" fill="white"/>
</mask>
<g mask="url(#mask29)">
<path id="DarkerLand_10" d="M6001.55 11947.1C2716.74 11947.1 53.8694 9284.43 53.8695 5999.86C53.8696 2715.28 2716.74 52.6006 6001.55 52.6008C9286.36 52.6009 11949.2 2715.28 11949.2 5999.86C11949.2 9284.43 9286.36 11947.1 6001.55 11947.1Z" fill="black" fill-opacity="0.1"/>
</g>
</g>
</g>
<g id="Group_11">
<g id="Lighter_21">
<mask id="mask30" mask-type="alpha" maskUnits="userSpaceOnUse" x="761" y="8268" width="713" height="1361">
<path id="Vector 1_11" d="M853.413 8971.48L847.335 8972.52C834.085 8974.81 826.817 8989.25 832.881 9001.25L1035.42 9402.08C1037.28 9405.75 1040.22 9408.76 1043.84 9410.69L1114.91 9448.69C1116.76 9449.68 1118.76 9450.37 1120.83 9450.74L1165.64 9458.72C1167.38 9459.03 1169.08 9459.58 1170.68 9460.33L1190.27 9469.6C1195.1 9471.88 1200.64 9472.14 1205.66 9470.31L1225.43 9463.12C1229.29 9461.71 1233.48 9461.53 1237.45 9462.59L1256.78 9467.77L1268.45 9471.57C1277.15 9474.4 1282.82 9482.76 1282.23 9491.88L1281.93 9496.49C1281.54 9502.58 1278.39 9508.16 1273.38 9511.63L1243.62 9532.29C1241.5 9533.76 1239.11 9534.81 1236.59 9535.37L1215.2 9540.17C1209.71 9541.4 1205 9544.88 1202.21 9549.76L1185.68 9578.7C1181.2 9586.54 1182.52 9596.4 1188.92 9602.78L1209.18 9622.99C1214.31 9628.12 1221.83 9630.06 1228.8 9628.06L1274.87 9614.88L1321.76 9600.99C1324.45 9600.19 1326.94 9598.84 1329.07 9597.02L1366.04 9565.46C1368 9563.78 1369.62 9561.74 1370.81 9559.45L1396.51 9509.83C1396.99 9508.9 1397.4 9507.93 1397.73 9506.94L1471.98 9283.31C1474.27 9276.43 1472.66 9268.86 1467.76 9263.51C1424.79 9216.6 1350.33 9135.68 1342.97 9129.16C1335.26 9122.32 1208.53 8909.88 1143.34 8799.81C1141.41 8796.56 1140.49 8792.9 1140.6 8789.12L1144.41 8657.54C1144.57 8652.23 1142.62 8647.09 1138.96 8643.23C1090.44 8591.96 1000.71 8495.99 989.002 8478.89C973.772 8456.65 858.896 8286.64 847.802 8271.56C840.257 8261.3 800.925 8279.86 773.749 8295.13C765.973 8299.49 762.37 8308.64 764.724 8317.24L793.065 8420.81C794.411 8425.73 793.827 8430.98 791.434 8435.48L764.149 8486.8C760.693 8493.3 761.088 8501.17 765.176 8507.3L806.314 8568.9C809.58 8573.79 810.528 8579.87 808.906 8585.52L788.483 8656.72L776.917 8710.49C776.423 8712.79 776.337 8715.15 776.662 8717.47L788.377 8801.2C788.883 8804.82 790.37 8808.23 792.677 8811.06L826.917 8853.09C829.038 8855.7 831.781 8857.73 834.892 8858.99L862.495 8870.21C869.449 8873.04 874.235 8879.52 874.887 8887L879.165 8936.06C879.557 8940.56 878.418 8945.05 875.931 8948.82L866.707 8962.79C863.665 8967.39 858.854 8970.54 853.413 8971.48Z" fill="white"/>
</mask>
<g mask="url(#mask30)">
<path id="Land_21" d="M8964.92 11135.8C6120.19 12778.1 2482.64 11803.5 840.238 8958.99C-802.169 6114.46 172.508 2477.18 3017.24 834.891C5861.97 -807.398 9499.52 167.209 11141.9 3011.74C12784.3 5856.27 11809.7 9493.55 8964.92 11135.8Z" fill="url(#paint21_linear)"/>
</g>
</g>
<g id="Lighter_22">
<mask id="mask31" mask-type="alpha" maskUnits="userSpaceOnUse" x="553" y="8317" width="81" height="98">
<path id="Vector 2_11" d="M559.084 8331.43L555.387 8342.76C554.849 8344.4 554.527 8346.12 554.431 8347.85L553.73 8360.41C553.321 8367.74 556.96 8374.7 563.209 8378.55L619.512 8413.24C620.837 8414.05 622.348 8414.52 623.902 8414.58C630.588 8414.87 635.288 8408.09 632.673 8401.93L621.41 8375.39C620.625 8373.55 620.124 8371.59 619.922 8369.59L617.682 8347.43C617.047 8341.15 613.482 8335.53 608.066 8332.28L588.382 8320.48C577.366 8313.88 563.07 8319.22 559.084 8331.43Z" fill="white"/>
</mask>
<g mask="url(#mask31)">
<path id="Land_22" d="M8964.92 11135.8C6120.19 12778.1 2482.65 11803.5 840.239 8958.99C-802.168 6114.47 172.509 2477.18 3017.24 834.893C5861.97 -807.396 9499.52 167.211 11141.9 3011.74C12784.3 5856.27 11809.7 9493.55 8964.92 11135.8Z" fill="url(#paint22_linear)"/>
</g>
</g>
<g id="Darker_11">
<mask id="mask32" mask-type="alpha" maskUnits="userSpaceOnUse" x="936" y="8819" width="298" height="415">
<path id="Rectangle 1_11" d="M961.014 8825.44C968.478 8818.13 980.314 8817.79 988.18 8824.67L1219.52 9027.01C1223.64 9030.62 1226.11 9035.76 1226.34 9041.23L1233.48 9212.33C1234.13 9227.84 1217.64 9238.14 1203.99 9230.76L1145.22 9199C1141.77 9197.13 1138.94 9194.3 1137.09 9190.84L1113.64 9147.01C1108.92 9138.2 1098.43 9134.23 1089.06 9137.69L1073.64 9143.4C1065.23 9146.52 1055.77 9143.65 1050.5 9136.39L1027.22 9104.28C1026.41 9103.16 1025.71 9101.96 1025.15 9100.69L1007.09 9060.22C1004.4 9054.22 1004.85 9047.27 1008.28 9041.66L1017.18 9027.07C1022.22 9018.8 1020.62 9008.11 1013.37 9001.69L989.096 8980.16C987.592 8978.83 985.895 8977.73 984.064 8976.9L948.002 8960.6C940.336 8957.14 935.658 8949.24 936.297 8940.86L943.23 8849.81C943.598 8844.98 945.71 8840.44 949.174 8837.04L961.014 8825.44Z" fill="white"/>
</mask>
<g mask="url(#mask32)">
<path id="DarkerLand_11" d="M8964.92 11135.8C6120.19 12778.1 2482.65 11803.5 840.239 8959C-802.167 6114.47 172.51 2477.18 3017.24 834.894C5861.97 -807.395 9499.52 167.213 11141.9 3011.74C12784.3 5856.27 11809.7 9493.55 8964.92 11135.8Z" fill="black" fill-opacity="0.1"/>
</g>
</g>
</g>
<g id="Group_12">
<g id="Lighter_23">
<mask id="mask33" mask-type="alpha" maskUnits="userSpaceOnUse" x="2630" y="10549" width="1153" height="992">
<path id="Vector 1_12" d="M3040.8 11153L3036.06 11156.9C3025.72 11165.5 3026.65 11181.7 3037.9 11189L3413.74 11434.9C3417.18 11437.1 3421.23 11438.3 3425.34 11438.1L3505.88 11435.5C3507.98 11435.4 3510.06 11435 3512.04 11434.3L3554.83 11418.8C3556.5 11418.2 3558.24 11417.9 3560 11417.7L3581.6 11415.9C3586.93 11415.5 3591.85 11412.9 3595.29 11408.9L3608.81 11392.7C3611.45 11389.6 3614.99 11387.3 3618.96 11386.3L3638.29 11381.1L3650.3 11378.6C3659.24 11376.7 3668.33 11381.1 3672.38 11389.3L3674.43 11393.4C3677.14 11398.9 3677.2 11405.3 3674.59 11410.8L3659.15 11443.6C3658.05 11445.9 3656.51 11448 3654.61 11449.7L3638.48 11464.6C3634.35 11468.4 3632 11473.8 3632.03 11479.4L3632.18 11512.7C3632.22 11521.7 3638.3 11529.6 3647.02 11532L3674.68 11539.3C3681.69 11541.2 3689.16 11539.1 3694.21 11533.9L3727.52 11499.5L3761.18 11464C3763.11 11462 3764.59 11459.5 3765.52 11456.9L3781.76 11411.1C3782.62 11408.6 3783 11406.1 3782.88 11403.5L3780.33 11347.7C3780.28 11346.6 3780.15 11345.6 3779.94 11344.5L3732.42 11113.8C3730.96 11106.7 3725.78 11100.9 3718.87 11098.7C3658.19 11079.6 3553.24 11046.7 3543.62 11044.8C3533.52 11042.7 3317.54 10922.1 3206.04 10859.3C3202.74 10857.5 3200.12 10854.8 3198.32 10851.5L3135.83 10735.6C3133.31 10730.9 3129.05 10727.4 3123.95 10725.9C3056.3 10705.8 2930.6 10667.5 2911.91 10658.6C2887.6 10646.9 2703.1 10557.1 2685.95 10549.6C2674.29 10544.5 2649.51 10580.3 2633.61 10607.1C2629.06 10614.7 2630.51 10624.5 2636.85 10630.7L2713.18 10706.2C2716.81 10709.8 2718.92 10714.7 2719.1 10719.8L2721.14 10777.9C2721.39 10785.2 2725.67 10791.8 2732.27 10795.1L2798.71 10827.9C2803.98 10830.5 2807.84 10835.3 2809.26 10841L2827.18 10912.8L2844.05 10965.2C2844.77 10967.4 2845.87 10969.5 2847.32 10971.4L2899.33 11038C2901.58 11040.9 2904.57 11043.1 2907.98 11044.4L2958.66 11063.7C2961.79 11064.9 2965.18 11065.3 2968.51 11064.8L2998.03 11060.7C3005.46 11059.7 3012.85 11062.9 3017.15 11069.1L3045.39 11109.4C3047.98 11113.1 3049.24 11117.6 3048.97 11122.1L3047.96 11138.8C3047.63 11144.3 3045.04 11149.4 3040.8 11153Z" fill="white"/>
</mask>
<g mask="url(#mask33)">
<path id="Land_23" d="M11147.8 8971.89C9505.42 11816.4 5867.88 12791 3023.14 11148.7C178.413 9506.45 -796.264 5869.17 846.142 3024.64C2488.55 180.111 6126.09 -794.497 8970.83 847.793C11815.6 2490.08 12790.2 6127.37 11147.8 8971.89Z" fill="url(#paint23_linear)"/>
</g>
</g>
<g id="Lighter_24">
<mask id="mask34" mask-type="alpha" maskUnits="userSpaceOnUse" x="2465" y="10721" width="104" height="66">
<path id="Vector 2_12" d="M2465.85 10745.8L2468.32 10757.5C2468.67 10759.2 2469.25 10760.8 2470.03 10762.4L2475.71 10773.6C2479.02 10780.2 2485.65 10784.4 2492.99 10784.6L2559.09 10786.5C2560.65 10786.5 2562.19 10786.1 2563.57 10785.4C2569.5 10782.3 2570.18 10774.1 2564.83 10770.1L2541.81 10752.7C2540.21 10751.5 2538.8 10750.1 2537.62 10748.5L2524.6 10730.4C2520.91 10725.3 2515.02 10722.2 2508.7 10722.1L2485.75 10721.7C2472.91 10721.5 2463.2 10733.3 2465.85 10745.8Z" fill="white"/>
</mask>
<g mask="url(#mask34)">
<path id="Land_24" d="M11147.8 8971.9C9505.42 11816.4 5867.88 12791 3023.15 11148.7C178.415 9506.45 -796.263 5869.17 846.144 3024.64C2488.55 180.113 6126.1 -794.494 8970.83 847.795C11815.6 2490.08 12790.2 6127.37 11147.8 8971.9Z" fill="url(#paint24_linear)"/>
</g>
</g>
<g id="Darker_12">
<mask id="mask35" mask-type="alpha" maskUnits="userSpaceOnUse" x="3055" y="10958" width="439" height="247">
<path id="Rectangle 1_12" d="M3060.96 10972.7C3063.77 10962.6 3073.85 10956.4 3084.1 10958.5L3385.63 11018C3391 11019.1 3395.7 11022.3 3398.64 11026.9L3490.38 11171.5C3498.69 11184.6 3489.56 11201.8 3474.05 11202.2L3407.27 11204.1C3403.36 11204.2 3399.49 11203.2 3396.16 11201.1L3353.93 11174.9C3345.45 11169.6 3334.37 11171.4 3327.99 11179.1L3317.49 11191.8C3311.76 11198.7 3302.13 11200.9 3293.94 11197.2L3257.73 11181.1C3256.46 11180.5 3255.26 11179.8 3254.14 11179L3218.26 11153C3212.93 11149.1 3209.84 11142.9 3210 11136.3L3210.42 11119.2C3210.65 11109.6 3203.92 11101.1 3194.43 11099.2L3162.64 11092.6C3160.67 11092.2 3158.66 11092.1 3156.66 11092.3L3117.27 11096.3C3108.9 11097.1 3100.91 11092.6 3097.27 11085L3057.74 11002.7C3055.64 10998.3 3055.21 10993.3 3056.51 10988.7L3060.96 10972.7Z" fill="white"/>
</mask>
<g mask="url(#mask35)">
<path id="DarkerLand_12" d="M11147.8 8971.9C9505.42 11816.4 5867.88 12791 3023.15 11148.7C178.415 9506.46 -796.262 5869.17 846.144 3024.64C2488.55 180.114 6126.1 -794.494 8970.83 847.796C11815.6 2490.09 12790.2 6127.37 11147.8 8971.9Z" fill="black" fill-opacity="0.1"/>
</g>
</g>
</g>
</g>
<g id="AllIslands">
<path id="Vector 3" d="M7525.7 11608L7551.19 11630.7C7556.68 11635.6 7563.77 11638.3 7571.12 11638.3H7706.13C7713.12 11638.3 7719.9 11635.8 7725.28 11631.4L7808.86 11562C7817.35 11555 7821.29 11543.9 7819.13 11533.1L7810.94 11492.1C7808.64 11480.6 7799.89 11471.6 7788.51 11468.8L7735.53 11456.1C7726.42 11454 7718.86 11447.6 7715.07 11439.1L7701.65 11408.7C7696.85 11397.8 7686.09 11390.8 7674.21 11390.8L7615.29 11390.8C7607.73 11390.8 7600.45 11393.7 7594.91 11398.8L7541.91 11447.9C7536.76 11452.6 7533.44 11459.1 7532.54 11466L7523.62 11535.2L7516.04 11580.7C7514.34 11590.8 7517.99 11601.2 7525.7 11608Z" fill="url(#paint25_linear)"/>
<path id="Vector 4" d="M10059.7 10104.4L10093.1 10111.3C10100.3 10112.8 10107.8 10111.5 10114.1 10107.9L10231 10040.4C10237.1 10036.9 10241.8 10031.4 10244.2 10024.8L10281.9 9923C10285.7 9912.66 10283.6 9901.06 10276.3 9892.78L10248.7 9861.4C10241 9852.61 10228.9 9849.12 10217.7 9852.45L10165.4 9867.95C10156.5 9870.61 10146.8 9868.93 10139.2 9863.4L10112.4 9843.8C10102.8 9836.78 10090 9836.09 10079.7 9842.03L10028.6 9871.49C10022.1 9875.27 10017.2 9881.38 10015 9888.6L9993.63 9957.58C9991.55 9964.29 9991.9 9971.52 9994.6 9978.01L10021.4 10042.3L10037.6 10085.5C10041.2 10095.2 10049.6 10102.3 10059.7 10104.4Z" fill="url(#paint26_linear)"/>
<path id="Vector 5" d="M11595.9 7539.16L11628.3 7528.42C11635.2 7526.1 11641.1 7521.31 11644.8 7514.95L11712.3 7398.03C11715.8 7391.97 11717.1 7384.89 11715.9 7377.99L11697.7 7270.96C11695.8 7260.1 11688.1 7251.12 11677.7 7247.59L11638.1 7234.2C11627 7230.45 11614.8 7233.49 11606.7 7241.98L11569.3 7281.51C11562.8 7288.31 11553.6 7291.71 11544.3 7290.7L11511.2 7287.13C11499.4 7285.85 11488 7291.67 11482 7301.96L11452.6 7352.97C11448.8 7359.52 11447.6 7367.25 11449.3 7374.62L11465.3 7445.04C11466.8 7451.89 11470.8 7457.98 11476.3 7462.24L11531.7 7504.53L11567.4 7533.85C11575.3 7540.41 11586.1 7542.41 11595.9 7539.16Z" fill="url(#paint27_linear)"/>
<path id="Vector 6" d="M11620.5 4591.65L11643.1 4566.17C11648 4560.68 11650.7 4553.58 11650.7 4546.23L11650.7 4411.23C11650.7 4404.24 11648.3 4397.46 11643.8 4392.08L11574.5 4308.51C11567.4 4300.02 11556.3 4296.08 11545.5 4298.24L11504.6 4306.43C11493.1 4308.73 11484 4317.48 11481.3 4328.86L11468.6 4381.84C11466.4 4390.94 11460.1 4398.51 11451.5 4402.29L11421.1 4415.71C11410.3 4420.51 11403.2 4431.27 11403.2 4443.16L11403.2 4502.07C11403.2 4509.62 11406.1 4516.9 11411.2 4522.45L11460.3 4575.44C11465.1 4580.59 11471.5 4583.91 11478.5 4584.81L11547.6 4593.73L11593.1 4601.31C11603.3 4603.01 11613.6 4599.36 11620.5 4591.65Z" fill="url(#paint28_linear)"/>
<path id="Vector 7" d="M10148.4 1912.11L10155.2 1878.72C10156.7 1871.52 10155.5 1864.03 10151.8 1857.66L10084.3 1740.75C10080.8 1734.69 10075.3 1730.05 10068.8 1727.62L9966.95 1689.89C9956.61 1686.06 9945 1688.21 9936.72 1695.49L9905.35 1723.06C9896.56 1730.79 9893.06 1742.91 9896.39 1754.13L9911.89 1806.35C9914.55 1815.33 9912.87 1825.03 9907.35 1832.59L9887.74 1859.41C9880.73 1869 9880.04 1881.83 9885.98 1892.12L9915.43 1943.14C9919.21 1949.68 9925.32 1954.56 9932.54 1956.79L10001.5 1978.15C10008.2 1980.23 10015.5 1979.89 10022 1977.18L10086.3 1950.34L10129.5 1934.15C10139.2 1930.54 10146.3 1922.21 10148.4 1912.11Z" fill="url(#paint29_linear)"/>
<path id="Vector 8" d="M7603.26 377.393L7592.52 345.032C7590.21 338.059 7585.41 332.177 7579.05 328.504L7462.12 261.001C7456.07 257.505 7448.98 256.234 7442.08 257.408L7335.05 275.641C7324.18 277.493 7315.2 285.157 7311.67 295.602L7298.28 335.165C7294.53 346.249 7297.57 358.5 7306.06 366.55L7345.6 404.026C7352.39 410.468 7355.79 419.713 7354.78 429.022L7351.21 462.051C7349.94 473.863 7355.75 485.315 7366.04 491.255L7417.06 520.712C7423.61 524.491 7431.34 525.66 7438.71 523.986L7509.14 507.99C7515.99 506.434 7522.08 502.522 7526.34 496.937L7568.63 441.538L7597.95 405.911C7604.51 397.949 7606.51 387.18 7603.26 377.393Z" fill="url(#paint30_linear)"/>
<path id="Vector 9" d="M4636.13 300.18L4610.98 277.153C4605.56 272.191 4598.51 269.39 4591.16 269.282L4456.16 267.297C4449.17 267.194 4442.36 269.537 4436.91 273.921L4352.32 341.988C4343.73 348.901 4339.63 359.968 4341.63 370.811L4349.22 411.881C4351.34 423.387 4359.96 432.607 4371.3 435.499L4424.09 448.966C4433.16 451.281 4440.63 457.699 4444.29 466.319L4457.26 496.903C4461.9 507.84 4472.56 515.008 4484.44 515.183L4543.35 516.05C4550.91 516.161 4558.23 513.416 4563.85 508.364L4617.56 460.085C4622.78 455.388 4626.2 449.005 4627.2 442.051L4637.13 373.072L4645.39 327.672C4647.23 317.526 4643.73 307.143 4636.13 300.18Z" fill="url(#paint31_linear)"/>
<path id="Vector 10" d="M2021.13 1728.9L1987.73 1722.03C1980.54 1720.54 1973.05 1721.76 1966.68 1725.43L1849.76 1792.93C1843.7 1796.43 1839.06 1801.93 1836.63 1808.49L1798.9 1910.29C1795.07 1920.63 1797.22 1932.24 1804.5 1940.52L1832.07 1971.89C1839.79 1980.68 1851.92 1984.18 1863.14 1980.85L1915.37 1965.35C1924.34 1962.69 1934.05 1964.37 1941.61 1969.89L1968.43 1989.5C1978.02 1996.51 1990.85 1997.2 2001.14 1991.26L2052.16 1961.81C2058.7 1958.03 2063.58 1951.92 2065.82 1944.7L2087.18 1875.71C2089.25 1869 2088.91 1861.77 2086.21 1855.29L2059.37 1790.97L2043.18 1747.76C2039.56 1738.11 2031.23 1730.98 2021.13 1728.9Z" fill="url(#paint32_linear)"/>
<path id="Vector 11" d="M410.773 4378.58L378.409 4389.33C371.435 4391.64 365.553 4396.44 361.878 4402.8L294.372 4519.72C290.875 4525.77 289.604 4532.86 290.779 4539.75L309.013 4646.78C310.864 4657.65 318.529 4666.63 328.973 4670.16L368.541 4683.55C379.625 4687.29 391.878 4684.26 399.928 4675.77L437.406 4636.23C443.848 4629.44 453.094 4626.04 462.404 4627.05L495.436 4630.62C507.248 4631.89 518.702 4626.08 524.643 4615.79L554.101 4564.77C557.88 4558.23 559.049 4550.5 557.375 4543.13L541.378 4472.71C539.821 4465.86 535.91 4459.77 530.325 4455.51L474.921 4413.22L439.29 4383.89C431.329 4377.34 420.56 4375.34 410.773 4378.58Z" fill="url(#paint33_linear)"/>
<path id="Vector 12" d="M340.28 7446.98L317.623 7472.46C312.741 7477.96 310.044 7485.05 310.044 7492.4L310.044 7627.4C310.044 7634.39 312.487 7641.17 316.952 7646.55L386.261 7730.12C393.299 7738.61 404.425 7742.55 415.236 7740.39L456.197 7732.2C467.671 7729.9 476.763 7721.15 479.489 7709.77L492.178 7656.8C494.36 7647.69 500.668 7640.12 509.233 7636.34L539.625 7622.92C550.494 7618.12 557.506 7607.36 557.506 7595.48L557.506 7536.57C557.506 7529.01 554.653 7521.73 549.518 7516.18L500.451 7463.19C495.677 7458.04 489.246 7454.72 482.278 7453.82L413.153 7444.91L367.631 7437.32C357.459 7435.63 347.131 7439.27 340.28 7446.98Z" fill="url(#paint34_linear)"/>
<path id="Vector 13" d="M1792.81 10056.2L1785.94 10089.6C1784.45 10096.8 1785.66 10104.3 1789.34 10110.7L1856.85 10227.6C1860.34 10233.6 1865.85 10238.3 1872.4 10240.7L1974.22 10278.4C1984.56 10282.3 1996.16 10280.1 2004.44 10272.8L2035.82 10245.3C2044.61 10237.5 2048.11 10225.4 2044.78 10214.2L2029.28 10162C2026.61 10153 2028.29 10143.3 2033.82 10135.7L2053.43 10108.9C2060.44 10099.3 2061.13 10086.5 2055.19 10076.2L2025.73 10025.2C2021.95 10018.7 2015.84 10013.8 2008.62 10011.5L1939.63 9990.18C1932.92 9988.1 1925.69 9988.45 1919.21 9991.15L1854.89 10018L1811.67 10034.2C1802.02 10037.8 1794.89 10046.1 1792.81 10056.2Z" fill="url(#paint35_linear)"/>
<path id="Vector 14" d="M4428.07 11646.1L4438.81 11678.4C4441.13 11685.4 4445.92 11691.3 4452.28 11695L4569.21 11762.5C4575.27 11766 4582.35 11767.2 4589.25 11766.1L4696.28 11747.8C4707.15 11746 4716.13 11738.3 4719.67 11727.9L4733.05 11688.3C4736.8 11677.2 4733.76 11665 4725.27 11656.9L4685.74 11619.4C4678.94 11613 4675.54 11603.8 4676.55 11594.4L4680.12 11561.4C4681.4 11549.6 4675.58 11538.2 4665.29 11532.2L4614.27 11502.8C4607.72 11499 4599.99 11497.8 4592.62 11499.5L4522.2 11515.5C4515.35 11517 4509.26 11520.9 4504.99 11526.5L4462.71 11581.9L4433.38 11617.6C4426.83 11625.5 4424.82 11636.3 4428.07 11646.1Z" fill="url(#paint36_linear)"/>
</g>
</g>
<defs>
<linearGradient id="paint0_linear" x1="3991.11" y1="11559.1" x2="8074.15" y2="11561.7" gradientUnits="userSpaceOnUse">
<stop stop-color="#0089D7"/>
<stop offset="1" stop-color="#62C5DB"/>
</linearGradient>
<linearGradient id="paint1_linear" x1="6049.9" y1="11562.1" x2="6049.9" y2="12000.6" gradientUnits="userSpaceOnUse">
<stop stop-color="#0F5704"/>
<stop offset="1" stop-color="#44B50E"/>
</linearGradient>
<linearGradient id="paint2_linear" x1="6049.9" y1="11562.1" x2="6049.9" y2="12000.6" gradientUnits="userSpaceOnUse">
<stop stop-color="#0F5704"/>
<stop offset="1" stop-color="#44B50E"/>
</linearGradient>
<linearGradient id="paint3_linear" x1="8817.03" y1="10797" x2="9036.25" y2="11176.7" gradientUnits="userSpaceOnUse">
<stop stop-color="#0F5704"/>
<stop offset="1" stop-color="#44B50E"/>
</linearGradient>
<linearGradient id="paint4_linear" x1="8817.04" y1="10797" x2="9036.25" y2="11176.7" gradientUnits="userSpaceOnUse">
<stop stop-color="#0F5704"/>
<stop offset="1" stop-color="#44B50E"/>
</linearGradient>
<linearGradient id="paint5_linear" x1="10846.9" y1="8731.27" x2="11226.6" y2="8950.51" gradientUnits="userSpaceOnUse">
<stop stop-color="#0F5704"/>
<stop offset="1" stop-color="#44B50E"/>
</linearGradient>
<linearGradient id="paint6_linear" x1="10846.9" y1="8731.26" x2="11226.6" y2="8950.51" gradientUnits="userSpaceOnUse">
<stop stop-color="#0F5704"/>
<stop offset="1" stop-color="#44B50E"/>
</linearGradient>
<linearGradient id="paint7_linear" x1="11564.1" y1="5956.34" x2="12002.5" y2="5956.34" gradientUnits="userSpaceOnUse">
<stop stop-color="#0F5704"/>
<stop offset="1" stop-color="#44B50E"/>
</linearGradient>
<linearGradient id="paint8_linear" x1="11564.1" y1="5956.33" x2="12002.5" y2="5956.33" gradientUnits="userSpaceOnUse">
<stop stop-color="#0F5704"/>
<stop offset="1" stop-color="#44B50E"/>
</linearGradient>
<linearGradient id="paint9_linear" x1="10804.8" y1="3191.82" x2="11184.5" y2="2972.57" gradientUnits="userSpaceOnUse">
<stop stop-color="#0F5704"/>
<stop offset="1" stop-color="#44B50E"/>
</linearGradient>
<linearGradient id="paint10_linear" x1="10804.8" y1="3191.82" x2="11184.5" y2="2972.57" gradientUnits="userSpaceOnUse">
<stop stop-color="#0F5704"/>
<stop offset="1" stop-color="#44B50E"/>
</linearGradient>
<linearGradient id="paint11_linear" x1="8742.77" y1="1158.73" x2="8961.99" y2="779.005" gradientUnits="userSpaceOnUse">
<stop stop-color="#0F5704"/>
<stop offset="1" stop-color="#44B50E"/>
</linearGradient>
<linearGradient id="paint12_linear" x1="8742.77" y1="1158.73" x2="8961.99" y2="779.005" gradientUnits="userSpaceOnUse">
<stop stop-color="#0F5704"/>
<stop offset="1" stop-color="#44B50E"/>
</linearGradient>
<linearGradient id="paint13_linear" x1="5953.07" y1="437.918" x2="5953.07" y2="-0.530794" gradientUnits="userSpaceOnUse">
<stop stop-color="#0F5704"/>
<stop offset="1" stop-color="#44B50E"/>
</linearGradient>
<linearGradient id="paint14_linear" x1="5953.07" y1="437.918" x2="5953.07" y2="-0.530794" gradientUnits="userSpaceOnUse">
<stop stop-color="#0F5704"/>
<stop offset="1" stop-color="#44B50E"/>
</linearGradient>
<linearGradient id="paint15_linear" x1="3186.76" y1="1201.26" x2="2967.54" y2="821.54" gradientUnits="userSpaceOnUse">
<stop stop-color="#0F5704"/>
<stop offset="1" stop-color="#44B50E"/>
</linearGradient>
<linearGradient id="paint16_linear" x1="3186.75" y1="1201.26" x2="2967.54" y2="821.541" gradientUnits="userSpaceOnUse">
<stop stop-color="#0F5704"/>
<stop offset="1" stop-color="#44B50E"/>
</linearGradient>
<linearGradient id="paint17_linear" x1="1159.07" y1="3259.69" x2="779.349" y2="3040.44" gradientUnits="userSpaceOnUse">
<stop stop-color="#0F5704"/>
<stop offset="1" stop-color="#44B50E"/>
</linearGradient>
<linearGradient id="paint18_linear" x1="1159.07" y1="3259.69" x2="779.347" y2="3040.45" gradientUnits="userSpaceOnUse">
<stop stop-color="#0F5704"/>
<stop offset="1" stop-color="#44B50E"/>
</linearGradient>
<linearGradient id="paint19_linear" x1="438.929" y1="6048.38" x2="0.447998" y2="6048.38" gradientUnits="userSpaceOnUse">
<stop stop-color="#0F5704"/>
<stop offset="1" stop-color="#44B50E"/>
</linearGradient>
<linearGradient id="paint20_linear" x1="438.929" y1="6048.38" x2="0.447998" y2="6048.38" gradientUnits="userSpaceOnUse">
<stop stop-color="#0F5704"/>
<stop offset="1" stop-color="#44B50E"/>
</linearGradient>
<linearGradient id="paint21_linear" x1="1197.97" y1="8808.5" x2="818.25" y2="9027.75" gradientUnits="userSpaceOnUse">
<stop stop-color="#0F5704"/>
<stop offset="1" stop-color="#44B50E"/>
</linearGradient>
<linearGradient id="paint22_linear" x1="1197.97" y1="8808.5" x2="818.251" y2="9027.75" gradientUnits="userSpaceOnUse">
<stop stop-color="#0F5704"/>
<stop offset="1" stop-color="#44B50E"/>
</linearGradient>
<linearGradient id="paint23_linear" x1="3257.7" y1="10839.6" x2="3038.48" y2="11219.3" gradientUnits="userSpaceOnUse">
<stop stop-color="#0F5704"/>
<stop offset="1" stop-color="#44B50E"/>
</linearGradient>
<linearGradient id="paint24_linear" x1="3257.7" y1="10839.6" x2="3038.48" y2="11219.3" gradientUnits="userSpaceOnUse">
<stop stop-color="#0F5704"/>
<stop offset="1" stop-color="#44B50E"/>
</linearGradient>
<linearGradient id="paint25_linear" x1="7505.58" y1="11357.3" x2="7626.72" y2="11638.3" gradientUnits="userSpaceOnUse">
<stop stop-color="#0A3C02"/>
<stop offset="1" stop-color="#39A20C"/>
</linearGradient>
<linearGradient id="paint26_linear" x1="9916.88" y1="9897.32" x2="10162.3" y2="10080.1" gradientUnits="userSpaceOnUse">
<stop stop-color="#0A3C02"/>
<stop offset="1" stop-color="#39A20C"/>
</linearGradient>
<linearGradient id="paint27_linear" x1="11368.7" y1="7431.22" x2="11672.6" y2="7466.79" gradientUnits="userSpaceOnUse">
<stop stop-color="#0A3C02"/>
<stop offset="1" stop-color="#39A20C"/>
</linearGradient>
<linearGradient id="paint28_linear" x1="11369.7" y1="4611.76" x2="11650.7" y2="4490.61" gradientUnits="userSpaceOnUse">
<stop stop-color="#0A3C02"/>
<stop offset="1" stop-color="#39A20C"/>
</linearGradient>
<linearGradient id="paint29_linear" x1="9941.27" y1="2054.89" x2="10124" y2="1809.49" gradientUnits="userSpaceOnUse">
<stop stop-color="#0A3C02"/>
<stop offset="1" stop-color="#39A20C"/>
</linearGradient>
<linearGradient id="paint30_linear" x1="7495.32" y1="604.579" x2="7530.88" y2="300.696" gradientUnits="userSpaceOnUse">
<stop stop-color="#0A3C02"/>
<stop offset="1" stop-color="#39A20C"/>
</linearGradient>
<linearGradient id="paint31_linear" x1="4652.55" y1="551.168" x2="4535.56" y2="268.459" gradientUnits="userSpaceOnUse">
<stop stop-color="#0A3C02"/>
<stop offset="1" stop-color="#39A20C"/>
</linearGradient>
<linearGradient id="paint32_linear" x1="2163.92" y1="1935.98" x2="1918.53" y2="1753.22" gradientUnits="userSpaceOnUse">
<stop stop-color="#0A3C02"/>
<stop offset="1" stop-color="#39A20C"/>
</linearGradient>
<linearGradient id="paint33_linear" x1="637.974" y1="4486.53" x2="334.07" y2="4450.96" gradientUnits="userSpaceOnUse">
<stop stop-color="#0A3C02"/>
<stop offset="1" stop-color="#39A20C"/>
</linearGradient>
<linearGradient id="paint34_linear" x1="591.016" y1="7426.87" x2="310.051" y2="7548.03" gradientUnits="userSpaceOnUse">
<stop stop-color="#0A3C02"/>
<stop offset="1" stop-color="#39A20C"/>
</linearGradient>
<linearGradient id="paint35_linear" x1="1999.9" y1="9913.44" x2="1817.17" y2="10158.8" gradientUnits="userSpaceOnUse">
<stop stop-color="#0A3C02"/>
<stop offset="1" stop-color="#39A20C"/>
</linearGradient>
<linearGradient id="paint36_linear" x1="4536.02" y1="11418.9" x2="4500.46" y2="11722.8" gradientUnits="userSpaceOnUse">
<stop stop-color="#0A3C02"/>
<stop offset="1" stop-color="#39A20C"/>
</linearGradient>
</defs>
</svg>
