<svg xmlns="http://www.w3.org/2000/svg" width="2496" height="2496" fill="none"  xmlns:v="https://vecta.io/nano"><g stroke="#fff" stroke-width="150"><circle cx="1248" cy="1248" r="1173" fill="#000"/><path d="M914 506c-41.421 0-75 33.579-75 75v1306c0 41.42 33.579 75 75 75h669c41.42 0 75-33.58 75-75V581c0-41.421-33.58-75-75-75H914z" stroke-linejoin="round"/></g><g fill="#fff"><circle cx="1249.5" cy="1753.5" r="76.5"/><rect x="997.228" y="917" width="127.683" height="127.683" rx="30"/><rect x="1372.91" y="917" width="127.683" height="127.683" rx="30"/><rect x="1185.07" y="917" width="127.683" height="127.683" rx="30"/><rect x="996" y="1422.37" width="127.683" height="127.683" rx="30"/><rect x="1371" y="1422" width="127.683" height="127.683" rx="30"/><rect x="1185" y="1422" width="127.683" height="127.683" rx="30"/><rect x="996" y="1169.68" width="127.683" height="127.683" rx="30"/><rect x="1371" y="1170" width="127.683" height="127.683" rx="30"/><rect x="1184" y="1170" width="127.683" height="127.683" rx="30"/><rect x="1061" y="662" width="377" height="91" rx="45.5"/></g></svg>