<svg width="515" height="630" viewBox="0 0 515 630" fill="none" xmlns="http://www.w3.org/2000/svg">
<path d="M433.035 630V172C433.702 156 434.702 138 436.035 118C437.369 97.3333 438.369 83 439.035 75H436.035L430.035 101C428.702 107 426.369 117.333 423.035 132C420.369 146.667 417.369 160 414.035 172L288.035 630H217.035L90.0352 172C86.0352 157.333 81.3685 134.667 76.0352 104L71.0352 75H67.0352C67.7018 83.6666 68.7018 98.3333 70.0352 119C71.3685 139 72.3685 156.667 73.0352 172V630H0.03516V-5.48363e-05H123.035L234.035 413C239.369 432.333 244.035 458.333 248.035 491C252.702 523 255.369 544.333 256.035 555H259.035C259.702 544.333 262.035 522.667 266.035 490C270.035 456.667 274.702 431 280.035 413L391.035 -5.48363e-05H514.035V630H433.035Z" fill="#202020"/>
</svg>
