<?xml version="1.0" standalone="no"?>
<!DOCTYPE svg PUBLIC "-//W3C//DTD SVG 20010904//EN"
 "http://www.w3.org/TR/2001/REC-SVG-20010904/DTD/svg10.dtd">
<svg version="1.0" xmlns="http://www.w3.org/2000/svg"
 width="1200.000000pt" height="675.000000pt" viewBox="0 0 1200.000000 675.000000"
 preserveAspectRatio="xMidYMid meet">

<g transform="translate(0.000000,675.000000) scale(0.100000,-0.100000)"
fill="#000000" stroke="none">
<path d="M260 6620 c0 -13 7 -20 20 -20 13 0 20 7 20 20 0 13 -7 20 -20 20
-13 0 -20 -7 -20 -20z"/>
<path d="M183 6514 c-3 -8 -1 -20 5 -26 16 -16 42 -2 42 22 0 24 -38 28 -47 4z"/>
<path d="M220 6340 l0 -40 40 0 c33 0 40 3 40 20 0 11 -6 20 -14 20 -7 0 -16
9 -19 20 -3 12 -14 20 -26 20 -18 0 -21 -6 -21 -40z"/>
<path d="M110 6320 c0 -17 -7 -20 -40 -20 -29 0 -40 -4 -40 -15 0 -8 -7 -15
-15 -15 -13 0 -15 -49 -15 -380 0 -331 2 -380 15 -380 8 0 15 -7 15 -15 0 -8
-7 -15 -15 -15 -13 0 -15 -44 -15 -340 0 -296 2 -340 15 -340 8 0 15 -9 15
-20 0 -15 7 -20 25 -20 22 0 25 4 25 35 0 24 5 35 15 35 9 0 15 9 15 25 0 18
-5 25 -20 25 -11 0 -20 7 -20 15 0 8 9 15 20 15 11 0 20 -7 20 -15 0 -8 9 -15
20 -15 13 0 20 -7 20 -20 0 -18 7 -20 75 -20 68 0 75 -2 75 -20 0 -13 7 -20
20 -20 13 0 20 -7 20 -20 0 -11 6 -20 14 -20 7 0 16 -9 19 -20 3 -11 12 -20
21 -20 9 0 16 8 16 20 0 13 7 20 20 20 13 0 20 -7 20 -20 0 -16 7 -20 35 -20
33 0 35 -2 35 -35 0 -27 -4 -35 -18 -35 -17 0 -18 -9 -14 -115 4 -112 4 -115
-17 -115 -17 0 -21 -6 -21 -35 0 -24 -5 -35 -15 -35 -8 0 -15 7 -15 16 0 9 -9
18 -20 21 -11 3 -20 14 -20 24 0 26 -40 25 -47 -1 -3 -11 -12 -20 -19 -20 -8
0 -14 9 -14 20 0 11 -7 20 -15 20 -8 0 -15 7 -15 15 0 8 7 15 15 15 11 0 15
11 15 40 l0 40 -40 0 c-33 0 -40 -3 -40 -20 0 -17 -7 -20 -49 -20 -40 0 -50 3
-54 20 -4 17 -14 20 -61 20 l-56 0 0 -1200 0 -1200 55 0 c39 0 55 4 55 13 0
14 151 27 312 27 54 0 68 3 68 15 0 12 13 15 55 15 48 0 55 2 55 20 0 17 7 20
40 20 33 0 40 -3 40 -20 0 -19 7 -20 90 -20 83 0 90 -1 90 -20 0 -13 7 -20 20
-20 11 0 20 -6 20 -14 0 -7 9 -16 20 -19 11 -3 20 -12 20 -21 0 -9 6 -16 14
-16 7 0 16 -9 19 -20 9 -35 35 -24 39 17 2 27 8 39 21 41 12 2 17 -3 17 -17 0
-14 6 -21 20 -21 11 0 20 -6 20 -14 0 -7 9 -16 20 -19 11 -3 20 -12 20 -21 0
-9 7 -16 15 -16 8 0 15 -9 15 -20 0 -13 7 -20 20 -20 13 0 20 -7 20 -20 0 -13
7 -20 20 -20 17 0 20 -7 20 -40 0 -39 1 -40 35 -40 28 0 35 4 35 20 0 19 7 20
130 20 123 0 130 1 130 20 0 17 7 20 40 20 33 0 40 -3 40 -20 0 -13 7 -20 20
-20 19 0 20 -7 20 -90 0 -83 -1 -90 -20 -90 -18 0 -20 -7 -20 -60 0 -53 2 -60
20 -60 13 0 20 -7 20 -20 0 -11 7 -20 15 -20 8 0 15 -7 15 -15 0 -11 11 -15
40 -15 29 0 40 4 40 15 0 12 13 15 55 15 48 0 55 2 55 20 0 18 7 20 60 20 53
0 60 2 60 20 0 11 7 20 15 20 10 0 15 -10 15 -34 0 -31 -3 -34 -35 -40 -21 -4
-35 -13 -35 -21 0 -10 -11 -15 -36 -15 -27 0 -37 -5 -41 -20 -4 -15 -14 -20
-39 -20 -27 0 -34 -4 -34 -20 0 -13 -7 -20 -20 -20 -13 0 -20 -7 -20 -20 0
-16 -7 -20 -35 -20 -25 0 -35 -4 -35 -16 0 -9 -9 -18 -20 -21 -11 -3 -20 -12
-20 -19 0 -10 -13 -14 -40 -14 -33 0 -40 3 -40 20 0 13 7 20 20 20 13 0 20 7
20 20 0 16 7 20 35 20 24 0 35 5 35 15 0 12 -13 15 -55 15 -48 0 -55 2 -55 20
0 11 -7 20 -15 20 -11 0 -15 -13 -15 -54 l0 -54 -40 -7 c-38 -6 -40 -9 -40
-41 0 -32 2 -34 35 -34 28 0 35 -4 35 -20 0 -11 -7 -20 -15 -20 -12 0 -15 -13
-15 -55 0 -48 -2 -55 -20 -55 -11 0 -20 -7 -20 -15 0 -8 -9 -15 -20 -15 -11 0
-20 7 -20 15 0 8 -7 15 -16 15 -9 0 -18 9 -21 20 -3 11 -11 20 -18 20 -7 0
-15 9 -18 20 -7 26 -37 26 -37 0 0 -13 -7 -20 -20 -20 -13 0 -20 -7 -20 -20 0
-11 -7 -20 -15 -20 -8 0 -15 9 -15 20 0 13 -7 20 -20 20 -17 0 -20 7 -20 40
l0 40 75 0 c60 0 75 3 75 15 0 8 7 15 15 15 8 0 15 9 15 20 0 13 7 20 20 20
13 0 20 7 20 20 0 13 7 20 20 20 13 0 20 7 20 20 0 11 7 20 15 20 8 0 15 7 15
15 0 10 -11 15 -35 15 -28 0 -35 -4 -35 -20 0 -18 -7 -20 -75 -20 -68 0 -75 2
-75 20 0 13 -7 20 -20 20 -13 0 -20 7 -20 20 0 11 -7 20 -15 20 -11 0 -15 -11
-15 -40 0 -33 -3 -40 -20 -40 -18 0 -20 7 -20 60 0 46 -3 60 -14 60 -10 0 -16
-13 -18 -37 -2 -31 -7 -39 -25 -41 -22 -3 -23 0 -23 52 0 43 -3 56 -15 56 -12
0 -15 15 -15 73 0 85 -7 117 -26 117 -8 0 -14 9 -14 20 0 11 7 20 15 20 8 0
15 7 15 15 0 8 -7 15 -15 15 -8 0 -15 9 -15 20 0 26 -26 26 -33 0 -4 -15 -14
-20 -41 -20 l-35 0 -3 -72 -3 -73 -75 0 -75 0 -3 38 c-2 24 -8 37 -18 37 -8 0
-14 9 -14 20 0 16 7 20 34 20 25 0 35 5 39 20 3 11 12 20 21 20 9 0 16 7 16
15 0 12 -13 15 -55 15 -42 0 -55 -3 -55 -15 0 -12 -13 -15 -55 -15 -42 0 -55
3 -55 15 0 11 -11 15 -36 15 -27 0 -37 5 -41 20 -3 11 -11 20 -18 20 -7 0 -15
-9 -18 -20 -7 -26 -37 -26 -37 0 0 11 7 20 15 20 8 0 15 9 15 20 0 16 -7 20
-35 20 -28 0 -35 -4 -35 -20 0 -29 -69 -29 -77 0 -3 11 -12 20 -19 20 -9 0
-14 12 -14 35 0 28 -4 35 -20 35 -16 0 -20 -7 -20 -35 l0 -35 -75 0 -75 0 0
35 c0 33 -2 35 -34 35 -25 0 -35 -5 -39 -20 -4 -15 -14 -20 -41 -20 l-36 0 0
-990 0 -990 1895 0 c1888 0 1895 0 1895 20 0 11 7 20 15 20 8 0 15 -9 15 -20
0 -13 7 -20 19 -20 10 0 21 9 24 20 3 11 12 20 21 20 9 0 16 -8 16 -20 0 -18
7 -20 54 -20 45 0 54 3 59 20 7 26 37 26 37 0 0 -20 7 -20 3975 -20 l3975 0 0
1855 0 1855 -95 0 c-78 0 -95 -3 -95 -15 0 -10 -11 -15 -35 -15 -33 0 -35 2
-35 35 l0 35 55 0 c48 0 55 2 55 20 0 17 7 20 40 20 39 0 39 0 37 37 -1 28 2
38 15 41 11 2 18 -4 20 -20 2 -12 11 -24 21 -26 16 -3 17 10 17 167 0 164 -1
171 -20 171 -13 0 -20 7 -20 20 0 11 -6 20 -14 20 -7 0 -16 -9 -19 -20 -4 -15
-14 -20 -41 -20 -29 0 -36 4 -36 20 0 16 7 20 35 20 28 0 35 4 35 20 0 13 7
20 20 20 13 0 20 7 20 20 0 13 7 20 20 20 19 0 20 7 20 164 0 155 -1 164 -20
169 -11 3 -20 12 -20 21 0 9 -6 16 -14 16 -7 0 -16 9 -19 20 -7 26 -37 26 -37
0 0 -13 -7 -20 -20 -20 -19 0 -20 7 -20 205 l0 205 -40 0 -40 0 0 75 0 75 -35
0 -35 0 0 245 0 245 35 0 c28 0 35 4 35 20 0 11 -6 20 -14 20 -7 0 -16 9 -19
20 -4 17 -14 20 -61 20 -43 0 -56 3 -56 15 0 8 -7 15 -15 15 -11 0 -15 11 -15
36 0 27 -5 37 -20 41 -17 5 -20 14 -20 59 0 47 2 54 20 54 11 0 20 6 20 14 0
14 -94 31 -111 20 -5 -3 -9 -21 -9 -40 0 -24 -5 -34 -15 -34 -8 0 -15 -7 -15
-15 0 -8 -9 -15 -20 -15 -13 0 -20 -7 -20 -20 0 -13 -7 -20 -20 -20 -17 0 -20
-7 -20 -40 0 -33 -3 -40 -20 -40 -11 0 -20 -7 -20 -15 0 -8 -7 -15 -15 -15 -8
0 -15 -9 -15 -20 0 -13 -7 -20 -20 -20 -20 0 -20 -7 -20 -300 0 -293 0 -300
-20 -300 -17 0 -20 -7 -20 -41 0 -33 -3 -40 -17 -37 -17 3 -18 37 -21 526 l-2
522 -240 0 -240 0 0 -464 0 -463 -31 -7 c-41 -8 -49 -2 -49 40 0 23 -5 34 -15
34 -13 0 -15 -61 -17 -467 l-3 -468 -37 -3 -38 -3 0 266 0 265 -37 -2 c-76 -4
-113 1 -113 17 0 8 -9 15 -20 15 -11 0 -20 -7 -20 -15 0 -8 -9 -15 -20 -15
-11 0 -20 7 -20 15 0 8 -7 15 -15 15 -8 0 -15 -7 -15 -15 0 -8 -9 -15 -20 -15
-11 0 -20 7 -20 15 0 8 -9 15 -20 15 -11 0 -20 -7 -20 -15 0 -8 -9 -15 -20
-15 -11 0 -20 7 -20 15 0 8 -7 15 -15 15 -8 0 -15 -7 -15 -15 0 -8 -9 -15 -20
-15 -11 0 -20 7 -20 15 0 8 -9 15 -20 15 -20 0 -20 -7 -20 -445 0 -372 -2
-445 -14 -445 -7 0 -16 9 -19 20 -4 15 -14 20 -41 20 -25 0 -36 4 -36 15 0 10
-11 15 -35 15 -39 0 -49 24 -14 33 37 10 20 42 -24 45 -32 3 -39 0 -44 -17 -3
-12 -12 -21 -19 -21 -12 0 -14 131 -14 839 l0 839 -82 4 c-46 2 -156 1 -245 0
l-163 -4 0 -368 0 -368 -35 -6 c-21 -4 -35 -13 -35 -21 0 -8 -9 -15 -20 -15
-13 0 -20 -7 -20 -20 0 -19 -7 -20 -130 -20 l-130 0 0 -225 0 -225 -61 0 c-52
0 -60 2 -57 18 2 12 14 18 41 20 50 4 52 32 1 32 -27 0 -37 5 -41 20 -3 11
-12 20 -19 20 -8 0 -14 9 -14 20 0 17 -7 20 -40 20 -33 0 -40 -3 -40 -20 0
-12 -7 -20 -16 -20 -9 0 -18 9 -21 20 -4 15 -14 20 -39 20 -27 0 -34 -4 -34
-20 0 -12 -7 -20 -16 -20 -9 0 -18 9 -21 20 -4 15 -14 20 -39 20 -23 0 -34 -5
-34 -14 0 -21 -14 -27 -49 -20 l-31 7 0 143 0 144 -90 0 -90 0 -1 -57 c-1 -32
0 -118 1 -191 1 -73 -2 -222 -6 -332 -5 -159 -10 -200 -20 -200 -8 0 -14 7
-14 15 0 8 -9 15 -20 15 -13 0 -20 7 -20 20 0 17 -7 20 -40 20 -33 0 -40 -3
-40 -20 0 -11 -7 -20 -15 -20 -8 0 -15 -7 -15 -15 0 -8 -9 -15 -20 -15 -11 0
-20 7 -20 15 0 8 -9 15 -20 15 -11 0 -20 -7 -20 -15 0 -12 -13 -15 -55 -15
-48 0 -55 -2 -55 -20 0 -13 -7 -20 -20 -20 -13 0 -20 -7 -20 -20 0 -13 -7 -20
-20 -20 -13 0 -20 -7 -20 -20 0 -11 -7 -20 -15 -20 -8 0 -15 -7 -15 -15 0 -8
-9 -15 -20 -15 -11 0 -20 7 -20 15 0 8 -9 15 -20 15 -18 0 -20 7 -20 55 0 48
-2 55 -20 55 -13 0 -20 7 -20 20 0 20 -7 20 -370 20 -322 0 -370 -2 -370 -15
0 -13 46 -15 355 -15 l355 0 0 -25 c0 -18 -5 -25 -20 -25 -11 0 -20 -7 -20
-15 0 -8 -7 -15 -15 -15 -8 0 -15 -9 -15 -20 0 -13 -7 -20 -20 -20 -13 0 -20
-7 -20 -20 0 -13 -7 -20 -20 -20 -13 0 -20 -7 -20 -20 0 -16 -7 -20 -35 -20
-24 0 -35 -5 -35 -15 0 -11 -11 -15 -40 -15 -33 0 -40 -3 -40 -20 0 -13 -7
-20 -20 -20 -13 0 -20 -7 -20 -20 0 -11 -7 -20 -15 -20 -8 0 -15 -7 -15 -15 0
-24 56 -20 63 5 4 17 14 20 61 20 49 0 56 2 56 20 0 11 7 20 15 20 8 0 15 7
15 15 0 11 12 15 45 15 33 0 45 -4 45 -15 0 -8 7 -15 15 -15 11 0 15 -12 15
-45 0 -33 -4 -45 -15 -45 -11 0 -15 -12 -15 -51 0 -42 -3 -52 -20 -56 -17 -5
-20 -14 -20 -59 0 -47 -2 -54 -20 -54 -18 0 -20 -7 -20 -55 0 -48 -2 -55 -20
-55 -17 0 -20 -7 -20 -40 0 -29 -4 -40 -15 -40 -10 0 -15 -11 -15 -35 0 -28
-4 -35 -20 -35 -26 0 -26 -26 0 -33 11 -3 20 -13 20 -22 0 -9 -9 -19 -20 -22
-15 -4 -20 -14 -20 -39 0 -27 -4 -34 -20 -34 -17 0 -20 -7 -20 -40 0 -33 -3
-40 -20 -40 -16 0 -20 -7 -20 -35 0 -24 -5 -35 -15 -35 -11 0 -15 -11 -15 -36
0 -27 -5 -37 -20 -41 -15 -4 -20 -14 -20 -39 0 -27 -4 -34 -20 -34 -13 0 -20
-7 -20 -20 0 -13 -7 -20 -20 -20 -17 0 -20 -7 -20 -40 0 -29 -4 -40 -15 -40
-8 0 -15 -7 -15 -15 0 -8 -9 -15 -20 -15 -17 0 -20 -7 -20 -40 0 -33 -3 -40
-20 -40 -13 0 -20 -7 -20 -20 0 -13 -7 -20 -20 -20 -11 0 -20 -7 -20 -15 0 -8
-6 -15 -14 -15 -7 0 -16 -9 -19 -20 -7 -26 -37 -26 -44 0 -3 11 -12 20 -19 20
-8 0 -14 9 -14 20 0 13 -7 20 -20 20 -11 0 -20 7 -20 15 0 8 -14 17 -34 20
-29 6 -35 12 -41 41 -3 20 -12 34 -20 34 -8 0 -15 9 -15 20 0 13 -7 20 -20 20
-11 0 -20 6 -20 14 0 7 -9 16 -20 19 -11 3 -20 12 -20 20 0 8 -9 17 -20 20
-11 3 -20 12 -20 21 0 12 -10 16 -35 16 -28 0 -35 4 -35 20 0 13 -7 20 -20 20
-11 0 -20 6 -20 14 0 7 -9 16 -20 19 -11 3 -20 12 -20 21 0 9 -7 16 -15 16 -8
0 -15 9 -15 20 0 13 -7 20 -20 20 -13 0 -20 7 -20 20 0 13 -7 20 -20 20 -11 0
-20 6 -20 14 0 7 -9 16 -20 19 -11 3 -20 12 -20 21 0 9 -7 16 -15 16 -8 0 -15
9 -15 20 0 13 -7 20 -20 20 -13 0 -20 7 -20 20 0 13 -7 20 -20 20 -11 0 -20 6
-20 14 0 7 -9 16 -20 19 -11 3 -20 12 -20 21 0 13 -11 16 -55 16 -48 0 -55 2
-55 20 0 13 7 20 20 20 17 0 20 7 20 40 0 29 4 40 15 40 8 0 15 7 15 16 0 9 9
18 20 21 15 4 20 14 20 39 0 27 4 34 20 34 17 0 20 7 20 40 0 33 3 40 20 40
16 0 20 7 20 35 0 24 5 35 15 35 11 0 15 11 15 36 0 27 5 37 20 41 15 4 20 14
20 39 0 30 3 34 25 34 18 0 25 -5 25 -20 0 -16 7 -20 30 -20 28 0 30 3 30 36
0 27 5 37 20 41 11 3 20 12 20 20 0 8 9 17 20 20 11 3 20 12 20 19 0 8 9 14
20 14 16 0 20 -7 20 -35 0 -28 4 -35 20 -35 17 0 20 -7 20 -40 0 -29 4 -40 15
-40 12 0 15 15 15 75 0 68 -2 75 -20 75 -18 0 -20 7 -20 55 0 42 -3 55 -15 55
-11 0 -15 11 -15 40 l0 40 185 0 c158 0 185 2 185 15 0 13 -26 15 -170 15
-163 0 -170 1 -170 20 0 18 -7 20 -70 20 -63 0 -70 -2 -70 -20 0 -13 -7 -20
-20 -20 -16 0 -20 -7 -20 -35 0 -24 -5 -35 -15 -35 -12 0 -15 -13 -15 -56 0
-47 -3 -57 -20 -61 -15 -4 -20 -14 -20 -39 0 -27 -4 -34 -20 -34 -17 0 -20 -7
-20 -40 0 -33 -3 -40 -20 -40 -16 0 -20 -7 -20 -35 0 -24 -5 -35 -15 -35 -11
0 -15 -11 -15 -36 0 -27 -5 -37 -20 -41 -15 -4 -20 -14 -20 -39 0 -27 -4 -34
-20 -34 -17 0 -20 -7 -20 -40 0 -33 -3 -40 -20 -40 -16 0 -20 -7 -20 -35 0
-24 -5 -35 -15 -35 -11 0 -15 -11 -15 -36 0 -27 -5 -37 -20 -41 -15 -4 -20
-14 -20 -39 l0 -34 -95 0 c-88 0 -95 1 -95 20 0 20 -7 20 -490 20 l-490 0 0
450 c0 443 0 450 -20 450 -13 0 -20 -7 -20 -20 0 -11 -7 -20 -15 -20 -8 0 -15
9 -15 20 0 13 -7 20 -20 20 -13 0 -20 7 -20 20 0 13 -7 20 -20 20 -13 0 -20 7
-20 20 0 12 -7 20 -16 20 -9 0 -18 -9 -21 -20 -3 -11 -11 -20 -18 -20 -7 0
-15 9 -18 20 -4 15 -14 20 -37 20 -23 0 -33 -5 -37 -20 -7 -26 -29 -26 -36 0
-3 11 -12 20 -21 20 -9 0 -16 -8 -16 -20 0 -17 -7 -20 -40 -20 l-40 0 0 55 c0
48 -2 55 -20 55 -13 0 -20 -7 -20 -20 0 -11 -7 -20 -15 -20 -8 0 -15 -7 -15
-15 0 -8 -9 -15 -20 -15 -13 0 -20 -7 -20 -20 0 -13 -7 -20 -20 -20 -19 0 -20
-7 -20 -170 0 -138 -3 -170 -14 -170 -7 0 -16 -14 -20 -31 -9 -46 -8 -49 14
-49 19 0 20 -7 20 -145 l0 -145 -35 0 c-24 0 -35 5 -35 15 0 8 9 15 20 15 13
0 20 7 20 20 0 15 -7 20 -25 20 -16 0 -25 -6 -25 -15 0 -8 -7 -15 -15 -15 -8
0 -15 -9 -15 -20 0 -11 -6 -20 -14 -20 -7 0 -16 9 -19 20 -3 11 -12 20 -21 20
-9 0 -16 7 -16 15 0 8 9 15 20 15 11 0 20 7 20 14 0 11 15 16 53 18 45 3 52 6
55 26 3 20 0 22 -51 22 -46 0 -55 3 -60 20 -4 15 -14 20 -42 20 -28 0 -38 -5
-42 -20 -9 -35 -33 -24 -33 15 0 23 -5 35 -14 35 -7 0 -16 9 -19 20 -4 15 -14
20 -41 20 -29 0 -36 4 -36 20 0 16 -7 20 -34 20 -25 0 -35 5 -39 20 -4 15 -14
20 -42 20 -28 0 -38 -5 -42 -20 -9 -35 -33 -24 -33 15 0 24 -5 35 -15 35 -31
0 -15 29 18 32 29 3 32 6 35 41 3 29 7 37 23 37 12 0 19 7 19 20 0 17 -7 20
-40 20 -33 0 -40 3 -40 20 0 18 -7 20 -55 20 -48 0 -55 2 -55 20 0 13 -7 20
-20 20 -13 0 -20 -7 -20 -20 0 -11 -6 -20 -14 -20 -7 0 -16 9 -19 20 -4 17
-14 20 -61 20 l-56 0 0 35 c0 28 -4 35 -20 35 -11 0 -20 -7 -20 -15 0 -10 -11
-15 -35 -15 -24 0 -35 5 -35 15 0 8 9 15 20 15 13 0 20 7 20 20 0 27 -40 27
-47 0 -3 -11 -12 -20 -19 -20 -8 0 -14 -7 -14 -15 0 -8 -7 -15 -15 -15 -8 0
-15 7 -15 15 0 9 -9 15 -25 15 -16 0 -25 -6 -25 -15 0 -8 -7 -15 -15 -15 -8 0
-15 -9 -15 -20 0 -13 -7 -20 -20 -20 -19 0 -20 -7 -20 -135 0 -117 -2 -135
-16 -135 -9 0 -18 9 -21 20 -4 15 -14 20 -38 20 -24 0 -34 -5 -38 -20 -3 -11
-12 -20 -21 -20 -9 0 -16 8 -16 20 0 17 -7 20 -40 20 -33 0 -40 -3 -40 -20 0
-11 -7 -20 -15 -20 -8 0 -15 9 -15 20 0 17 -7 20 -40 20 -33 0 -40 -3 -40 -20
0 -11 -7 -20 -15 -20 -8 0 -15 9 -15 20 0 17 -7 20 -40 20 -33 0 -40 -3 -40
-20 0 -13 -7 -20 -20 -20 -13 0 -20 7 -20 20 0 16 -7 20 -34 20 -33 0 -35 -2
-38 -37 -2 -27 -8 -39 -20 -41 -17 -3 -18 12 -18 207 l0 211 300 0 300 0 0 40
c0 27 -4 40 -14 40 -22 0 -26 79 -26 573 0 460 0 467 -20 467 -13 0 -20 7 -20
20 0 11 -6 20 -14 20 -7 0 -16 9 -19 20 -4 17 -14 20 -61 20 -49 0 -56 -2 -56
-20 0 -11 -6 -20 -14 -20 -7 0 -16 9 -19 20 -3 11 -12 20 -21 20 -9 0 -16 -8
-16 -20 0 -13 -7 -20 -20 -20 -11 0 -20 -7 -20 -15 0 -12 -13 -15 -55 -15 -42
0 -55 3 -55 15 0 8 -9 15 -20 15 -13 0 -20 -7 -20 -20 0 -11 -7 -20 -15 -20
-8 0 -15 -7 -15 -15 0 -11 -11 -15 -40 -15 -33 0 -40 -3 -40 -20 0 -13 -7 -20
-20 -20 -18 0 -20 -7 -20 -75 0 -68 -2 -75 -20 -75 -19 0 -20 -7 -20 -115 0
-108 -1 -115 -20 -115 -16 0 -20 -7 -20 -36 0 -27 5 -37 20 -41 19 -5 20 -14
20 -279 0 -227 -2 -274 -14 -274 -7 0 -16 9 -19 20 -3 11 -12 20 -21 20 -9 0
-16 7 -16 15 0 8 9 15 20 15 13 0 20 7 20 20 0 18 -7 20 -55 20 l-55 0 0 36
c0 27 -5 37 -20 41 -26 7 -26 33 0 33 16 0 20 7 20 35 0 33 2 35 35 35 31 0
35 3 35 25 0 16 -6 25 -15 25 -8 0 -15 7 -15 15 0 8 7 15 15 15 8 0 15 9 15
20 0 11 -6 20 -14 20 -7 0 -16 9 -19 20 -3 11 -12 20 -21 20 -12 0 -16 10 -16
35 0 28 -4 35 -20 35 -18 0 -20 -7 -20 -55 0 -48 -2 -55 -20 -55 -19 0 -20 7
-20 110 0 91 -3 110 -15 110 -8 0 -15 9 -15 20 0 11 7 20 15 20 11 0 15 11 15
40 0 29 -4 40 -15 40 -11 0 -15 12 -15 44 0 24 -3 58 -6 75 -6 27 -10 31 -40
31 l-33 0 -3 92 c-3 79 -6 93 -20 96 -17 3 -18 -9 -18 -152 l0 -156 -35 0
c-28 0 -35 4 -35 20 0 14 7 20 21 20 19 0 21 4 15 31 -3 17 -6 35 -6 40 0 5
-16 9 -35 9 l-35 0 0 110 c0 91 3 110 15 110 8 0 15 -9 15 -20 0 -34 36 -25
44 11 7 35 1 49 -20 49 -8 0 -14 7 -14 15 0 10 11 15 35 15 31 0 35 3 35 25 0
22 -4 25 -35 25 -24 0 -35 5 -35 15 0 8 -9 15 -20 15 -18 0 -20 7 -20 55 0 48
-2 55 -20 55 -13 0 -20 7 -20 20 0 18 7 20 55 20 48 0 55 2 55 20 0 11 -7 20
-15 20 -10 0 -15 11 -15 35 0 28 -4 35 -20 35 -18 0 -20 7 -20 55 0 48 -2 55
-20 55 -18 0 -20 -7 -20 -75 0 -68 -2 -75 -20 -75 -18 0 -20 -7 -20 -75 0 -68
-2 -75 -20 -75 -16 0 -20 -7 -20 -35 0 -33 -2 -35 -35 -35 l-35 0 0 -60 c0
-47 3 -60 15 -60 8 0 15 -7 15 -15 0 -8 -7 -15 -15 -15 -11 0 -15 -11 -15 -40
0 -29 4 -40 15 -40 8 0 15 -7 15 -15 0 -8 -7 -15 -15 -15 -12 0 -15 -17 -15
-95 0 -88 -1 -95 -20 -95 -11 0 -20 -7 -20 -15 0 -10 -11 -15 -35 -15 -24 0
-35 5 -35 15 0 8 9 15 20 15 13 0 20 7 20 20 0 14 -7 20 -21 20 -12 0 -23 -8
-26 -20 -4 -14 -14 -20 -34 -20 -27 0 -29 3 -29 36 0 27 -5 37 -20 41 -23 6
-27 33 -6 33 21 0 27 14 20 49 -6 30 -8 31 -60 31 -40 0 -54 4 -54 14 0 10 13
16 38 18 29 2 37 7 37 23 0 16 -7 20 -35 21 -94 1 -110 4 -110 19 0 9 -9 15
-25 15 -16 0 -25 -6 -25 -15 0 -8 -7 -15 -15 -15 -8 0 -15 -9 -15 -20 0 -18
-7 -20 -75 -20 -60 0 -75 3 -75 15 0 8 9 15 20 15 13 0 20 7 20 20 0 13 -7 20
-20 20 -11 0 -20 -7 -20 -15 0 -8 -7 -15 -15 -15 -8 0 -15 7 -15 15 0 8 7 15
15 15 12 0 15 13 15 60 0 47 -3 60 -15 60 -10 0 -15 10 -15 31 0 22 -5 32 -20
36 -15 4 -20 14 -20 40 0 26 -5 36 -20 40 -11 3 -20 12 -20 19 0 8 -9 14 -20
14 -11 0 -20 -7 -20 -15 0 -8 -7 -15 -15 -15 -8 0 -15 7 -15 15 0 8 7 15 15
15 8 0 15 6 15 14 0 7 9 16 20 19 11 3 20 12 20 21 0 9 8 16 20 16 13 0 20 7
20 20 0 11 7 20 15 20 8 0 15 -9 15 -20 0 -13 7 -20 20 -20 16 0 20 -7 20 -35
0 -34 1 -35 40 -35 33 0 40 3 40 20 0 13 -7 20 -20 20 -16 0 -20 7 -20 36 0
27 -5 37 -20 41 -15 4 -20 14 -20 39 0 27 -4 34 -20 34 -13 0 -20 -7 -20 -20
0 -11 -7 -20 -15 -20 -8 0 -15 9 -15 20 0 13 -7 20 -20 20 -13 0 -20 7 -20 20
0 16 -7 20 -35 20 -33 0 -35 2 -35 35 0 28 -4 35 -20 35 -11 0 -20 7 -20 15 0
10 11 15 35 15 31 0 35 3 35 25 0 22 -4 25 -35 25 -25 0 -35 4 -35 16 0 9 -9
18 -20 21 -11 3 -20 12 -20 19 0 10 -16 14 -60 14 -53 0 -60 -2 -60 -20 0 -13
7 -20 20 -20 11 0 20 -7 20 -15 0 -8 -9 -15 -20 -15 -17 0 -20 -7 -20 -40 l0
-40 40 0 c54 0 56 -27 3 -32 -31 -2 -39 -7 -41 -25 -3 -22 0 -23 52 -23 l56 0
0 -35 c0 -24 -5 -35 -15 -35 -8 0 -15 9 -15 20 0 13 -7 20 -20 20 -13 0 -20
-7 -20 -20 0 -16 -7 -20 -35 -20 -28 0 -35 4 -35 20 0 16 -7 20 -35 20 l-35 0
0 55 c0 52 -1 55 -25 55 -16 0 -25 -6 -25 -15 0 -8 -7 -15 -15 -15 -24 0 -20
56 5 63 26 7 27 47 1 47 -10 0 -21 9 -24 20 -4 15 -14 20 -36 20 -21 0 -31 5
-31 15 0 8 -9 15 -20 15 -13 0 -20 7 -20 20 0 17 -7 20 -40 20 -33 0 -40 -3
-40 -20 0 -16 7 -20 35 -20 24 0 35 -5 35 -15 0 -11 -12 -15 -50 -15 -38 0
-50 4 -50 15 0 9 -9 15 -25 15 -16 0 -25 -6 -25 -15 0 -8 -7 -15 -15 -15 -10
0 -15 11 -15 35 0 28 -4 35 -20 35 -11 0 -20 7 -20 15 0 8 9 15 20 15 17 0 20
7 20 40 0 33 -3 40 -20 40 -13 0 -20 7 -20 20 0 13 -7 20 -20 20 -13 0 -20 -7
-20 -20z m670 -226 c0 -9 9 -18 20 -21 11 -3 20 -12 20 -19 0 -10 -14 -14 -50
-14 -38 0 -50 4 -50 15 0 8 7 15 15 15 8 0 15 9 15 20 0 11 7 20 15 20 8 0 15
-7 15 -16z m40 -109 c0 -8 -7 -15 -15 -15 -8 0 -15 7 -15 15 0 8 7 15 15 15 8
0 15 -7 15 -15z m40 -80 c0 -8 -7 -15 -15 -15 -8 0 -15 7 -15 15 0 8 7 15 15
15 8 0 15 -7 15 -15z m40 -40 c0 -10 11 -15 35 -15 24 0 35 -5 35 -15 0 -8 -7
-15 -16 -15 -9 0 -18 -9 -21 -20 -3 -11 -12 -20 -19 -20 -8 0 -14 9 -14 20 0
11 -7 20 -15 20 -10 0 -15 10 -15 30 0 20 5 30 15 30 8 0 15 -7 15 -15z m860
-350 c0 -24 -5 -35 -15 -35 -10 0 -15 11 -15 35 0 24 5 35 15 35 10 0 15 -11
15 -35z m80 15 c0 -11 7 -20 15 -20 8 0 15 -7 15 -15 0 -8 -7 -15 -15 -15 -8
0 -15 7 -15 15 0 8 -9 15 -20 15 -13 0 -20 7 -20 20 0 13 7 20 20 20 13 0 20
-7 20 -20z m-1762 -167 c-2 -27 -8 -39 -20 -41 -15 -3 -18 4 -18 37 0 35 3 41
21 41 17 0 20 -5 17 -37z m482 -133 c0 -13 7 -20 20 -20 11 0 20 -7 20 -15 0
-10 -11 -15 -35 -15 -33 0 -35 2 -35 35 0 24 5 35 15 35 8 0 15 -9 15 -20z
m190 -75 c0 -8 9 -15 20 -15 13 0 20 -7 20 -20 0 -17 -7 -20 -40 -20 -39 0
-40 1 -40 35 0 28 4 35 20 35 11 0 20 -7 20 -15z m670 -40 c0 -8 -7 -15 -15
-15 -8 0 -15 7 -15 15 0 8 7 15 15 15 8 0 15 -7 15 -15z m-592 -72 c-3 -15
-14 -18 -58 -18 -44 0 -55 3 -58 18 -3 15 5 17 58 17 53 0 61 -2 58 -17z
m1110 -23 c8 0 12 -18 12 -55 0 -48 2 -55 20 -55 13 0 20 7 20 20 0 11 7 20
15 20 8 0 15 -9 15 -20 0 -11 -7 -20 -15 -20 -8 0 -15 -7 -15 -16 0 -9 -9 -18
-20 -21 -11 -3 -20 -12 -20 -19 0 -8 -9 -14 -20 -14 -18 0 -20 7 -20 55 0 42
-3 55 -15 55 -8 0 -15 9 -15 20 0 13 -7 20 -20 20 -11 0 -20 6 -20 14 0 16 33
26 65 20 11 -2 26 -4 33 -4z m-1110 -52 c3 -16 -5 -18 -57 -18 -44 0 -61 4
-61 13 0 23 13 28 65 25 38 -2 51 -7 53 -20z m1982 -3 c0 -10 -11 -15 -35 -15
-24 0 -35 5 -35 15 0 10 11 15 35 15 24 0 35 -5 35 -15z m-940 -35 c0 -16 -7
-20 -35 -20 -28 0 -35 4 -35 20 0 16 7 20 35 20 28 0 35 -4 35 -20z m-1160
-35 c0 -10 -11 -15 -35 -15 -24 0 -35 5 -35 15 0 10 11 15 35 15 24 0 35 -5
35 -15z m150 -6 c0 -14 -5 -19 -17 -17 -26 5 -29 38 -4 38 15 0 21 -6 21 -21z
m2060 6 c0 -8 -7 -15 -15 -15 -8 0 -15 -9 -15 -20 0 -11 7 -20 15 -20 8 0 15
-9 15 -20 0 -11 -7 -20 -15 -20 -8 0 -15 -9 -15 -20 0 -11 7 -20 15 -20 8 0
15 -7 15 -15 0 -8 -7 -15 -15 -15 -8 0 -15 -9 -15 -20 0 -11 7 -20 15 -20 8 0
15 -9 15 -20 0 -11 -7 -20 -15 -20 -8 0 -15 -9 -15 -20 0 -11 7 -20 15 -20 8
0 15 -7 15 -15 0 -8 -7 -15 -15 -15 -8 0 -15 -9 -15 -20 0 -11 7 -20 15 -20 8
0 15 -9 15 -20 0 -11 -7 -20 -15 -20 -8 0 -15 -9 -15 -20 0 -11 7 -20 15 -20
8 0 15 -7 15 -15 0 -8 -7 -15 -15 -15 -8 0 -15 -9 -15 -20 0 -11 7 -20 15 -20
8 0 15 -9 15 -20 0 -19 -7 -20 -260 -20 l-260 0 0 280 0 280 260 0 c224 0 260
-2 260 -15z m-2170 -96 c0 -33 -3 -40 -17 -37 -13 2 -19 14 -21 41 -3 32 0 37
17 37 18 0 21 -6 21 -41z m-72 -16 c-5 -26 -38 -29 -38 -4 0 15 6 21 21 21 14
0 19 -5 17 -17z m152 -78 c0 -8 -9 -15 -20 -15 -11 0 -20 7 -20 15 0 8 9 15
20 15 11 0 20 -7 20 -15z m-160 -55 c0 -29 -4 -40 -15 -40 -8 0 -15 -7 -15
-15 0 -8 -9 -15 -20 -15 -11 0 -20 6 -20 14 0 7 -9 16 -20 19 -11 3 -20 12
-20 21 0 9 8 16 20 16 13 0 20 -7 20 -20 0 -13 7 -20 20 -20 17 0 20 7 20 40
0 29 4 40 15 40 11 0 15 -11 15 -40z m117 20 c3 -11 12 -20 19 -20 8 0 14 -9
14 -21 0 -18 -5 -20 -52 -17 -41 2 -54 7 -56 21 -2 12 3 17 17 17 14 0 21 6
21 20 0 12 7 20 16 20 9 0 18 -9 21 -20z m10613 0 c0 -19 7 -20 115 -20 108 0
115 1 115 20 0 18 7 20 55 20 l55 0 0 -170 c0 -163 -1 -170 -20 -170 -18 0
-20 -7 -20 -61 0 -52 -2 -60 -17 -57 -16 3 -18 21 -21 191 l-2 187 -485 0
c-478 0 -485 0 -485 20 0 19 7 20 170 20 163 0 170 1 170 20 0 19 7 20 185 20
178 0 185 -1 185 -20z m-10690 -110 c0 -13 -7 -20 -20 -20 -19 0 -27 20 -13
33 13 14 33 6 33 -13z m78 -3 c2 -12 -3 -17 -17 -17 -15 0 -21 6 -21 21 0 25
33 22 38 -4z m10200 1 c3 -16 -8 -18 -132 -18 -107 0 -136 3 -136 13 0 25 14
28 139 25 111 -3 126 -5 129 -20z m637 -188 c0 -187 -2 -205 -17 -208 -17 -3
-18 11 -18 187 l0 191 -130 0 c-124 0 -130 1 -130 20 0 20 5 20 148 18 l147
-3 0 -205z m-337 73 l3 -93 -61 0 c-53 0 -60 -2 -60 -20 0 -11 -7 -20 -15 -20
-8 0 -15 9 -15 20 0 17 -7 20 -40 20 -33 0 -40 -3 -40 -20 0 -11 -7 -20 -15
-20 -12 0 -15 19 -15 115 l0 116 128 -3 127 -3 3 -92z m-11178 22 c0 -24 -5
-35 -15 -35 -10 0 -15 11 -15 35 0 24 5 35 15 35 10 0 15 -11 15 -35z m150 20
c0 -8 -7 -15 -15 -15 -8 0 -15 7 -15 15 0 8 7 15 15 15 8 0 15 -7 15 -15z
m-40 -80 c0 -8 -7 -15 -15 -15 -8 0 -15 7 -15 15 0 8 7 15 15 15 8 0 15 -7 15
-15z m80 -40 c0 -8 -7 -15 -15 -15 -8 0 -15 7 -15 15 0 8 7 15 15 15 8 0 15
-7 15 -15z m70 0 c0 -8 -7 -15 -15 -15 -8 0 -15 7 -15 15 0 8 7 15 15 15 8 0
15 -7 15 -15z m40 -30 c0 -8 -7 -15 -15 -15 -8 0 -15 7 -15 15 0 8 7 15 15 15
8 0 15 -7 15 -15z m11518 -43 c3 -17 -2 -22 -17 -22 -14 0 -21 -6 -21 -20 0
-16 -7 -20 -35 -20 -24 0 -35 -5 -35 -15 0 -8 -8 -15 -19 -15 -10 0 -21 -9
-24 -20 -3 -11 -12 -20 -21 -20 -12 0 -16 10 -16 40 0 29 4 40 15 40 8 0 15 6
15 14 0 9 15 17 40 21 23 4 40 12 40 20 0 13 30 24 60 21 8 -1 16 -11 18 -24z
m-1388 -52 l0 -40 55 0 c48 0 55 2 55 20 0 13 7 20 20 20 13 0 20 -7 20 -20 0
-18 7 -20 55 -20 48 0 55 2 55 20 0 19 7 20 190 20 l190 0 0 -80 c0 -73 -2
-80 -20 -80 -16 0 -20 -7 -20 -30 0 -23 4 -30 20 -30 19 0 20 -7 20 -195 l0
-195 -415 0 -415 0 0 120 c0 100 3 120 15 120 12 0 15 19 15 110 0 103 1 110
20 110 19 0 20 7 20 95 l0 95 60 0 60 0 0 -40z m-8890 -320 c0 -203 -1 -210
-20 -210 -18 0 -20 -7 -20 -71 0 -62 2 -71 20 -76 32 -8 23 -30 -15 -37 -21
-4 -35 -13 -35 -21 0 -8 -9 -15 -19 -15 -16 0 -20 -8 -23 -37 l-3 -38 -75 0
c-63 0 -75 3 -78 18 -3 15 5 17 57 17 54 0 61 2 61 20 0 13 7 20 20 20 19 0
20 7 20 185 0 178 1 185 20 185 19 0 20 7 20 129 0 141 -3 133 58 140 9 1 12
-47 12 -209z m3038 127 c2 -24 8 -37 18 -37 8 0 14 -9 14 -20 0 -11 -7 -20
-15 -20 -8 0 -15 -7 -15 -15 0 -8 -9 -15 -20 -15 -13 0 -20 7 -20 20 0 13 7
20 20 20 11 0 20 7 20 15 0 8 -9 15 -20 15 -17 0 -20 7 -20 41 0 33 3 40 18
37 12 -2 18 -14 20 -41z m-1278 18 c0 -8 -7 -15 -15 -15 -8 0 -15 7 -15 15 0
8 7 15 15 15 8 0 15 -7 15 -15z m150 -30 c0 -8 -7 -15 -15 -15 -8 0 -15 7 -15
15 0 8 7 15 15 15 8 0 15 -7 15 -15z m-2470 -60 c0 -25 4 -35 16 -35 9 0 18
-9 21 -20 3 -11 12 -20 19 -20 8 0 14 -9 14 -20 0 -13 7 -20 20 -20 13 0 20
-7 20 -20 0 -17 7 -20 40 -20 l41 0 -7 -35 c-5 -31 -4 -35 15 -35 18 0 21 -6
21 -40 0 -29 -4 -40 -15 -40 -8 0 -15 9 -15 20 0 19 -7 20 -224 20 l-224 0 -5
28 c-3 15 -3 75 0 135 5 80 9 107 19 107 8 0 14 7 14 15 0 12 19 15 115 15
l115 0 0 -35z m2510 20 c0 -8 -7 -15 -15 -15 -8 0 -15 7 -15 15 0 8 7 15 15
15 8 0 15 -7 15 -15z m2740 -55 c0 -33 -3 -40 -20 -40 -17 0 -20 -7 -20 -40 0
-33 -3 -40 -20 -40 -17 0 -20 7 -20 40 0 33 3 40 20 40 17 0 20 7 20 40 0 33
3 40 20 40 17 0 20 -7 20 -40z m-2780 15 c0 -8 -7 -15 -15 -15 -8 0 -15 7 -15
15 0 8 7 15 15 15 8 0 15 -7 15 -15z m0 -70 c0 -10 -11 -15 -35 -15 -24 0 -35
5 -35 15 0 10 11 15 35 15 24 0 35 -5 35 -15z m5250 0 c0 -13 -21 -15 -130
-15 l-130 0 0 -25 0 -25 245 0 c211 0 245 -2 245 -15 0 -13 -22 -15 -135 -15
-128 0 -135 -1 -135 -20 0 -19 -7 -20 -110 -20 -103 0 -110 -1 -110 -20 0 -20
-7 -20 -355 -20 -348 0 -355 0 -355 20 0 19 7 20 185 20 178 0 185 1 185 20 0
19 -7 20 -185 20 -178 0 -185 1 -185 20 0 16 -7 20 -34 20 -25 0 -35 5 -39 20
-4 15 -14 20 -41 20 -25 0 -36 4 -36 15 0 13 69 15 560 15 491 0 560 -2 560
-15z m80 0 c0 -8 -9 -15 -20 -15 -11 0 -20 7 -20 15 0 8 9 15 20 15 11 0 20
-7 20 -15z m2737 -34 c3 -11 13 -21 24 -24 25 -7 24 -37 -1 -44 -13 -3 -22
-17 -26 -39 -6 -31 -10 -34 -40 -34 -24 0 -34 -5 -34 -15 0 -8 -9 -15 -20 -15
-11 0 -20 6 -20 14 0 10 -13 16 -37 18 -27 2 -39 8 -41 21 -3 15 5 17 57 17
l61 0 0 60 0 60 36 0 c27 0 37 -5 41 -19z m113 -41 c0 -13 -7 -20 -20 -20 -13
0 -20 7 -20 20 0 13 7 20 20 20 13 0 20 -7 20 -20z m-8030 -5 c0 -8 -7 -15
-15 -15 -8 0 -15 7 -15 15 0 8 7 15 15 15 8 0 15 -7 15 -15z m5890 0 c0 -12
-15 -15 -75 -15 -60 0 -75 3 -75 15 0 12 15 15 75 15 60 0 75 -3 75 -15z
m-7090 -75 c0 -13 7 -20 20 -20 13 0 20 7 20 20 0 18 7 20 55 20 42 0 55 -3
55 -15 0 -8 -7 -15 -16 -15 -9 0 -18 -9 -21 -20 -4 -15 -14 -20 -39 -20 -27 0
-34 -4 -34 -20 0 -16 7 -20 35 -20 28 0 35 -4 35 -20 0 -11 -7 -20 -15 -20 -8
0 -15 -9 -15 -20 0 -11 7 -20 15 -20 8 0 15 -7 15 -15 0 -13 -33 -15 -240 -15
l-240 0 0 35 0 35 205 0 c198 0 205 1 205 20 0 19 -7 20 -205 20 -176 0 -205
2 -205 15 0 8 7 15 16 15 9 0 18 9 21 20 5 19 14 20 154 20 142 0 149 1 149
20 0 11 7 20 15 20 8 0 15 -9 15 -20z m9190 0 c0 -13 -7 -20 -20 -20 -13 0
-20 7 -20 20 0 13 7 20 20 20 13 0 20 -7 20 -20z m-7840 -35 c0 -8 -7 -15 -15
-15 -8 0 -15 7 -15 15 0 8 7 15 15 15 8 0 15 -7 15 -15z m-3260 -95 c0 -53 -3
-70 -14 -70 -7 0 -16 9 -19 21 -7 28 -41 21 -45 -9 -3 -17 2 -22 17 -22 12 0
21 -6 21 -15 0 -12 -13 -15 -55 -15 -48 0 -55 -2 -55 -20 0 -11 7 -20 15 -20
8 0 15 -7 15 -15 0 -8 -7 -15 -15 -15 -8 0 -15 -9 -15 -20 0 -26 -26 -26 -33
1 -7 28 -41 21 -45 -9 -3 -17 2 -22 17 -22 12 0 21 -6 21 -15 0 -8 -9 -15 -20
-15 -16 0 -20 -7 -20 -35 0 -33 -2 -35 -35 -35 -28 0 -35 -4 -35 -20 0 -13 -7
-20 -20 -20 -13 0 -20 -7 -20 -20 0 -13 -7 -20 -20 -20 -13 0 -20 -7 -20 -20
0 -11 -7 -20 -15 -20 -10 0 -15 11 -15 35 0 25 4 35 16 35 9 0 18 9 21 20 3
11 12 20 19 20 8 0 14 9 14 20 0 13 7 20 20 20 16 0 20 7 20 34 0 25 5 35 20
39 19 5 20 14 20 151 l0 146 130 0 130 0 0 -70z m2060 55 c0 -8 -7 -15 -15
-15 -8 0 -15 7 -15 15 0 8 7 15 15 15 8 0 15 -7 15 -15z m1350 0 c0 -8 -7 -15
-15 -15 -8 0 -15 7 -15 15 0 8 7 15 15 15 8 0 15 -7 15 -15z m4580 0 c0 -13
-38 -15 -280 -15 -242 0 -280 2 -280 15 0 13 38 15 280 15 242 0 280 -2 280
-15z m3030 0 c0 -10 -11 -15 -35 -15 -24 0 -35 5 -35 15 0 10 11 15 35 15 24
0 35 -5 35 -15z m-7690 -40 c0 -8 -7 -15 -15 -15 -8 0 -15 7 -15 15 0 8 7 15
15 15 8 0 15 -7 15 -15z m-1830 -70 l0 -55 280 0 c273 0 280 0 280 -20 0 -17
7 -20 40 -20 33 0 40 -3 40 -20 0 -18 7 -20 55 -20 48 0 55 -2 55 -20 0 -13
-7 -20 -20 -20 -11 0 -20 -7 -20 -15 0 -8 9 -15 20 -15 13 0 20 -7 20 -20 0
-16 7 -20 35 -20 28 0 35 -4 35 -20 0 -13 7 -20 20 -20 13 0 20 -7 20 -20 0
-13 7 -20 20 -20 16 0 20 -7 20 -35 0 -28 4 -35 20 -35 16 0 20 -7 20 -35 0
-25 4 -35 16 -35 9 0 18 -9 21 -20 3 -11 12 -20 19 -20 11 0 14 -24 14 -115 0
-96 -3 -115 -15 -115 -10 0 -15 -11 -15 -35 0 -33 2 -35 35 -35 34 0 35 -1 35
-40 0 -33 -3 -40 -20 -40 -11 0 -20 -7 -20 -15 0 -9 -9 -15 -24 -15 -13 0 -38
-3 -55 -6 -27 -6 -31 -4 -31 15 0 14 -6 21 -20 21 -18 0 -20 7 -20 55 0 40 -4
55 -14 55 -7 0 -16 -9 -19 -20 -3 -11 -13 -20 -22 -20 -9 0 -19 9 -22 20 -3
11 -12 20 -19 20 -8 0 -14 9 -14 20 0 11 -6 20 -14 20 -7 0 -16 -9 -19 -20 -3
-12 -14 -20 -26 -20 -14 0 -21 6 -21 20 0 19 -7 20 -91 20 -82 0 -91 2 -96 20
-3 11 -12 20 -19 20 -8 0 -14 7 -14 15 0 8 -7 15 -16 15 -9 0 -18 9 -21 20 -3
11 -14 20 -24 20 -12 0 -19 7 -19 19 0 10 -9 21 -20 24 -11 3 -20 12 -20 21 0
9 -7 16 -15 16 -8 0 -15 9 -15 20 0 11 7 20 15 20 9 0 15 9 15 24 0 13 3 38 6
55 l7 31 258 0 c252 0 259 1 259 20 0 20 -7 20 -395 20 -388 0 -395 0 -395
-20 0 -19 7 -20 95 -20 88 0 95 -1 95 -20 0 -11 -7 -20 -15 -20 -8 0 -15 -7
-15 -15 0 -12 -17 -15 -95 -15 l-95 0 0 55 0 55 -41 0 c-41 0 -41 0 -35 31 3
17 6 110 6 205 0 148 2 174 15 174 12 0 15 -13 15 -55z m9260 15 c0 -33 3 -40
20 -40 11 0 20 -7 20 -15 0 -8 -9 -15 -20 -15 -13 0 -20 -7 -20 -20 0 -13 -7
-20 -20 -20 -18 0 -20 7 -20 75 0 68 2 75 20 75 17 0 20 -7 20 -40z m-1160
-34 c0 -25 5 -35 20 -39 11 -3 20 -12 20 -21 0 -13 -13 -16 -74 -16 -65 0 -74
-2 -79 -20 -3 -11 -12 -20 -21 -20 -9 0 -16 8 -16 20 0 13 -7 20 -20 20 -18 0
-20 -7 -20 -55 0 -48 -2 -55 -20 -55 -11 0 -20 7 -20 15 0 8 -7 15 -16 15 -9
0 -18 9 -21 20 -4 17 -14 20 -54 20 l-49 0 0 55 c0 42 3 55 15 55 10 0 15 -11
15 -35 0 -34 1 -35 40 -35 33 0 40 3 40 20 0 11 7 20 15 20 8 0 15 -9 15 -20
0 -13 7 -20 20 -20 13 0 20 7 20 20 0 11 -7 20 -15 20 -8 0 -15 7 -15 15 0 8
7 15 15 15 8 0 15 -7 15 -15 0 -8 9 -15 20 -15 11 0 20 7 20 15 0 10 11 15 35
15 24 0 35 -5 35 -15 0 -8 9 -15 20 -15 16 0 20 7 20 35 0 28 4 35 20 35 16 0
20 -7 20 -34z m-6120 -21 c0 -8 -7 -15 -15 -15 -8 0 -15 7 -15 15 0 8 7 15 15
15 8 0 15 -7 15 -15z m6380 0 c0 -8 9 -15 20 -15 11 0 20 7 20 15 0 10 11 15
35 15 24 0 35 -5 35 -15 0 -8 9 -15 20 -15 11 0 20 7 20 15 0 13 21 15 130 15
l130 0 0 -35 c0 -24 -5 -35 -15 -35 -8 0 -15 -9 -15 -20 0 -16 7 -20 35 -20
l35 0 0 55 c0 48 2 55 20 55 18 0 20 -7 20 -55 0 -48 -2 -55 -20 -55 -11 0
-20 -7 -20 -15 0 -10 -11 -15 -35 -15 -28 0 -35 -4 -35 -20 0 -11 7 -20 15
-20 11 0 15 -11 15 -40 0 -29 -4 -40 -15 -40 -11 0 -15 11 -15 40 0 33 -3 40
-20 40 -13 0 -20 -7 -20 -20 0 -13 -7 -20 -20 -20 -13 0 -20 7 -20 20 0 11 -7
20 -15 20 -10 0 -15 11 -15 35 0 28 -4 35 -20 35 -11 0 -20 -7 -20 -15 0 -8
-9 -15 -20 -15 -11 0 -20 7 -20 15 0 8 9 15 20 15 13 0 20 7 20 20 0 14 7 20
21 20 25 0 22 33 -4 38 -12 2 -17 -3 -17 -17 0 -19 -6 -21 -75 -21 l-75 0 0
-35 c0 -28 -4 -35 -20 -35 -16 0 -20 7 -20 35 l0 35 -55 0 -55 0 0 35 c0 33 2
35 35 35 24 0 35 -5 35 -15z m560 0 c0 -8 -7 -15 -15 -15 -8 0 -15 7 -15 15 0
8 7 15 15 15 8 0 15 -7 15 -15z m150 0 c0 -10 -11 -15 -35 -15 -24 0 -35 5
-35 15 0 10 11 15 35 15 24 0 35 -5 35 -15z m-7800 -35 c0 -11 -7 -20 -15 -20
-8 0 -15 9 -15 20 0 11 7 20 15 20 8 0 15 -9 15 -20z m120 0 c0 -13 -7 -20
-20 -20 -13 0 -20 7 -20 20 0 13 7 20 20 20 13 0 20 -7 20 -20z m7570 0 c0
-13 7 -20 20 -20 13 0 20 -7 20 -20 0 -13 -7 -20 -20 -20 -13 0 -20 7 -20 20
0 11 -7 20 -15 20 -8 0 -15 9 -15 20 0 11 7 20 15 20 8 0 15 -9 15 -20z
m-7010 -5 c0 -8 -7 -15 -15 -15 -8 0 -15 7 -15 15 0 8 7 15 15 15 8 0 15 -7
15 -15z m70 0 c0 -8 9 -15 20 -15 11 0 20 -7 20 -15 0 -10 -11 -15 -35 -15
-32 0 -35 2 -35 30 0 20 5 30 15 30 8 0 15 -7 15 -15z m-742 -72 c-5 -26 -38
-29 -38 -4 0 15 6 21 21 21 14 0 19 -5 17 -17z m110 0 c-5 -26 -38 -29 -38 -4
0 15 6 21 21 21 14 0 19 -5 17 -17z m-1610 -35 c3 -15 -4 -18 -37 -18 -34 0
-41 -3 -41 -20 0 -11 -7 -20 -15 -20 -8 0 -15 -7 -15 -15 0 -8 7 -15 15 -15 8
0 15 -9 15 -20 0 -13 7 -20 20 -20 13 0 20 -7 20 -20 0 -17 -7 -20 -40 -20
-33 0 -40 3 -40 20 0 13 -7 20 -20 20 -11 0 -20 7 -20 15 0 10 -11 15 -35 15
-33 0 -35 -2 -35 -35 l0 -34 -92 -3 -93 -3 -3 -37 c-3 -33 0 -38 17 -38 14 0
21 6 21 20 0 13 7 20 20 20 12 0 20 -7 20 -16 0 -9 -9 -18 -20 -21 -11 -3 -20
-12 -20 -19 0 -8 -9 -14 -20 -14 -13 0 -20 -7 -20 -20 0 -13 7 -20 20 -20 11
0 20 7 20 15 0 8 9 15 20 15 16 0 20 -7 20 -35 l0 -35 55 0 55 0 0 -40 c0 -33
3 -40 20 -40 17 0 20 -7 20 -51 0 -42 -3 -52 -20 -56 -11 -3 -20 -14 -20 -24
0 -12 7 -19 20 -19 11 0 20 -7 20 -15 0 -8 -9 -15 -20 -15 -13 0 -20 -7 -20
-20 0 -13 7 -20 20 -20 12 0 20 -7 20 -16 0 -9 -9 -18 -20 -21 -11 -3 -20 -14
-20 -24 0 -12 7 -19 20 -19 11 0 20 -7 20 -15 0 -8 -9 -15 -20 -15 -13 0 -20
-7 -20 -20 0 -13 7 -20 20 -20 12 0 20 -7 20 -16 0 -9 -9 -18 -20 -21 -11 -3
-20 -14 -20 -24 0 -12 7 -19 20 -19 11 0 20 -7 20 -15 0 -8 -9 -15 -20 -15
-13 0 -20 -7 -20 -20 0 -13 7 -20 20 -20 12 0 20 -7 20 -16 0 -9 -9 -18 -20
-21 -11 -3 -20 -14 -20 -24 0 -12 7 -19 20 -19 11 0 20 -7 20 -15 0 -8 -9 -15
-20 -15 -17 0 -20 -7 -20 -40 l0 -40 -40 0 c-29 0 -40 -4 -40 -15 0 -8 -7 -15
-15 -15 -8 0 -15 7 -15 15 0 8 -9 15 -20 15 -13 0 -20 7 -20 20 0 18 -7 20
-55 20 -48 0 -55 2 -55 20 0 14 7 20 21 20 25 0 22 33 -4 38 -12 2 -17 -3 -17
-17 0 -14 -6 -21 -20 -21 -13 0 -20 7 -20 20 0 21 -10 24 -47 14 -18 -5 -23
-14 -23 -40 0 -27 -4 -34 -20 -34 -13 0 -20 7 -20 20 0 18 -7 20 -55 20 -48 0
-55 -2 -55 -20 0 -17 -7 -20 -40 -20 -33 0 -40 3 -40 20 0 17 -7 20 -41 20
-33 0 -40 3 -37 18 2 13 15 18 56 20 47 3 54 1 59 -17 6 -25 33 -28 33 -5 0 9
9 18 20 21 11 3 20 12 20 19 0 8 9 14 20 14 11 0 20 -7 20 -15 0 -8 9 -15 20
-15 11 0 20 6 20 14 0 7 9 16 20 19 11 3 20 12 20 21 0 13 -12 16 -60 16 -53
0 -60 2 -60 20 0 16 -7 20 -35 20 -24 0 -35 5 -35 15 0 8 -9 15 -20 15 -13 0
-20 7 -20 20 0 13 7 20 20 20 11 0 20 -7 20 -15 0 -8 7 -15 15 -15 12 0 15 14
15 70 l0 70 -55 0 c-48 0 -55 2 -55 20 0 11 -7 20 -15 20 -10 0 -15 -11 -15
-35 0 -28 -4 -35 -20 -35 -11 0 -20 7 -20 15 0 8 -9 15 -20 15 -13 0 -20 7
-20 19 0 14 10 21 35 25 21 4 35 13 35 21 0 9 10 15 25 15 16 0 25 -6 25 -15
0 -8 7 -15 15 -15 8 0 15 7 15 15 0 8 7 15 15 15 8 0 15 7 15 16 0 9 9 18 20
21 18 5 20 14 20 73 0 110 11 190 26 190 8 0 14 -9 14 -20 0 -13 7 -20 20 -20
13 0 20 7 20 20 0 11 -7 20 -15 20 -8 0 -15 9 -15 20 0 11 7 20 15 20 8 0 15
9 15 20 0 16 -7 20 -35 20 l-35 0 0 110 c0 91 3 110 15 110 8 0 15 -9 15 -20
0 -13 7 -20 20 -20 13 0 20 7 20 20 0 11 -7 20 -15 20 -8 0 -15 7 -15 15 0 8
7 15 15 15 8 0 15 9 15 20 0 13 7 20 20 20 11 0 20 -7 20 -15 0 -10 11 -15 35
-15 28 0 35 -4 35 -20 0 -13 7 -20 20 -20 13 0 20 -7 20 -20 0 -11 7 -20 15
-20 8 0 17 -14 21 -35 6 -34 34 -50 34 -20 0 11 11 15 40 15 33 0 40 3 40 20
0 13 7 20 20 20 13 0 20 7 20 20 0 13 7 20 20 20 16 0 20 7 20 35 0 39 24 50
33 15 3 -11 12 -20 21 -20 9 0 16 8 16 20 0 18 7 20 55 20 42 0 55 -3 55 -15
0 -8 9 -15 20 -15 14 0 20 7 20 21 0 17 5 20 37 17 27 -2 39 -8 41 -20z m2132
2 c0 -13 7 -20 20 -20 13 0 20 -7 20 -20 0 -13 -7 -20 -20 -20 -13 0 -20 -7
-20 -20 0 -12 -7 -20 -16 -20 -9 0 -18 9 -21 20 -3 11 -12 20 -19 20 -8 0 -14
9 -14 20 0 13 7 20 20 20 13 0 20 7 20 20 0 11 7 20 15 20 8 0 15 -9 15 -20z
m5858 -3 c2 -12 -3 -17 -17 -17 -15 0 -21 6 -21 21 0 25 33 22 38 -4z m-6378
-37 c0 -18 -7 -20 -75 -20 -68 0 -75 2 -75 20 0 18 7 20 75 20 68 0 75 -2 75
-20z m637 0 c3 -11 12 -20 19 -20 8 0 14 -9 14 -20 0 -12 -7 -20 -16 -20 -9 0
-18 9 -21 20 -3 11 -12 20 -19 20 -8 0 -14 9 -14 20 0 12 7 20 16 20 9 0 18
-9 21 -20z m-639 -77 c-2 -14 -16 -17 -76 -17 -62 -1 -72 1 -72 16 0 16 10 18
76 18 65 0 75 -2 72 -17z m-78 -113 c0 -53 2 -60 20 -60 13 0 20 7 20 20 0 13
7 20 20 20 16 0 20 -7 20 -32 0 -63 -9 -78 -46 -78 l-34 0 0 -55 c0 -42 -3
-55 -15 -55 -11 0 -15 12 -15 44 0 24 -3 58 -6 75 -6 27 -10 31 -40 31 -27 0
-34 -4 -34 -20 0 -13 7 -20 20 -20 18 0 20 -7 20 -55 0 -48 -2 -55 -20 -55
-17 0 -20 -7 -20 -40 0 -33 -3 -40 -20 -40 -13 0 -20 -7 -20 -20 0 -11 -7 -20
-15 -20 -8 0 -15 -7 -15 -15 0 -9 -9 -15 -25 -15 -16 0 -25 6 -25 15 0 8 -7
15 -15 15 -9 0 -15 9 -15 25 0 22 4 25 35 25 24 0 35 5 35 15 0 8 9 15 20 15
11 0 20 6 20 14 0 7 -9 16 -20 19 -15 4 -20 14 -20 41 0 29 4 36 20 36 18 0
20 7 20 56 0 47 3 57 20 61 11 3 20 12 20 19 0 8 9 14 20 14 17 0 20 7 20 40
0 39 1 40 35 40 l35 0 0 -60z m80 40 c0 -13 -7 -20 -20 -20 -13 0 -20 7 -20
20 0 13 7 20 20 20 13 0 20 -7 20 -20z m-3307 -80 c4 -15 14 -20 41 -20 25 0
36 -4 36 -15 0 -10 -11 -15 -35 -15 -28 0 -35 -4 -35 -20 0 -13 -7 -20 -20
-20 -13 0 -20 7 -20 20 0 16 -7 20 -35 20 -33 0 -35 2 -35 35 l0 35 49 0 c40
0 50 -3 54 -20z m3497 6 c0 -9 -15 -17 -40 -21 -25 -4 -40 -12 -40 -21 0 -8
-7 -14 -15 -14 -8 0 -15 7 -15 15 0 8 7 15 15 15 8 0 15 9 15 20 0 17 7 20 40
20 28 0 40 -4 40 -14z m-3230 -76 c0 -19 7 -20 246 -20 228 0 245 -1 242 -17
-2 -14 -15 -19 -61 -21 l-57 -3 0 -54 c0 -42 -4 -55 -15 -55 -8 0 -15 9 -15
20 0 13 -7 20 -20 20 -17 0 -20 -7 -20 -40 l0 -41 -112 3 c-98 3 -113 5 -116
21 -2 12 3 17 17 17 14 0 21 6 21 20 0 13 -7 20 -20 20 -11 0 -20 7 -20 15 0
8 -7 15 -15 15 -8 0 -15 9 -15 20 0 13 -7 20 -20 20 -13 0 -20 7 -20 20 0 16
-7 20 -34 20 -25 0 -35 -5 -39 -20 -3 -11 -12 -20 -21 -20 -12 0 -16 10 -16
40 l0 40 55 0 c48 0 55 -2 55 -20z m1500 0 c0 -18 7 -20 55 -20 48 0 55 -2 55
-20 0 -13 7 -20 20 -20 13 0 20 -7 20 -20 0 -13 7 -20 20 -20 11 0 20 -6 20
-14 0 -7 9 -16 20 -19 11 -3 20 -12 20 -21 0 -9 7 -16 15 -16 8 0 15 -9 15
-20 0 -18 -7 -20 -55 -20 -48 0 -55 -2 -55 -20 0 -16 -7 -20 -36 -20 -27 0
-37 5 -41 20 -4 15 -14 20 -39 20 -27 0 -34 -4 -34 -20 0 -16 -7 -20 -36 -20
-27 0 -37 5 -41 20 -7 25 -73 30 -73 5 0 -8 -9 -15 -20 -15 -11 0 -20 7 -20
15 0 8 -7 15 -15 15 -11 0 -15 11 -15 40 l0 40 70 0 c63 0 70 -2 70 -20 0 -13
7 -20 20 -20 13 0 20 7 20 20 0 11 -7 20 -15 20 -8 0 -15 7 -15 16 0 9 -9 18
-20 21 -17 5 -20 14 -20 59 l0 54 55 0 c48 0 55 -2 55 -20z m338 -2 c2 -13 -3
-18 -17 -18 -14 0 -21 -6 -21 -20 0 -16 -7 -20 -34 -20 -29 0 -34 4 -40 31 -9
44 -1 50 57 47 40 -2 53 -7 55 -20z m-1988 -72 c0 -7 9 -16 21 -19 18 -5 20
-12 17 -59 l-3 -53 -53 -3 c-47 -3 -54 -1 -59 17 -3 12 -12 21 -19 21 -8 0
-14 9 -14 20 0 12 7 20 16 20 9 0 18 -9 21 -20 4 -15 14 -20 39 -20 33 0 34 1
34 40 0 33 -3 40 -20 40 -11 0 -20 7 -20 15 0 8 9 15 20 15 11 0 20 -6 20 -14z
m8030 -76 c0 -13 -7 -20 -20 -20 -13 0 -20 7 -20 20 0 13 7 20 20 20 13 0 20
-7 20 -20z m70 -40 c0 -13 -7 -20 -20 -20 -13 0 -20 7 -20 20 0 13 7 20 20 20
13 0 20 -7 20 -20z m-6040 -41 c0 -25 -33 -22 -38 4 -2 12 3 17 17 17 15 0 21
-6 21 -21z m6118 4 c-5 -26 -38 -29 -38 -4 0 15 6 21 21 21 14 0 19 -5 17 -17z
m-8218 -33 c0 -16 -7 -20 -35 -20 -28 0 -35 4 -35 20 0 16 7 20 35 20 28 0 35
-4 35 -20z m7358 -112 c2 -105 5 -128 17 -128 12 0 15 -20 15 -115 l0 -115 40
0 c33 0 40 -3 40 -20 0 -11 7 -20 15 -20 8 0 15 -9 15 -20 0 -20 -5 -21 -112
-18 -98 3 -113 5 -116 21 -2 12 3 17 17 17 21 0 21 4 21 266 l0 265 23 -3 c21
-3 22 -7 25 -130z m1042 113 c0 -26 35 -31 201 -31 117 0 139 -2 139 -15 0 -8
7 -15 15 -15 8 0 15 -7 15 -15 0 -8 -7 -15 -15 -15 -12 0 -15 -13 -15 -60 0
-53 -2 -60 -20 -60 -11 0 -20 -7 -20 -15 0 -8 -7 -15 -16 -15 -9 0 -18 -9 -21
-20 -5 -18 -14 -20 -93 -20 -79 0 -88 2 -93 20 -3 11 -12 20 -21 20 -13 0 -16
11 -16 50 0 43 -3 50 -20 50 -13 0 -20 7 -20 20 0 16 7 20 35 20 28 0 35 -4
35 -20 0 -18 7 -20 80 -20 73 0 80 2 80 20 0 17 7 20 40 20 33 0 40 3 40 20 0
19 -7 20 -175 20 l-175 0 0 33 c0 19 3 37 7 40 13 14 33 7 33 -12z m-150 -6
c0 -8 -7 -15 -15 -15 -8 0 -15 7 -15 15 0 8 7 15 15 15 8 0 15 -7 15 -15z
m-8322 -38 c2 -12 -3 -17 -17 -17 -15 0 -21 6 -21 21 0 25 33 22 38 -4z m8362
-2 c0 -8 -7 -15 -15 -15 -8 0 -15 7 -15 15 0 8 7 15 15 15 8 0 15 -7 15 -15z
m-8170 -35 c0 -11 7 -20 15 -20 8 0 15 -9 15 -20 0 -12 -7 -20 -16 -20 -9 0
-18 9 -21 20 -4 15 -14 20 -39 20 -27 0 -34 4 -34 20 0 17 7 20 40 20 33 0 40
-3 40 -20z m-160 -40 c0 -13 7 -20 20 -20 11 0 20 -7 20 -15 0 -8 -9 -15 -20
-15 -11 0 -20 7 -20 15 0 8 -7 15 -15 15 -8 0 -15 9 -15 20 0 11 7 20 15 20 8
0 15 -9 15 -20z m2630 -1 c0 -14 -5 -19 -17 -17 -26 5 -29 38 -4 38 15 0 21
-6 21 -21z m110 -29 c0 -16 -7 -20 -35 -20 -28 0 -35 4 -35 20 0 16 7 20 35
20 28 0 35 -4 35 -20z m-2020 -40 c0 -13 7 -20 20 -20 13 0 20 -7 20 -20 0
-17 -7 -20 -40 -20 -33 0 -40 3 -40 20 0 13 -7 20 -20 20 -13 0 -20 7 -20 20
0 17 7 20 40 20 33 0 40 -3 40 -20z m150 0 c0 -13 -7 -20 -20 -20 -13 0 -20 7
-20 20 0 13 7 20 20 20 13 0 20 -7 20 -20z m6710 -300 c0 -13 -7 -20 -20 -20
-13 0 -20 7 -20 20 0 13 7 20 20 20 13 0 20 -7 20 -20z m-3142 -136 c12 -4 22
-13 22 -20 0 -11 -31 -14 -165 -14 -138 0 -165 2 -165 15 0 12 22 15 113 18
61 1 126 4 142 5 17 1 40 -1 53 -4z m-868 -49 c0 -11 -11 -15 -40 -15 -29 0
-40 4 -40 15 0 11 11 15 40 15 29 0 40 -4 40 -15z m110 -40 c0 -12 -13 -15
-55 -15 -42 0 -55 3 -55 15 0 12 13 15 55 15 42 0 55 -3 55 -15z m70 -40 c0
-10 -11 -15 -35 -15 -24 0 -35 5 -35 15 0 10 11 15 35 15 24 0 35 -5 35 -15z
m-2950 -240 c0 -24 5 -35 15 -35 9 0 15 -9 15 -25 0 -31 -29 -34 -37 -5 -3 11
-14 20 -24 20 -15 0 -19 7 -19 40 0 36 3 40 25 40 22 0 25 -4 25 -35z m2130
-95 c0 -13 -7 -20 -20 -20 -19 0 -27 20 -13 33 13 14 33 6 33 -13z m5298 14
c25 -7 31 -34 7 -34 -12 0 -15 -13 -15 -55 l0 -55 35 0 35 0 0 -55 0 -55 -35
0 c-28 0 -35 -4 -35 -20 0 -18 -7 -20 -55 -20 l-55 0 0 35 c0 28 -4 35 -20 35
-17 0 -20 7 -20 40 0 33 -3 40 -20 40 -13 0 -20 7 -20 20 0 13 -7 20 -20 20
-11 0 -20 7 -20 15 0 11 11 15 40 15 33 0 40 3 40 20 0 16 7 20 35 20 28 0 35
4 35 20 0 16 7 20 33 20 17 0 42 -3 55 -6z m-7888 -50 c0 -9 9 -18 20 -21 11
-3 20 -12 20 -19 0 -22 27 -16 33 7 10 36 42 20 45 -24 3 -35 5 -37 38 -37 27
0 34 4 34 20 0 13 7 20 20 20 13 0 20 -7 20 -20 0 -13 -7 -20 -20 -20 -17 0
-20 -7 -20 -40 0 -33 -3 -40 -20 -40 -13 0 -20 7 -20 20 0 11 -7 20 -15 20 -8
0 -15 -9 -15 -20 0 -11 7 -20 15 -20 22 0 18 -27 -5 -33 -11 -3 -20 -12 -20
-21 0 -12 -10 -16 -35 -16 -33 0 -35 2 -35 34 0 25 -5 35 -20 39 -11 3 -20 12
-20 21 0 9 8 16 20 16 13 0 20 7 20 20 0 16 -7 20 -36 20 -27 0 -37 -5 -41
-20 -9 -34 -33 -24 -33 14 0 26 5 35 21 39 17 5 19 10 13 41 -5 32 -4 36 15
36 13 0 21 -6 21 -16z m7950 -39 c0 -8 -7 -15 -15 -15 -8 0 -15 7 -15 15 0 8
7 15 15 15 8 0 15 -7 15 -15z m-8290 -55 c0 -29 -4 -40 -15 -40 -11 0 -15 11
-15 40 0 29 4 40 15 40 11 0 15 -11 15 -40z m-70 -5 c0 -33 -2 -35 -35 -35
-28 0 -35 4 -35 20 0 11 7 20 15 20 8 0 15 7 15 15 0 8 9 15 20 15 16 0 20 -7
20 -35z m3034 13 c10 -38 7 -48 -14 -48 -16 0 -20 7 -20 35 0 40 24 49 34 13z
m5366 7 c0 -8 -7 -15 -15 -15 -8 0 -15 7 -15 15 0 8 7 15 15 15 8 0 15 -7 15
-15z m-7610 -35 c0 -16 7 -20 35 -20 33 0 35 -2 35 -34 0 -33 2 -35 37 -38 27
-2 39 -8 41 -20 3 -15 -4 -18 -37 -18 -34 0 -41 -3 -41 -20 0 -13 7 -20 20
-20 13 0 20 -7 20 -20 0 -18 -7 -20 -75 -20 -68 0 -75 2 -75 20 0 13 7 20 20
20 13 0 20 7 20 20 0 13 -7 20 -20 20 -13 0 -20 7 -20 20 0 13 -7 20 -20 20
-11 0 -20 7 -20 15 0 8 9 15 20 15 13 0 20 7 20 20 0 13 -7 20 -20 20 -19 0
-27 20 -13 33 3 4 21 7 40 7 26 0 33 -4 33 -20z m7270 0 c0 -16 -7 -20 -35
-20 -28 0 -35 -4 -35 -20 0 -18 -7 -20 -55 -20 -48 0 -55 -2 -55 -20 0 -17 -7
-20 -40 -20 -33 0 -40 -3 -40 -20 0 -18 -7 -20 -75 -20 -60 0 -75 -3 -75 -15
0 -10 -10 -15 -34 -15 -25 0 -35 -5 -39 -20 -4 -17 -14 -20 -61 -20 -49 0 -56
2 -56 20 0 18 7 20 54 20 45 0 54 3 59 20 4 15 14 20 41 20 29 0 36 4 36 20 0
18 7 20 75 20 60 0 75 3 75 15 0 10 11 15 35 15 28 0 35 4 35 20 0 18 7 20 60
20 53 0 60 2 60 20 0 16 7 20 35 20 28 0 35 -4 35 -20z m-5140 -95 c0 -87 -3
-105 -15 -105 -12 0 -15 18 -15 105 0 87 3 105 15 105 12 0 15 -18 15 -105z
m5510 90 c0 -8 -7 -15 -15 -15 -8 0 -15 7 -15 15 0 8 7 15 15 15 8 0 15 -7 15
-15z m-6630 -35 c0 -13 -7 -20 -20 -20 -13 0 -20 7 -20 20 0 13 7 20 20 20 13
0 20 -7 20 -20z m6670 5 c0 -8 -7 -15 -15 -15 -8 0 -15 7 -15 15 0 8 7 15 15
15 8 0 15 -7 15 -15z m-8470 -40 c0 -8 -9 -15 -20 -15 -11 0 -20 7 -20 15 0 8
9 15 20 15 11 0 20 -7 20 -15z m260 -5 c0 -16 -7 -20 -35 -20 -24 0 -35 -5
-35 -15 0 -8 -9 -15 -20 -15 -13 0 -20 7 -20 20 0 13 7 20 20 20 11 0 20 7 20
15 0 10 11 15 35 15 28 0 35 -4 35 -20z m-190 -55 c0 -24 -5 -35 -15 -35 -10
0 -15 11 -15 35 0 24 5 35 15 35 10 0 15 -11 15 -35z m300 20 c0 -8 -7 -15
-15 -15 -8 0 -15 7 -15 15 0 8 7 15 15 15 8 0 15 -7 15 -15z m-110 -35 c0 -11
-7 -20 -15 -20 -8 0 -15 9 -15 20 0 11 7 20 15 20 8 0 15 -9 15 -20z m150 0
c0 -11 -7 -20 -15 -20 -8 0 -15 9 -15 20 0 11 7 20 15 20 8 0 15 -9 15 -20z
m680 0 c0 -13 -7 -20 -20 -20 -13 0 -20 7 -20 20 0 13 7 20 20 20 13 0 20 -7
20 -20z m-720 -40 c0 -11 -7 -20 -15 -20 -8 0 -15 9 -15 20 0 11 7 20 15 20 8
0 15 -9 15 -20z m1280 0 c0 -13 7 -20 20 -20 11 0 20 -7 20 -15 0 -8 7 -15 15
-15 8 0 15 7 15 15 0 11 11 15 40 15 39 0 40 -1 40 -35 0 -28 4 -35 20 -35 17
0 20 -7 20 -40 0 -33 -3 -40 -20 -40 -11 0 -20 -7 -20 -15 0 -8 -9 -15 -20
-15 -16 0 -20 7 -20 35 0 28 -4 35 -20 35 -18 0 -20 -7 -20 -55 0 -42 -3 -55
-15 -55 -10 0 -15 11 -15 35 0 28 -4 35 -20 35 -11 0 -20 -7 -20 -15 0 -8 -9
-15 -20 -15 -16 0 -20 7 -20 35 0 24 -5 35 -15 35 -10 0 -15 11 -15 35 0 24 5
35 15 35 11 0 15 11 15 40 0 33 3 40 20 40 13 0 20 -7 20 -20z m-1500 -35 c0
-10 -11 -15 -35 -15 -24 0 -35 5 -35 15 0 10 11 15 35 15 24 0 35 -5 35 -15z
m340 -5 c0 -13 -7 -20 -20 -20 -11 0 -20 -7 -20 -15 0 -8 9 -15 20 -15 11 0
20 6 20 14 0 7 9 16 20 19 11 3 20 12 20 21 0 9 7 16 15 16 10 0 15 -11 15
-35 0 -28 4 -35 20 -35 13 0 20 7 20 20 0 13 7 20 20 20 13 0 20 -7 20 -20 0
-13 -7 -20 -20 -20 -13 0 -20 -7 -20 -20 0 -13 -7 -20 -20 -20 -13 0 -20 -7
-20 -20 0 -11 -7 -20 -15 -20 -8 0 -15 9 -15 20 0 11 7 20 15 20 8 0 15 9 15
20 0 13 -7 20 -20 20 -13 0 -20 -7 -20 -20 0 -18 -7 -20 -55 -20 l-55 0 0 36
c0 27 5 37 20 41 11 3 20 12 20 19 0 8 9 14 20 14 13 0 20 -7 20 -20z m6670 4
c0 -9 9 -18 20 -21 11 -3 20 -12 20 -19 0 -8 9 -14 20 -14 17 0 20 -7 20 -40
0 -29 4 -40 15 -40 8 0 15 -7 15 -16 0 -9 9 -18 20 -21 11 -3 20 -12 20 -19 0
-10 13 -14 40 -14 33 0 40 -3 40 -20 0 -13 -7 -20 -20 -20 -13 0 -20 -7 -20
-20 0 -18 -7 -20 -55 -20 -42 0 -55 -3 -55 -15 0 -11 -11 -15 -36 -15 -27 0
-37 -5 -41 -20 -5 -17 -14 -20 -59 -20 -47 0 -54 -2 -54 -20 0 -13 -7 -20 -20
-20 -13 0 -20 7 -20 20 0 13 -7 20 -20 20 -16 0 -20 7 -20 35 0 24 -5 35 -15
35 -11 0 -15 11 -15 36 0 27 -5 37 -20 41 -11 3 -20 12 -20 19 0 8 -7 14 -16
14 -9 0 -18 9 -21 19 -3 11 -13 21 -24 24 -25 7 -25 37 1 37 13 0 20 7 20 20
0 18 7 20 60 20 47 0 60 3 60 15 0 11 12 15 51 15 42 0 52 3 56 20 7 26 73 30
73 4z m230 -4 c0 -22 -3 -23 -49 -14 -46 10 -40 34 9 34 33 0 40 -3 40 -20z
m-7052 -33 c2 -12 -3 -17 -17 -17 -15 0 -21 6 -21 21 0 25 33 22 38 -4z m642
-2 c0 -8 -9 -15 -20 -15 -11 0 -20 7 -20 15 0 8 9 15 20 15 11 0 20 -7 20 -15z
m-870 -35 c0 -11 -7 -20 -15 -20 -8 0 -15 9 -15 20 0 11 7 20 15 20 8 0 15 -9
15 -20z m940 0 c0 -13 -7 -20 -20 -20 -13 0 -20 7 -20 20 0 13 7 20 20 20 13
0 20 -7 20 -20z m860 0 c0 -13 -7 -20 -20 -20 -19 0 -27 20 -13 33 13 14 33 6
33 -13z m-672 -37 c-5 -26 -38 -29 -38 -4 0 15 6 21 21 21 14 0 19 -5 17 -17z
m222 -4 c0 -25 -33 -22 -38 4 -2 12 3 17 17 17 15 0 21 -6 21 -21z m-820 -34
c0 -8 -9 -15 -20 -15 -11 0 -20 7 -20 15 0 8 9 15 20 15 11 0 20 -7 20 -15z
m6140 0 c0 -10 -10 -15 -30 -15 -20 0 -30 5 -30 15 0 10 10 15 30 15 20 0 30
-5 30 -15z m-5360 -40 c0 -8 -7 -15 -15 -15 -8 0 -15 7 -15 15 0 8 7 15 15 15
8 0 15 -7 15 -15z m420 0 c0 -8 7 -15 15 -15 8 0 15 -9 15 -20 0 -16 -7 -20
-35 -20 -33 0 -35 2 -35 35 0 28 4 35 20 35 11 0 20 -7 20 -15z m3600 0 c0
-10 11 -15 35 -15 28 0 35 -4 35 -20 0 -13 7 -20 20 -20 16 0 20 -7 20 -35 0
-28 -4 -35 -20 -35 -11 0 -20 7 -20 15 0 8 -7 15 -15 15 -8 0 -15 9 -15 20 0
13 -7 20 -20 20 -13 0 -20 7 -20 20 0 17 -7 20 -40 20 -29 0 -40 4 -40 15 0
11 11 15 40 15 29 0 40 -4 40 -15z m1270 0 c0 -11 -11 -15 -40 -15 -33 0 -40
-3 -40 -20 0 -17 -7 -20 -50 -20 -38 0 -50 4 -50 15 0 10 11 15 35 15 28 0 35
4 35 20 0 18 7 20 55 20 42 0 55 -3 55 -15z m-4722 -38 c2 -12 -3 -17 -17 -17
-15 0 -21 6 -21 21 0 25 33 22 38 -4z m72 -37 c0 -47 -3 -60 -15 -60 -22 0
-28 23 -21 75 5 29 12 45 22 45 11 0 14 -14 14 -60z m110 40 c0 -11 -7 -20
-15 -20 -11 0 -15 -11 -15 -40 0 -30 4 -40 16 -40 9 0 18 9 21 20 9 34 33 24
33 -14 0 -25 -5 -35 -20 -39 -11 -3 -20 -12 -20 -21 0 -13 12 -16 60 -16 53 0
60 -2 60 -20 0 -11 6 -20 14 -20 8 0 17 -15 20 -35 7 -34 36 -51 36 -20 0 12
13 15 55 15 42 0 55 -3 55 -15 0 -10 -11 -15 -35 -15 -28 0 -35 -4 -35 -20 0
-17 -7 -20 -40 -20 -33 0 -40 3 -40 20 0 11 -7 20 -15 20 -10 0 -15 11 -15 35
l0 35 -55 0 -55 0 0 -35 c0 -24 5 -35 15 -35 8 0 15 9 15 20 0 13 7 20 20 20
13 0 20 -7 20 -19 0 -10 -9 -21 -20 -24 -11 -3 -20 -12 -20 -21 0 -9 -8 -16
-20 -16 -13 0 -20 7 -20 20 0 11 -7 20 -15 20 -12 0 -15 15 -15 75 0 68 -2 75
-20 75 -13 0 -20 -7 -20 -20 0 -13 -7 -20 -20 -20 -13 0 -20 7 -20 20 0 13 7
20 20 20 18 0 20 7 20 55 0 48 2 55 20 55 13 0 20 7 20 20 0 11 7 20 15 20 8
0 15 -9 15 -20z m4730 -25 c0 -24 5 -35 15 -35 8 0 15 -7 15 -15 0 -8 -7 -15
-15 -15 -8 0 -15 -9 -15 -20 0 -18 -7 -20 -75 -20 -68 0 -75 -2 -75 -20 0 -18
7 -20 55 -20 42 0 55 -3 55 -15 0 -11 -11 -15 -40 -15 -33 0 -40 -3 -40 -20 0
-11 -7 -20 -15 -20 -10 0 -15 11 -15 35 l0 35 -60 0 c-47 0 -60 -3 -60 -15 0
-12 -17 -15 -90 -15 l-90 0 0 50 0 50 40 0 c33 0 40 3 40 20 0 18 7 20 55 20
48 0 55 2 55 20 0 18 7 20 75 20 60 0 75 3 75 15 0 12 13 15 55 15 l55 0 0
-35z m-6830 -15 c0 -11 -7 -20 -15 -20 -8 0 -15 9 -15 20 0 11 7 20 15 20 8 0
15 -9 15 -20z m6450 5 c0 -10 -11 -15 -35 -15 -24 0 -35 5 -35 15 0 10 11 15
35 15 24 0 35 -5 35 -15z m-4530 -45 c0 -13 -7 -20 -20 -20 -13 0 -20 7 -20
20 0 13 7 20 20 20 13 0 20 -7 20 -20z m410 -70 c0 -13 -7 -20 -20 -20 -19 0
-27 20 -13 33 13 14 33 6 33 -13z m3220 -20 c0 -29 -4 -40 -15 -40 -11 0 -15
11 -15 40 0 29 4 40 15 40 11 0 15 -11 15 -40z m-260 15 c0 -8 9 -15 20 -15
11 0 20 -7 20 -15 0 -8 -9 -15 -20 -15 -19 0 -20 -7 -20 -155 0 -148 1 -155
20 -155 32 0 23 -27 -11 -34 -35 -7 -49 -1 -49 20 0 8 -7 14 -15 14 -11 0 -15
11 -15 40 0 33 -3 40 -20 40 -19 0 -20 7 -20 110 0 103 1 110 20 110 13 0 20
7 20 20 0 13 7 20 20 20 11 0 20 7 20 15 0 8 7 15 15 15 8 0 15 -7 15 -15z
m1570 0 c0 -8 -7 -15 -15 -15 -8 0 -15 7 -15 15 0 8 7 15 15 15 8 0 15 -7 15
-15z m40 -30 c0 -8 -7 -15 -15 -15 -8 0 -15 7 -15 15 0 8 7 15 15 15 8 0 15
-7 15 -15z m-940 -45 c0 -13 7 -20 20 -20 16 0 20 -7 20 -35 0 -24 -5 -35 -15
-35 -8 0 -15 9 -15 20 0 16 -7 20 -35 20 -33 0 -35 2 -35 35 0 32 2 35 30 35
23 0 30 -4 30 -20z m-3740 -90 c0 -33 -3 -40 -20 -40 -17 0 -20 7 -20 40 0 33
3 40 20 40 17 0 20 -7 20 -40z m3860 0 c0 -20 -5 -30 -15 -30 -10 0 -15 10
-15 30 0 20 5 30 15 30 10 0 15 -10 15 -30z m-3710 -75 c0 -33 2 -35 35 -35
34 0 35 -1 35 -41 l0 -40 37 3 c27 2 39 8 41 21 2 12 -3 17 -17 17 -14 0 -21
6 -21 20 0 18 7 20 55 20 42 0 55 3 55 15 0 8 9 15 20 15 11 0 20 -6 20 -14 0
-7 9 -16 20 -19 15 -4 20 -14 20 -41 0 -29 -4 -36 -20 -36 -17 0 -20 7 -20 40
0 33 -3 40 -20 40 -13 0 -20 -7 -20 -20 0 -11 -7 -20 -15 -20 -8 0 -15 -9 -15
-20 0 -11 7 -20 15 -20 8 0 15 -7 15 -15 0 -8 9 -15 20 -15 13 0 20 -7 20 -19
0 -10 -9 -21 -20 -24 -11 -3 -20 -12 -20 -21 0 -9 8 -16 20 -16 13 0 20 -7 20
-20 0 -13 7 -20 20 -20 13 0 20 7 20 20 0 11 7 20 15 20 8 0 15 9 15 20 0 11
-7 20 -15 20 -8 0 -15 9 -15 20 0 11 7 20 15 20 8 0 15 7 15 15 0 8 9 15 20
15 13 0 20 -7 20 -20 0 -16 7 -20 36 -20 27 0 37 5 41 20 9 35 33 24 33 -15 0
-28 4 -35 20 -35 19 0 20 -7 20 -95 0 -78 -3 -95 -15 -95 -8 0 -15 9 -15 20 0
13 -7 20 -20 20 -11 0 -20 7 -20 15 0 8 -9 15 -20 15 -16 0 -20 -7 -20 -35 0
-28 -4 -35 -20 -35 -17 0 -20 7 -20 39 l0 38 -55 0 c-47 0 -55 -3 -55 -18 0
-12 -7 -19 -20 -19 -16 0 -20 7 -20 35 0 23 -5 35 -14 35 -9 0 -17 15 -21 40
-4 23 -12 40 -20 40 -7 0 -15 9 -18 20 -3 11 -12 20 -21 20 -9 0 -16 -8 -16
-20 0 -16 -7 -20 -35 -20 -24 0 -35 5 -35 15 0 8 7 15 15 15 8 0 15 9 15 20 0
13 -7 20 -20 20 -11 0 -20 -7 -20 -15 0 -8 -7 -15 -15 -15 -8 0 -15 7 -15 15
0 11 -11 15 -40 15 -28 0 -40 -4 -40 -14 0 -9 15 -17 40 -21 25 -4 40 -12 40
-21 0 -10 -12 -14 -40 -14 -29 0 -40 4 -40 15 0 8 -7 15 -15 15 -8 0 -15 4
-15 9 0 5 -3 23 -6 40 -6 27 -4 31 15 31 14 0 21 6 21 20 0 14 -7 20 -21 20
-25 0 -22 33 4 38 12 2 17 -3 17 -17 0 -14 6 -21 20 -21 16 0 20 7 20 35 0 28
4 35 20 35 16 0 20 -7 20 -35z m180 15 c0 -18 -7 -20 -55 -20 -48 0 -55 2 -55
20 0 18 7 20 55 20 48 0 55 -2 55 -20z m-30 -240 c0 -29 4 -40 15 -40 8 0 15
-7 15 -15 0 -8 -7 -15 -15 -15 -8 0 -15 7 -15 15 0 8 -9 15 -20 15 -17 0 -20
7 -20 40 0 33 3 40 20 40 17 0 20 -7 20 -40z m150 20 c0 -13 -7 -20 -20 -20
-13 0 -20 7 -20 20 0 13 7 20 20 20 13 0 20 -7 20 -20z m298 -3 c2 -12 -3 -17
-17 -17 -15 0 -21 6 -21 21 0 25 33 22 38 -4z m32 -81 c0 -13 3 -38 6 -55 6
-27 4 -31 -15 -31 -17 0 -21 6 -21 35 0 28 -4 35 -20 35 -13 0 -20 7 -20 20 0
16 7 20 35 20 30 0 35 -3 35 -24z m150 -66 c0 -13 7 -20 20 -20 13 0 20 -7 20
-20 0 -17 7 -20 40 -20 39 0 40 -1 40 -34 0 -29 -4 -34 -31 -40 -35 -7 -49 -1
-49 20 0 9 -11 14 -35 14 -28 0 -35 4 -35 20 0 11 7 20 15 20 8 0 15 9 15 20
0 16 -7 20 -35 20 -28 0 -35 4 -35 20 0 16 7 20 35 20 28 0 35 -4 35 -20z
m190 -95 c0 -28 4 -35 20 -35 11 0 20 7 20 15 0 8 9 15 20 15 16 0 20 -7 20
-35 0 -33 2 -35 34 -35 25 0 35 5 39 20 3 11 12 20 21 20 9 0 16 -8 16 -20 0
-13 -7 -20 -20 -20 -13 0 -20 -7 -20 -20 0 -13 7 -20 20 -20 11 0 20 -7 20
-15 0 -10 -11 -15 -35 -15 -24 0 -35 5 -35 15 0 8 -9 15 -20 15 -11 0 -20 -7
-20 -15 0 -8 -9 -15 -20 -15 -11 0 -20 6 -20 14 0 7 -9 16 -20 19 -11 3 -20
12 -20 21 0 10 -8 16 -21 16 -19 0 -21 4 -15 31 3 17 6 42 6 55 0 15 6 24 15
24 10 0 15 -11 15 -35z m340 -130 c0 -8 -9 -15 -20 -15 -11 0 -20 7 -20 15 0
8 9 15 20 15 11 0 20 -7 20 -15z"/>
<path d="M2440 4860 c0 -16 7 -20 35 -20 28 0 35 4 35 20 0 16 -7 20 -35 20
-28 0 -35 -4 -35 -20z"/>
<path d="M2550 4861 c0 -18 6 -21 41 -21 33 0 40 3 37 18 -2 12 -14 18 -41 20
-32 3 -37 0 -37 -17z"/>
<path d="M2660 4860 c0 -17 7 -20 40 -20 33 0 40 3 40 20 0 17 -7 20 -40 20
-33 0 -40 -3 -40 -20z"/>
<path d="M2777 4873 c-19 -19 -5 -33 33 -33 33 0 40 3 40 20 0 16 -7 20 -33
20 -19 0 -37 -3 -40 -7z"/>
<path d="M2440 4780 c0 -16 7 -20 35 -20 28 0 35 4 35 20 0 16 -7 20 -35 20
-28 0 -35 -4 -35 -20z"/>
<path d="M2550 4780 c0 -17 7 -20 40 -20 33 0 40 3 40 20 0 17 -7 20 -40 20
-33 0 -40 -3 -40 -20z"/>
<path d="M2660 4780 c0 -17 7 -20 40 -20 33 0 40 3 40 20 0 17 -7 20 -40 20
-33 0 -40 -3 -40 -20z"/>
<path d="M2770 4780 c0 -17 7 -20 40 -20 33 0 40 3 40 20 0 17 -7 20 -40 20
-33 0 -40 -3 -40 -20z"/>
<path d="M2440 4710 c0 -16 7 -20 35 -20 28 0 35 4 35 20 0 16 -7 20 -35 20
-28 0 -35 -4 -35 -20z"/>
<path d="M2550 4711 c0 -18 6 -21 41 -21 33 0 40 3 37 18 -2 12 -14 18 -41 20
-32 3 -37 0 -37 -17z"/>
<path d="M2660 4710 c0 -17 7 -20 40 -20 33 0 40 3 40 20 0 17 -7 20 -40 20
-33 0 -40 -3 -40 -20z"/>
<path d="M2777 4723 c-19 -19 -5 -33 33 -33 33 0 40 3 40 20 0 16 -7 20 -33
20 -19 0 -37 -3 -40 -7z"/>
<path d="M2440 4630 c0 -16 7 -20 35 -20 28 0 35 4 35 20 0 16 -7 20 -35 20
-28 0 -35 -4 -35 -20z"/>
<path d="M2550 4630 c0 -17 7 -20 40 -20 33 0 40 3 40 20 0 17 -7 20 -40 20
-33 0 -40 -3 -40 -20z"/>
<path d="M2660 4630 c0 -17 7 -20 40 -20 33 0 40 3 40 20 0 17 -7 20 -40 20
-33 0 -40 -3 -40 -20z"/>
<path d="M2770 4630 c0 -17 7 -20 40 -20 33 0 40 3 40 20 0 17 -7 20 -40 20
-33 0 -40 -3 -40 -20z"/>
<path d="M2440 4560 c0 -16 7 -20 35 -20 28 0 35 4 35 20 0 16 -7 20 -35 20
-28 0 -35 -4 -35 -20z"/>
<path d="M2550 4561 c0 -18 6 -21 41 -21 33 0 40 3 37 18 -2 12 -14 18 -41 20
-32 3 -37 0 -37 -17z"/>
<path d="M2660 4560 c0 -17 7 -20 40 -20 33 0 40 3 40 20 0 17 -7 20 -40 20
-33 0 -40 -3 -40 -20z"/>
<path d="M2777 4573 c-19 -19 -5 -33 33 -33 33 0 40 3 40 20 0 16 -7 20 -33
20 -19 0 -37 -3 -40 -7z"/>
<path d="M2440 4480 c0 -16 7 -20 35 -20 28 0 35 4 35 20 0 16 -7 20 -35 20
-28 0 -35 -4 -35 -20z"/>
<path d="M2550 4480 c0 -17 7 -20 40 -20 33 0 40 3 40 20 0 17 -7 20 -40 20
-33 0 -40 -3 -40 -20z"/>
<path d="M2660 4480 c0 -17 7 -20 40 -20 33 0 40 3 40 20 0 17 -7 20 -40 20
-33 0 -40 -3 -40 -20z"/>
<path d="M2770 4480 c0 -17 7 -20 40 -20 33 0 40 3 40 20 0 17 -7 20 -40 20
-33 0 -40 -3 -40 -20z"/>
<path d="M2440 4410 c0 -16 7 -20 35 -20 28 0 35 4 35 20 0 16 -7 20 -35 20
-28 0 -35 -4 -35 -20z"/>
<path d="M2550 4411 c0 -18 6 -21 41 -21 33 0 40 3 37 18 -2 12 -14 18 -41 20
-32 3 -37 0 -37 -17z"/>
<path d="M2660 4410 c0 -17 7 -20 40 -20 33 0 40 3 40 20 0 17 -7 20 -40 20
-33 0 -40 -3 -40 -20z"/>
<path d="M2777 4423 c-19 -19 -5 -33 33 -33 33 0 40 3 40 20 0 16 -7 20 -33
20 -19 0 -37 -3 -40 -7z"/>
<path d="M11062 4483 c2 -13 13 -18 38 -18 25 0 36 5 38 18 3 14 -4 17 -38 17
-34 0 -41 -3 -38 -17z"/>
<path d="M11180 4480 c0 -16 7 -20 35 -20 28 0 35 4 35 20 0 16 -7 20 -35 20
-28 0 -35 -4 -35 -20z"/>
<path d="M11060 4405 c0 -11 11 -15 40 -15 29 0 40 4 40 15 0 11 -11 15 -40
15 -29 0 -40 -4 -40 -15z"/>
<path d="M11180 4405 c0 -10 11 -15 35 -15 24 0 35 5 35 15 0 10 -11 15 -35
15 -24 0 -35 -5 -35 -15z"/>
<path d="M10470 4050 c0 -20 5 -30 15 -30 8 0 15 -9 15 -20 0 -16 7 -20 35
-20 28 0 35 4 35 20 0 13 7 20 20 20 16 0 20 7 20 30 0 28 -3 30 -35 30 -24 0
-35 -5 -35 -15 0 -8 -9 -15 -20 -15 -11 0 -20 7 -20 15 0 8 -7 15 -15 15 -10
0 -15 -10 -15 -30z"/>
<path d="M10650 4045 c0 -24 -5 -35 -15 -35 -8 0 -15 -7 -15 -15 0 -11 12 -15
50 -15 38 0 50 4 50 15 0 8 -9 15 -20 15 -13 0 -20 7 -20 20 0 13 7 20 20 20
11 0 20 7 20 15 0 10 -11 15 -35 15 -33 0 -35 -2 -35 -35z"/>
<path d="M10770 4030 c0 -49 1 -50 30 -50 29 0 30 1 30 50 0 49 -1 50 -30 50
-29 0 -30 -1 -30 -50z"/>
<path d="M10880 4065 c0 -8 7 -15 15 -15 8 0 15 7 15 15 0 8 -7 15 -15 15 -8
0 -15 -7 -15 -15z"/>
<path d="M10950 4065 c0 -8 -7 -15 -15 -15 -8 0 -15 -7 -15 -15 0 -8 7 -15 15
-15 8 0 15 7 15 15 0 8 9 15 20 15 11 0 20 -7 20 -15 0 -8 9 -15 20 -15 13 0
20 -7 20 -20 0 -11 7 -20 15 -20 11 0 15 12 15 50 l0 50 -55 0 c-42 0 -55 -3
-55 -15z"/>
<path d="M10880 3995 c0 -8 7 -15 15 -15 8 0 15 7 15 15 0 8 -7 15 -15 15 -8
0 -15 -7 -15 -15z"/>
<path d="M10950 3995 c0 -8 7 -15 15 -15 8 0 15 7 15 15 0 8 -7 15 -15 15 -8
0 -15 -7 -15 -15z"/>
<path d="M10650 3915 c0 -8 9 -15 20 -15 16 0 20 -7 20 -35 0 -24 5 -35 15
-35 10 0 15 11 15 35 0 34 1 35 40 35 29 0 40 -4 40 -15 0 -8 7 -15 15 -15 8
0 15 7 15 15 0 8 9 15 20 15 11 0 20 7 20 15 0 12 -19 15 -110 15 -91 0 -110
-3 -110 -15z"/>
<path d="M10880 3885 c0 -8 7 -15 15 -15 8 0 15 7 15 15 0 8 -7 15 -15 15 -8
0 -15 -7 -15 -15z"/>
<path d="M10840 3845 c0 -8 7 -15 15 -15 8 0 15 7 15 15 0 8 -7 15 -15 15 -8
0 -15 -7 -15 -15z"/>
<path d="M10470 3765 c0 -8 7 -15 15 -15 8 0 15 -7 15 -15 0 -8 9 -15 20 -15
13 0 20 -7 20 -20 0 -11 7 -20 15 -20 8 0 15 9 15 20 0 13 7 20 20 20 16 0 20
7 20 30 0 28 -3 30 -35 30 -24 0 -35 -5 -35 -15 0 -8 -9 -15 -20 -15 -11 0
-20 7 -20 15 0 8 -7 15 -15 15 -8 0 -15 -7 -15 -15z"/>
<path d="M10650 3745 c0 -24 -5 -35 -15 -35 -8 0 -15 -7 -15 -15 0 -11 12 -15
50 -15 43 0 50 3 50 20 0 13 7 20 20 20 11 0 20 7 20 15 0 8 -9 15 -20 15 -11
0 -20 7 -20 15 0 10 -11 15 -35 15 -33 0 -35 -2 -35 -35z"/>
<path d="M10770 3765 c0 -8 7 -15 15 -15 8 0 15 -9 15 -20 0 -11 -7 -20 -15
-20 -8 0 -15 -7 -15 -15 0 -10 10 -15 30 -15 29 0 30 1 30 50 0 49 -1 50 -30
50 -20 0 -30 -5 -30 -15z"/>
<path d="M10920 3765 c0 -8 7 -15 15 -15 8 0 15 -7 15 -15 0 -8 9 -15 20 -15
13 0 20 -7 20 -20 0 -11 7 -20 15 -20 8 0 15 9 15 20 0 15 7 20 25 20 18 0 25
-5 25 -20 0 -11 7 -20 15 -20 11 0 15 12 15 50 0 38 -4 50 -15 50 -8 0 -15 -7
-15 -15 0 -9 -9 -15 -25 -15 -16 0 -25 6 -25 15 0 8 -7 15 -15 15 -8 0 -15 -7
-15 -15 0 -8 -9 -15 -20 -15 -11 0 -20 7 -20 15 0 8 -7 15 -15 15 -8 0 -15 -7
-15 -15z"/>
<path d="M10430 3735 c0 -8 7 -15 15 -15 8 0 15 7 15 15 0 8 -7 15 -15 15 -8
0 -15 -7 -15 -15z"/>
<path d="M10880 3735 c0 -8 7 -15 15 -15 8 0 15 7 15 15 0 8 -7 15 -15 15 -8
0 -15 -7 -15 -15z"/>
<path d="M10470 3695 c0 -8 7 -15 15 -15 8 0 15 7 15 15 0 8 -7 15 -15 15 -8
0 -15 -7 -15 -15z"/>
<path d="M10920 3695 c0 -8 7 -15 15 -15 8 0 15 7 15 15 0 8 -7 15 -15 15 -8
0 -15 -7 -15 -15z"/>
<path d="M860 3920 c0 -13 7 -20 20 -20 13 0 20 7 20 20 0 13 -7 20 -20 20
-13 0 -20 -7 -20 -20z"/>
<path d="M937 3933 c-16 -15 -6 -33 18 -33 18 0 25 5 25 20 0 20 -28 28 -43
13z"/>
<path d="M1010 3920 c0 -13 7 -20 20 -20 13 0 20 7 20 20 0 13 -7 20 -20 20
-13 0 -20 -7 -20 -20z"/>
<path d="M867 3863 c-15 -15 -7 -43 13 -43 15 0 20 7 20 25 0 24 -18 34 -33
18z"/>
<path d="M934 3856 c-8 -21 3 -36 27 -36 15 0 20 6 17 22 -4 27 -35 37 -44 14z"/>
<path d="M1017 3863 c-15 -15 -7 -43 13 -43 15 0 20 7 20 25 0 24 -18 34 -33
18z"/>
<path d="M1084 3856 c-8 -21 3 -36 27 -36 15 0 20 6 17 22 -4 27 -35 37 -44
14z"/>
<path d="M860 3770 c0 -13 7 -20 20 -20 13 0 20 7 20 20 0 13 -7 20 -20 20
-13 0 -20 -7 -20 -20z"/>
<path d="M937 3783 c-16 -15 -6 -33 18 -33 18 0 25 5 25 20 0 20 -28 28 -43
13z"/>
<path d="M1010 3770 c0 -13 7 -20 20 -20 13 0 20 7 20 20 0 13 -7 20 -20 20
-13 0 -20 -7 -20 -20z"/>
<path d="M1087 3783 c-16 -15 -6 -33 18 -33 18 0 25 5 25 20 0 20 -28 28 -43
13z"/>
<path d="M8434 3855 c-10 -24 9 -37 47 -33 26 2 34 8 34 23 0 16 -8 21 -38 23
-27 2 -39 -1 -43 -13z"/>
<path d="M370 3621 c0 -16 6 -21 26 -21 33 0 30 33 -4 38 -17 3 -22 -2 -22
-17z"/>
<path d="M450 3620 c0 -13 7 -20 20 -20 13 0 20 7 20 20 0 13 -7 20 -20 20
-13 0 -20 -7 -20 -20z"/>
<path d="M520 3621 c0 -16 6 -21 26 -21 33 0 30 33 -4 38 -17 3 -22 -2 -22
-17z"/>
<path d="M377 3564 c-4 -4 -7 -16 -7 -26 0 -14 6 -19 23 -16 14 2 22 10 22 23
0 20 -25 32 -38 19z"/>
<path d="M450 3546 c0 -20 5 -26 21 -26 15 0 20 5 17 22 -5 34 -38 37 -38 4z"/>
<path d="M370 3471 c0 -16 6 -21 26 -21 33 0 30 33 -4 38 -17 3 -22 -2 -22
-17z"/>
<path d="M2100 3390 c0 -20 7 -20 300 -20 293 0 300 0 300 20 0 20 -7 20 -300
20 -293 0 -300 0 -300 -20z"/>
<path d="M2100 3280 c0 -20 7 -20 375 -20 368 0 375 0 375 20 0 20 -7 20 -375
20 -368 0 -375 0 -375 -20z"/>
<path d="M2590 3095 c0 -8 7 -15 15 -15 8 0 15 7 15 15 0 8 -7 15 -15 15 -8 0
-15 -7 -15 -15z"/>
<path d="M2664 3040 c6 -38 5 -40 -19 -40 -16 0 -25 6 -25 15 0 10 -11 15 -35
15 -33 0 -35 -2 -35 -35 0 -24 -5 -35 -15 -35 -8 0 -15 -7 -15 -15 0 -8 7 -15
15 -15 8 0 15 -9 15 -20 0 -18 7 -20 75 -20 60 0 75 3 75 15 0 8 -9 15 -20 15
-14 0 -20 7 -20 21 0 12 8 23 20 26 11 3 20 12 20 19 0 8 9 14 20 14 11 0 20
-7 20 -15 0 -8 7 -15 15 -15 8 0 15 7 15 15 0 8 -7 15 -15 15 -8 0 -15 9 -15
20 0 19 7 20 150 20 143 0 150 1 150 20 0 19 -7 20 -191 20 l-192 0 7 -40z"/>
<path d="M2772 2943 c3 -16 18 -18 153 -18 135 0 150 2 153 18 3 16 -9 17
-153 17 -144 0 -156 -1 -153 -17z"/>
<path d="M2890 2870 c0 -11 7 -20 15 -20 8 0 15 9 15 20 0 11 -7 20 -15 20 -8
0 -15 -9 -15 -20z"/>
<path d="M2780 2835 c0 -8 7 -15 15 -15 8 0 15 7 15 15 0 8 -7 15 -15 15 -8 0
-15 -7 -15 -15z"/>
<path d="M2960 2830 c0 -18 7 -20 60 -20 53 0 60 2 60 20 0 18 -7 20 -60 20
-53 0 -60 -2 -60 -20z"/>
<path d="M2890 2795 c0 -8 7 -15 15 -15 8 0 15 7 15 15 0 8 -7 15 -15 15 -8 0
-15 -7 -15 -15z"/>
<path d="M3000 2715 c0 -8 7 -15 15 -15 8 0 15 7 15 15 0 8 -7 15 -15 15 -8 0
-15 -7 -15 -15z"/>
<path d="M10500 3470 c0 -13 7 -20 20 -20 13 0 20 7 20 20 0 13 -7 20 -20 20
-13 0 -20 -7 -20 -20z"/>
<path d="M10760 3375 c0 -28 4 -35 20 -35 16 0 20 7 20 35 0 28 -4 35 -20 35
-16 0 -20 -7 -20 -35z"/>
<path d="M1240 3280 c0 -13 7 -20 20 -20 13 0 20 7 20 20 0 13 -7 20 -20 20
-13 0 -20 -7 -20 -20z"/>
<path d="M1160 3210 c0 -13 7 -20 20 -20 13 0 20 7 20 20 0 13 -7 20 -20 20
-13 0 -20 -7 -20 -20z"/>
<path d="M1240 3211 c0 -15 6 -21 21 -21 14 0 19 5 17 17 -5 26 -38 29 -38 4z"/>
<path d="M1310 3210 c0 -13 7 -20 20 -20 13 0 20 7 20 20 0 13 -7 20 -20 20
-13 0 -20 -7 -20 -20z"/>
<path d="M1160 3130 c0 -13 7 -20 20 -20 13 0 20 7 20 20 0 13 -7 20 -20 20
-13 0 -20 -7 -20 -20z"/>
<path d="M1240 3130 c0 -13 7 -20 20 -20 13 0 20 7 20 20 0 13 -7 20 -20 20
-13 0 -20 -7 -20 -20z"/>
<path d="M1310 3130 c0 -13 7 -20 20 -20 13 0 20 7 20 20 0 13 -7 20 -20 20
-13 0 -20 -7 -20 -20z"/>
<path d="M1390 3130 c0 -13 7 -20 20 -20 13 0 20 7 20 20 0 13 -7 20 -20 20
-13 0 -20 -7 -20 -20z"/>
<path d="M1240 3061 c0 -15 6 -21 21 -21 14 0 19 5 17 17 -5 26 -38 29 -38 4z"/>
<path d="M1310 3060 c0 -13 7 -20 20 -20 13 0 20 7 20 20 0 13 -7 20 -20 20
-13 0 -20 -7 -20 -20z"/>
<path d="M1390 3061 c0 -15 6 -21 21 -21 25 0 22 33 -4 38 -12 2 -17 -3 -17
-17z"/>
<path d="M1240 2980 c0 -13 7 -20 20 -20 13 0 20 7 20 20 0 13 -7 20 -20 20
-13 0 -20 -7 -20 -20z"/>
<path d="M1310 2980 c0 -13 7 -20 20 -20 13 0 20 7 20 20 0 13 -7 20 -20 20
-13 0 -20 -7 -20 -20z"/>
<path d="M1390 2980 c0 -13 7 -20 20 -20 13 0 20 7 20 20 0 13 -7 20 -20 20
-13 0 -20 -7 -20 -20z"/>
<path d="M1460 2980 c0 -13 7 -20 20 -20 13 0 20 7 20 20 0 13 -7 20 -20 20
-13 0 -20 -7 -20 -20z"/>
<path d="M1572 2943 c5 -26 38 -29 38 -4 0 15 -6 21 -21 21 -14 0 -19 -5 -17
-17z"/>
<path d="M1160 2910 c0 -13 7 -20 20 -20 13 0 20 7 20 20 0 13 -7 20 -20 20
-13 0 -20 -7 -20 -20z"/>
<path d="M1240 2911 c0 -15 6 -21 21 -21 25 0 22 33 -4 38 -12 2 -17 -3 -17
-17z"/>
<path d="M1310 2910 c0 -13 7 -20 20 -20 13 0 20 7 20 20 0 13 -7 20 -20 20
-13 0 -20 -7 -20 -20z"/>
<path d="M1390 2911 c0 -15 6 -21 21 -21 25 0 22 33 -4 38 -12 2 -17 -3 -17
-17z"/>
<path d="M1460 2910 c0 -13 7 -20 20 -20 13 0 20 7 20 20 0 13 -7 20 -20 20
-13 0 -20 -7 -20 -20z"/>
<path d="M1570 2870 c0 -13 7 -20 20 -20 13 0 20 7 20 20 0 13 -7 20 -20 20
-13 0 -20 -7 -20 -20z"/>
<path d="M1160 2830 c0 -13 7 -20 20 -20 13 0 20 7 20 20 0 13 -7 20 -20 20
-13 0 -20 -7 -20 -20z"/>
<path d="M1240 2830 c0 -13 7 -20 20 -20 13 0 20 7 20 20 0 13 -7 20 -20 20
-13 0 -20 -7 -20 -20z"/>
<path d="M1310 2830 c0 -13 7 -20 20 -20 13 0 20 7 20 20 0 13 -7 20 -20 20
-13 0 -20 -7 -20 -20z"/>
<path d="M1390 2830 c0 -13 7 -20 20 -20 13 0 20 7 20 20 0 13 -7 20 -20 20
-13 0 -20 -7 -20 -20z"/>
<path d="M1460 2830 c0 -13 7 -20 20 -20 13 0 20 7 20 20 0 13 -7 20 -20 20
-13 0 -20 -7 -20 -20z"/>
<path d="M1572 2793 c5 -26 38 -29 38 -4 0 15 -6 21 -21 21 -14 0 -19 -5 -17
-17z"/>
<path d="M1160 2760 c0 -13 7 -20 20 -20 13 0 20 7 20 20 0 13 -7 20 -20 20
-13 0 -20 -7 -20 -20z"/>
<path d="M1240 2761 c0 -15 6 -21 21 -21 14 0 19 5 17 17 -5 26 -38 29 -38 4z"/>
<path d="M1310 2760 c0 -13 7 -20 20 -20 13 0 20 7 20 20 0 13 -7 20 -20 20
-13 0 -20 -7 -20 -20z"/>
<path d="M1390 2761 c0 -15 6 -21 21 -21 14 0 19 5 17 17 -5 26 -38 29 -38 4z"/>
<path d="M1460 2760 c0 -13 7 -20 20 -20 13 0 20 7 20 20 0 13 -7 20 -20 20
-13 0 -20 -7 -20 -20z"/>
<path d="M1570 2720 c0 -13 7 -20 20 -20 13 0 20 7 20 20 0 13 -7 20 -20 20
-13 0 -20 -7 -20 -20z"/>
<path d="M1160 2680 c0 -13 7 -20 20 -20 13 0 20 7 20 20 0 13 -7 20 -20 20
-13 0 -20 -7 -20 -20z"/>
<path d="M1240 2680 c0 -13 7 -20 20 -20 13 0 20 7 20 20 0 13 -7 20 -20 20
-13 0 -20 -7 -20 -20z"/>
<path d="M1310 2680 c0 -13 7 -20 20 -20 13 0 20 7 20 20 0 13 -7 20 -20 20
-13 0 -20 -7 -20 -20z"/>
<path d="M1390 2680 c0 -13 7 -20 20 -20 13 0 20 7 20 20 0 13 -7 20 -20 20
-13 0 -20 -7 -20 -20z"/>
<path d="M1460 2680 c0 -13 7 -20 20 -20 13 0 20 7 20 20 0 13 -7 20 -20 20
-13 0 -20 -7 -20 -20z"/>
<path d="M1572 2643 c5 -26 38 -29 38 -4 0 15 -6 21 -21 21 -14 0 -19 -5 -17
-17z"/>
<path d="M1160 2610 c0 -13 7 -20 20 -20 13 0 20 7 20 20 0 13 -7 20 -20 20
-13 0 -20 -7 -20 -20z"/>
<path d="M1240 2611 c0 -15 6 -21 21 -21 14 0 19 5 17 17 -5 26 -38 29 -38 4z"/>
<path d="M1310 2610 c0 -13 7 -20 20 -20 13 0 20 7 20 20 0 13 -7 20 -20 20
-13 0 -20 -7 -20 -20z"/>
<path d="M1390 2611 c0 -15 6 -21 21 -21 25 0 22 33 -4 38 -12 2 -17 -3 -17
-17z"/>
<path d="M1460 2610 c0 -13 7 -20 20 -20 13 0 20 7 20 20 0 13 -7 20 -20 20
-13 0 -20 -7 -20 -20z"/>
<path d="M1570 2570 c0 -13 7 -20 20 -20 13 0 20 7 20 20 0 13 -7 20 -20 20
-13 0 -20 -7 -20 -20z"/>
<path d="M1160 2530 c0 -13 7 -20 20 -20 13 0 20 7 20 20 0 13 -7 20 -20 20
-13 0 -20 -7 -20 -20z"/>
<path d="M1240 2530 c0 -13 7 -20 20 -20 13 0 20 7 20 20 0 13 -7 20 -20 20
-13 0 -20 -7 -20 -20z"/>
<path d="M1310 2530 c0 -13 7 -20 20 -20 13 0 20 7 20 20 0 13 -7 20 -20 20
-13 0 -20 -7 -20 -20z"/>
<path d="M1390 2530 c0 -13 7 -20 20 -20 13 0 20 7 20 20 0 13 -7 20 -20 20
-13 0 -20 -7 -20 -20z"/>
<path d="M1460 2530 c0 -13 7 -20 20 -20 13 0 20 7 20 20 0 13 -7 20 -20 20
-13 0 -20 -7 -20 -20z"/>
<path d="M1572 2493 c5 -26 38 -29 38 -4 0 15 -6 21 -21 21 -14 0 -19 -5 -17
-17z"/>
<path d="M1240 2461 c0 -15 6 -21 21 -21 14 0 19 5 17 17 -5 26 -38 29 -38 4z"/>
<path d="M1310 2460 c0 -13 7 -20 20 -20 13 0 20 7 20 20 0 13 -7 20 -20 20
-13 0 -20 -7 -20 -20z"/>
<path d="M1390 2461 c0 -15 6 -21 21 -21 14 0 19 5 17 17 -5 26 -38 29 -38 4z"/>
<path d="M1460 2460 c0 -13 7 -20 20 -20 13 0 20 7 20 20 0 13 -7 20 -20 20
-13 0 -20 -7 -20 -20z"/>
<path d="M1570 2420 c0 -13 7 -20 20 -20 13 0 20 7 20 20 0 13 -7 20 -20 20
-13 0 -20 -7 -20 -20z"/>
<path d="M1310 2380 c0 -13 7 -20 20 -20 13 0 20 7 20 20 0 13 -7 20 -20 20
-13 0 -20 -7 -20 -20z"/>
<path d="M1390 2380 c0 -13 7 -20 20 -20 13 0 20 7 20 20 0 13 -7 20 -20 20
-13 0 -20 -7 -20 -20z"/>
<path d="M1460 2380 c0 -13 7 -20 20 -20 13 0 20 7 20 20 0 13 -7 20 -20 20
-13 0 -20 -7 -20 -20z"/>
<path d="M1572 2343 c5 -26 38 -29 38 -4 0 15 -6 21 -21 21 -14 0 -19 -5 -17
-17z"/>
<path d="M1460 2310 c0 -13 7 -20 20 -20 13 0 20 7 20 20 0 13 -7 20 -20 20
-13 0 -20 -7 -20 -20z"/>
<path d="M1570 2270 c0 -13 7 -20 20 -20 13 0 20 7 20 20 0 13 -7 20 -20 20
-13 0 -20 -7 -20 -20z"/>
<path d="M520 2940 c0 -13 7 -20 20 -20 13 0 20 7 20 20 0 13 -7 20 -20 20
-13 0 -20 -7 -20 -20z"/>
<path d="M600 2940 c0 -13 7 -20 20 -20 13 0 20 7 20 20 0 13 -7 20 -20 20
-13 0 -20 -7 -20 -20z"/>
<path d="M672 2943 c5 -26 38 -29 38 -4 0 15 -6 21 -21 21 -14 0 -19 -5 -17
-17z"/>
<path d="M750 2940 c0 -13 7 -20 20 -20 13 0 20 7 20 20 0 13 -7 20 -20 20
-13 0 -20 -7 -20 -20z"/>
<path d="M600 2870 c0 -13 7 -20 20 -20 13 0 20 7 20 20 0 13 -7 20 -20 20
-13 0 -20 -7 -20 -20z"/>
<path d="M670 2870 c0 -13 7 -20 20 -20 13 0 20 7 20 20 0 13 -7 20 -20 20
-13 0 -20 -7 -20 -20z"/>
<path d="M2780 505 c0 -8 7 -15 15 -15 8 0 15 7 15 15 0 8 -7 15 -15 15 -8 0
-15 -7 -15 -15z"/>
<path d="M2967 483 c-14 -13 -6 -33 13 -33 13 0 20 7 20 20 0 19 -20 27 -33
13z"/>
<path d="M3040 430 c0 -11 7 -20 15 -20 8 0 15 9 15 20 0 11 -7 20 -15 20 -8
0 -15 -9 -15 -20z"/>
<path d="M3600 130 c0 -13 7 -20 20 -20 13 0 20 7 20 20 0 13 -7 20 -20 20
-13 0 -20 -7 -20 -20z"/>
<path d="M337 6333 c-16 -15 -6 -33 18 -33 18 0 25 5 25 20 0 20 -28 28 -43
13z"/>
<path d="M377 6264 c-4 -4 -7 -16 -7 -26 0 -14 6 -19 23 -16 14 2 22 10 22 23
0 20 -25 32 -38 19z"/>
<path d="M672 6243 c5 -26 38 -29 38 -4 0 15 -6 21 -21 21 -14 0 -19 -5 -17
-17z"/>
<path d="M3490 6170 c0 -17 -7 -20 -40 -20 -33 0 -40 -3 -40 -20 0 -13 -7 -20
-20 -20 -11 0 -20 -7 -20 -15 0 -8 -7 -15 -15 -15 -8 0 -15 -9 -15 -20 0 -13
-7 -20 -20 -20 -13 0 -20 -7 -20 -20 0 -13 -7 -20 -20 -20 -19 0 -20 -7 -20
-170 0 -163 1 -170 20 -170 13 0 20 -7 20 -20 0 -13 7 -20 20 -20 16 0 20 -7
20 -35 0 -33 2 -35 35 -35 28 0 35 -4 35 -20 0 -13 7 -20 20 -20 13 0 20 -7
20 -20 0 -19 7 -20 166 -20 157 0 166 1 171 20 3 11 14 20 24 20 12 0 19 7 19
20 0 16 7 20 35 20 33 0 35 2 35 34 0 25 5 35 20 39 11 3 20 12 20 20 0 8 9
17 20 20 19 5 20 14 20 151 0 139 -1 146 -20 146 -17 0 -20 7 -20 40 0 33 -3
40 -20 40 -13 0 -20 7 -20 20 0 13 -7 20 -20 20 -11 0 -20 7 -20 15 0 8 -7 15
-15 15 -8 0 -15 9 -15 20 0 17 -7 20 -40 20 -33 0 -40 3 -40 20 0 19 -7 20
-130 20 -123 0 -130 -1 -130 -20z m220 -190 c0 -13 7 -20 20 -20 13 0 20 -7
20 -20 0 -13 7 -20 20 -20 16 0 20 -7 20 -35 0 -24 5 -35 15 -35 10 0 15 -11
15 -35 0 -24 -5 -35 -15 -35 -11 0 -15 -11 -15 -40 0 -33 -3 -40 -20 -40 -13
0 -20 -7 -20 -20 0 -17 -7 -20 -40 -20 -29 0 -40 -4 -40 -15 0 -12 -13 -15
-55 -15 -42 0 -55 3 -55 15 0 10 -11 15 -35 15 -28 0 -35 4 -35 20 0 13 -7 20
-20 20 -17 0 -20 7 -20 40 0 33 -3 40 -20 40 -16 0 -20 7 -20 35 0 28 4 35 20
35 16 0 20 7 20 35 0 25 4 35 16 35 9 0 18 9 21 20 3 11 14 20 24 20 12 0 19
7 19 20 0 19 7 20 90 20 83 0 90 -1 90 -20z"/>
<path d="M4090 5830 l0 -361 93 3 92 3 3 93 3 92 54 0 c48 0 55 -2 55 -20 0
-11 7 -20 15 -20 10 0 15 -11 15 -35 0 -28 4 -35 20 -35 13 0 20 -7 20 -20 0
-13 7 -20 20 -20 13 0 20 -7 20 -20 0 -20 5 -21 112 -18 98 3 113 5 116 21 2
12 -3 17 -17 17 -14 0 -21 6 -21 20 0 13 -7 20 -20 20 -13 0 -20 7 -20 20 0
13 -7 20 -20 20 -16 0 -20 7 -20 35 0 24 -5 35 -15 35 -8 0 -15 9 -15 20 0 11
7 20 15 20 8 0 15 9 15 20 0 13 7 20 20 20 11 0 20 6 20 14 0 7 9 16 20 19 15
4 20 14 20 41 0 29 4 36 20 36 18 0 20 7 20 75 0 68 -2 75 -20 75 -16 0 -20 7
-20 36 0 27 -5 37 -20 41 -11 3 -20 12 -20 19 0 8 -9 14 -20 14 -13 0 -20 7
-20 20 0 18 -7 20 -55 20 -48 0 -55 2 -55 20 0 19 -7 20 -205 20 l-205 0 0
-360z m370 150 c0 -17 7 -20 40 -20 l40 0 0 -55 0 -55 -40 0 c-33 0 -40 -3
-40 -20 0 -19 -7 -20 -90 -20 l-90 0 0 95 0 95 90 0 c83 0 90 -1 90 -20z"/>
<path d="M4840 5830 l0 -360 280 0 280 0 0 95 0 95 -185 0 -185 0 0 40 0 40
150 0 151 0 -3 73 -3 72 -147 3 -148 3 0 54 0 55 185 0 185 0 0 95 0 95 -280
0 -280 0 0 -360z"/>
<path d="M5700 6170 c0 -17 -7 -20 -40 -20 -33 0 -40 -3 -40 -20 0 -11 -7 -20
-15 -20 -8 0 -15 -7 -15 -15 0 -8 -9 -15 -20 -15 -13 0 -20 -7 -20 -20 0 -13
-7 -20 -20 -20 -13 0 -20 -7 -20 -20 0 -13 -7 -20 -20 -20 -19 0 -20 -7 -20
-170 0 -163 1 -170 20 -170 13 0 20 -7 20 -20 0 -13 7 -20 20 -20 16 0 20 -7
20 -35 0 -33 2 -35 35 -35 28 0 35 -4 35 -20 0 -13 7 -20 20 -20 13 0 20 -7
20 -20 0 -19 7 -20 150 -20 143 0 150 1 150 20 0 13 7 20 20 20 13 0 20 -7 20
-20 0 -18 7 -20 75 -20 l75 0 0 210 0 210 -170 0 -170 0 0 -75 0 -75 75 0 75
0 0 -40 c0 -39 -1 -40 -35 -40 -24 0 -35 -5 -35 -15 0 -12 -13 -15 -55 -15
-42 0 -55 3 -55 15 0 11 -11 15 -40 15 -33 0 -40 3 -40 20 0 13 -7 20 -20 20
-17 0 -20 7 -20 40 0 29 -4 40 -15 40 -10 0 -15 11 -15 35 0 24 5 35 15 35 12
0 15 13 15 55 l0 55 40 0 c33 0 40 3 40 20 0 19 7 20 90 20 83 0 90 -1 90 -20
0 -18 7 -20 60 -20 53 0 60 2 60 20 0 13 7 20 20 20 18 0 20 7 20 55 0 48 -2
55 -20 55 -13 0 -20 7 -20 20 0 17 -7 20 -40 20 -33 0 -40 3 -40 20 0 19 -7
20 -130 20 -123 0 -130 -1 -130 -20z"/>
<path d="M6490 6170 c0 -17 -7 -20 -40 -20 -33 0 -40 -3 -40 -20 0 -13 -7 -20
-20 -20 -11 0 -20 -7 -20 -15 0 -8 -7 -15 -15 -15 -8 0 -15 -9 -15 -20 0 -13
-7 -20 -20 -20 -13 0 -20 -7 -20 -20 0 -13 -7 -20 -20 -20 -19 0 -20 -7 -20
-170 0 -163 1 -170 20 -170 13 0 20 -7 20 -20 0 -13 7 -20 20 -20 16 0 20 -7
20 -35 0 -33 2 -35 35 -35 28 0 35 -4 35 -20 0 -13 7 -20 20 -20 13 0 20 -7
20 -20 0 -19 7 -20 166 -20 157 0 166 1 171 20 3 11 14 20 24 20 12 0 19 7 19
20 0 16 7 20 35 20 33 0 35 2 35 34 0 25 5 35 20 39 11 3 20 12 20 20 0 8 9
17 20 20 19 5 20 14 20 151 0 139 -1 146 -20 146 -17 0 -20 7 -20 40 0 33 -3
40 -20 40 -13 0 -20 7 -20 20 0 13 -7 20 -20 20 -11 0 -20 7 -20 15 0 8 -7 15
-15 15 -8 0 -15 9 -15 20 0 17 -7 20 -40 20 -33 0 -40 3 -40 20 0 19 -7 20
-130 20 -123 0 -130 -1 -130 -20z m220 -190 c0 -13 7 -20 20 -20 13 0 20 -7
20 -20 0 -13 7 -20 20 -20 16 0 20 -7 20 -35 0 -24 5 -35 15 -35 10 0 15 -11
15 -35 0 -24 -5 -35 -15 -35 -11 0 -15 -11 -15 -40 0 -33 -3 -40 -20 -40 -13
0 -20 -7 -20 -20 0 -17 -7 -20 -40 -20 -29 0 -40 -4 -40 -15 0 -12 -13 -15
-55 -15 -42 0 -55 3 -55 15 0 10 -11 15 -35 15 -28 0 -35 4 -35 20 0 13 -7 20
-20 20 -17 0 -20 7 -20 40 0 33 -3 40 -20 40 -16 0 -20 7 -20 35 0 28 4 35 20
35 16 0 20 7 20 35 0 25 4 35 16 35 9 0 18 9 21 20 3 11 14 20 24 20 12 0 19
7 19 20 0 19 7 20 90 20 83 0 90 -1 90 -20z"/>
<path d="M7090 5830 l0 -361 93 3 92 3 3 188 c2 157 5 187 17 187 8 0 15 -9
15 -20 0 -13 7 -20 20 -20 13 0 20 -7 20 -20 0 -13 7 -20 20 -20 16 0 20 -7
20 -35 0 -24 5 -35 15 -35 8 0 15 -9 15 -20 0 -13 7 -20 20 -20 13 0 20 -7 20
-20 0 -13 7 -20 20 -20 11 0 20 -6 20 -14 0 -7 9 -16 20 -19 15 -4 20 -14 20
-41 0 -24 5 -36 14 -36 7 0 16 -9 19 -20 5 -18 14 -20 96 -20 l91 0 0 360 0
361 -92 -3 -93 -3 -3 -187 c-2 -158 -5 -188 -17 -188 -8 0 -15 9 -15 20 0 13
-7 20 -20 20 -13 0 -20 7 -20 20 0 13 -7 20 -20 20 -13 0 -20 7 -20 20 0 11
-7 20 -15 20 -10 0 -15 11 -15 35 0 28 -4 35 -20 35 -13 0 -20 7 -20 20 0 13
-7 20 -20 20 -13 0 -20 7 -20 20 0 13 -7 20 -20 20 -11 0 -20 7 -20 15 0 8 -6
15 -14 15 -10 0 -16 13 -18 38 l-3 37 -92 3 -93 3 0 -361z"/>
<path d="M11212 6018 l3 -53 38 -3 37 -3 0 55 0 56 -41 0 -40 0 3 -52z"/>
<path d="M600 5946 c0 -20 5 -26 21 -26 15 0 20 5 17 22 -5 34 -38 37 -38 4z"/>
<path d="M970 5721 c0 -16 6 -21 26 -21 33 0 30 33 -4 38 -17 3 -22 -2 -22
-17z"/>
<path d="M9780 5680 c0 -17 7 -20 45 -20 38 0 45 3 45 20 0 17 -7 20 -45 20
-38 0 -45 -3 -45 -20z"/>
<path d="M9900 5680 c0 -17 7 -20 40 -20 33 0 40 3 40 20 0 17 -7 20 -40 20
-33 0 -40 -3 -40 -20z"/>
<path d="M9784 5615 c-10 -24 9 -37 47 -33 26 2 34 8 34 23 0 16 -8 21 -38 23
-27 2 -39 -1 -43 -13z"/>
<path d="M9900 5604 c0 -23 3 -25 38 -22 30 2 38 7 40 26 3 20 -1 22 -37 22
-37 0 -41 -2 -41 -26z"/>
<path d="M9780 5530 c0 -17 7 -20 45 -20 38 0 45 3 45 20 0 17 -7 20 -45 20
-38 0 -45 -3 -45 -20z"/>
<path d="M9900 5530 c0 -17 7 -20 40 -20 33 0 40 3 40 20 0 17 -7 20 -40 20
-33 0 -40 -3 -40 -20z"/>
<path d="M1127 5514 c-4 -4 -7 -16 -7 -26 0 -14 6 -19 23 -16 14 2 22 10 22
23 0 20 -25 32 -38 19z"/>
<path d="M9784 5465 c-10 -24 9 -37 47 -33 26 2 34 8 34 23 0 16 -8 21 -38 23
-27 2 -39 -1 -43 -13z"/>
<path d="M9900 5454 c0 -23 3 -25 38 -22 30 2 38 7 40 26 3 20 -1 22 -37 22
-37 0 -41 -2 -41 -26z"/>
<path d="M9780 5380 c0 -17 7 -20 45 -20 38 0 45 3 45 20 0 17 -7 20 -45 20
-38 0 -45 -3 -45 -20z"/>
<path d="M9900 5380 c0 -17 7 -20 40 -20 33 0 40 3 40 20 0 17 -7 20 -40 20
-33 0 -40 -3 -40 -20z"/>
<path d="M1877 5323 c-14 -13 -6 -33 13 -33 13 0 20 7 20 20 0 19 -20 27 -33
13z"/>
<path d="M9784 5315 c-10 -24 9 -37 47 -33 26 2 34 8 34 23 0 16 -8 21 -38 23
-27 2 -39 -1 -43 -13z"/>
<path d="M9900 5304 c0 -23 3 -25 38 -22 30 2 38 7 40 26 3 20 -1 22 -37 22
-37 0 -41 -2 -41 -26z"/>
<path d="M1870 5230 c0 -13 7 -20 20 -20 13 0 20 7 20 20 0 13 -7 20 -20 20
-13 0 -20 -7 -20 -20z"/>
<path d="M3260 4895 l0 -355 95 0 95 0 0 90 0 90 55 0 c42 0 55 -3 55 -15 0
-8 9 -15 20 -15 17 0 20 -7 20 -40 0 -33 3 -40 20 -40 13 0 20 -7 20 -20 0
-11 7 -20 15 -20 8 0 15 -7 15 -15 0 -12 19 -15 115 -15 108 0 115 1 115 20 0
13 -7 20 -20 20 -11 0 -20 7 -20 15 0 8 -7 15 -15 15 -8 0 -15 9 -15 20 0 13
-7 20 -20 20 -16 0 -20 7 -20 36 0 27 -5 37 -20 41 -11 3 -20 12 -20 19 0 8 9
14 20 14 13 0 20 7 20 20 0 13 7 20 20 20 13 0 20 7 20 20 0 11 7 20 15 20 10
0 15 11 15 35 0 28 4 35 20 35 18 0 20 7 20 75 0 68 -2 75 -20 75 -17 0 -20 7
-20 40 0 27 -4 40 -14 40 -7 0 -16 9 -19 20 -3 11 -12 20 -21 20 -9 0 -16 7
-16 15 0 12 -13 15 -55 15 -48 0 -55 2 -55 20 0 19 -7 20 -210 20 l-210 0 0
-355z m380 145 c0 -16 7 -20 35 -20 l35 0 0 -55 0 -55 -35 0 c-24 0 -35 -5
-35 -15 0 -12 -17 -15 -95 -15 l-95 0 0 90 0 90 95 0 c88 0 95 -1 95 -20z"/>
<path d="M9780 5230 c0 -17 7 -20 45 -20 38 0 45 3 45 20 0 17 -7 20 -45 20
-38 0 -45 -3 -45 -20z"/>
<path d="M9900 5230 c0 -17 7 -20 40 -20 33 0 40 3 40 20 0 17 -7 20 -40 20
-33 0 -40 -3 -40 -20z"/>
<path d="M10010 5230 c0 -13 7 -20 20 -20 13 0 20 7 20 20 0 13 -7 20 -20 20
-13 0 -20 -7 -20 -20z"/>
<path d="M10090 5230 c0 -11 7 -20 15 -20 8 0 15 9 15 20 0 11 -7 20 -15 20
-8 0 -15 -9 -15 -20z"/>
<path d="M10162 5233 c5 -26 38 -29 38 -4 0 15 -6 21 -21 21 -14 0 -19 -5 -17
-17z"/>
<path d="M10240 5230 c0 -11 7 -20 15 -20 8 0 15 9 15 20 0 11 -7 20 -15 20
-8 0 -15 -9 -15 -20z"/>
<path d="M10312 5233 c5 -26 38 -29 38 -4 0 15 -6 21 -21 21 -14 0 -19 -5 -17
-17z"/>
<path d="M4160 5195 c0 -8 -7 -15 -16 -15 -9 0 -18 -9 -21 -20 -3 -11 -12 -20
-19 -20 -8 0 -14 -9 -14 -20 0 -13 -7 -20 -20 -20 -13 0 -20 -7 -20 -20 0 -13
-7 -20 -20 -20 -19 0 -20 -7 -20 -170 0 -163 1 -170 20 -170 11 0 20 -6 20
-14 0 -7 9 -16 20 -19 15 -4 20 -14 20 -41 0 -34 1 -36 35 -36 28 0 35 -4 35
-20 0 -13 7 -20 20 -20 11 0 20 -7 20 -15 0 -13 26 -15 170 -15 138 0 170 3
170 14 0 7 9 16 20 19 11 3 20 12 20 21 0 12 10 16 35 16 34 0 35 1 35 40 0
33 3 40 20 40 11 0 20 6 20 14 0 7 9 16 20 19 19 5 20 14 20 152 0 138 -1 147
-20 152 -15 4 -20 14 -20 39 0 27 -4 34 -20 34 -13 0 -20 7 -20 20 0 13 -7 20
-20 20 -13 0 -20 7 -20 20 0 11 -7 20 -15 20 -8 0 -15 7 -15 15 0 13 -30 15
-210 15 -180 0 -210 -2 -210 -15z m300 -155 c0 -13 7 -20 20 -20 11 0 20 -6
20 -14 0 -7 9 -16 20 -19 15 -4 20 -14 20 -41 0 -25 4 -36 15 -36 10 0 15 -11
15 -35 0 -24 -5 -35 -15 -35 -11 0 -15 -11 -15 -36 0 -27 -5 -37 -20 -41 -11
-3 -20 -12 -20 -19 0 -9 -12 -14 -36 -14 -27 0 -37 -5 -41 -20 -5 -17 -14 -20
-59 -20 -47 0 -54 2 -54 20 0 16 -7 20 -35 20 -24 0 -35 5 -35 15 0 8 -9 15
-20 15 -17 0 -20 7 -20 40 0 33 -3 40 -20 40 -16 0 -20 7 -20 35 0 28 4 35 20
35 17 0 20 7 20 40 0 33 3 40 20 40 11 0 20 6 20 14 0 7 9 16 20 19 11 3 20
12 20 21 0 13 14 16 90 16 83 0 90 -1 90 -20z"/>
<path d="M5060 5196 c0 -7 -9 -16 -20 -19 -15 -4 -20 -14 -20 -41 0 -25 -4
-36 -15 -36 -10 0 -15 -11 -15 -35 0 -28 -4 -35 -20 -35 -18 0 -20 -7 -20 -60
0 -53 -2 -60 -20 -60 -16 0 -20 -7 -20 -34 0 -25 -5 -35 -20 -39 -15 -4 -20
-14 -20 -41 0 -25 -4 -36 -15 -36 -10 0 -15 -11 -15 -35 0 -28 -4 -35 -20 -35
-18 0 -20 -7 -20 -55 0 -48 -2 -55 -20 -55 -13 0 -20 -7 -20 -20 0 -19 7 -20
95 -20 74 0 95 3 95 14 0 7 9 16 20 19 15 4 20 14 20 41 l0 36 150 0 150 0 0
-40 c0 -29 4 -40 15 -40 8 0 15 -7 15 -15 0 -12 17 -15 95 -15 88 0 95 1 95
20 0 11 -7 20 -15 20 -11 0 -15 12 -15 51 0 42 -3 52 -20 56 -15 4 -20 14 -20
39 0 27 -4 34 -20 34 -17 0 -20 7 -20 40 0 33 -3 40 -20 40 -16 0 -20 7 -20
35 0 24 -5 35 -15 35 -11 0 -15 11 -15 36 0 27 -5 37 -20 41 -17 5 -20 14 -20
59 0 47 -2 54 -20 54 -17 0 -20 7 -20 40 0 33 -3 40 -20 40 -11 0 -20 7 -20
15 0 12 -15 15 -75 15 -57 0 -75 -3 -75 -14z m110 -321 c0 -28 4 -35 20 -35
17 0 20 -7 20 -40 l0 -40 -75 0 -75 0 0 40 c0 33 3 40 20 40 16 0 20 7 20 35
0 33 2 35 35 35 33 0 35 -2 35 -35z"/>
<path d="M5620 4875 l0 -335 230 0 c198 0 230 2 230 15 0 10 11 15 35 15 28 0
35 4 35 20 0 13 7 20 20 20 13 0 20 7 20 20 0 13 7 20 20 20 13 0 20 7 20 20
0 11 7 20 15 20 10 0 15 11 15 35 0 28 4 35 20 35 19 0 20 7 20 115 0 108 -1
115 -20 115 -16 0 -20 7 -20 35 0 24 -5 35 -15 35 -8 0 -15 9 -15 20 0 13 -7
20 -20 20 -13 0 -20 7 -20 20 0 13 -7 20 -20 20 -13 0 -20 7 -20 20 0 16 -7
20 -35 20 -24 0 -35 5 -35 15 0 13 -32 15 -230 15 l-230 0 0 -335z m420 130
c0 -8 7 -15 15 -15 8 0 15 -9 15 -20 0 -13 7 -20 20 -20 18 0 20 -7 20 -75 0
-68 -2 -75 -20 -75 -13 0 -20 -7 -20 -20 0 -11 -7 -20 -15 -20 -8 0 -15 -7
-15 -15 0 -12 -19 -15 -115 -15 l-115 0 0 145 0 145 115 0 c96 0 115 -3 115
-15z"/>
<path d="M6970 5195 c0 -10 -11 -15 -35 -15 -28 0 -35 -4 -35 -20 0 -13 -7
-20 -20 -20 -19 0 -20 -7 -20 -115 0 -108 1 -115 20 -115 11 0 20 -7 20 -15 0
-8 -9 -15 -20 -15 -13 0 -20 -7 -20 -19 0 -10 -9 -21 -20 -24 -18 -5 -20 -14
-20 -96 0 -84 1 -91 20 -91 13 0 20 -7 20 -20 0 -13 7 -20 20 -20 13 0 20 -7
20 -20 0 -13 7 -20 20 -20 11 0 20 -7 20 -15 0 -13 23 -15 150 -15 121 0 150
3 150 14 0 7 9 16 20 19 11 3 20 12 20 21 0 9 7 16 15 16 8 0 15 9 15 20 0 13
7 20 20 20 19 0 20 7 20 95 0 88 -1 95 -20 95 -13 0 -20 7 -20 20 0 11 -7 20
-15 20 -8 0 -15 7 -15 15 0 8 7 15 15 15 12 0 15 19 15 115 0 91 -3 115 -14
115 -7 0 -16 9 -19 20 -4 15 -14 20 -41 20 -25 0 -36 4 -36 15 0 12 -19 15
-115 15 -96 0 -115 -3 -115 -15z m150 -151 c0 -9 9 -18 20 -21 24 -6 27 -33 4
-33 -9 0 -18 -9 -21 -20 -4 -15 -14 -20 -39 -20 -27 0 -34 4 -34 20 0 13 -7
20 -20 20 -11 0 -20 7 -20 15 0 8 9 15 20 15 13 0 20 7 20 20 0 16 7 20 35 20
25 0 35 -4 35 -16z m40 -224 c0 -13 7 -20 20 -20 16 0 20 -7 20 -35 0 -28 -4
-35 -20 -35 -13 0 -20 -7 -20 -20 0 -18 -7 -20 -75 -20 -68 0 -75 2 -75 20 0
11 -7 20 -15 20 -10 0 -15 11 -15 35 0 23 5 35 14 35 7 0 16 9 19 20 5 18 14
20 76 20 64 0 71 -2 71 -20z"/>
<path d="M7570 5195 c0 -8 -7 -15 -15 -15 -8 0 -15 -9 -15 -20 0 -13 -7 -20
-20 -20 -13 0 -20 -7 -20 -20 0 -13 -7 -20 -20 -20 -18 0 -20 -7 -20 -55 l0
-55 95 0 c78 0 95 3 95 15 0 8 7 15 16 15 9 0 18 9 21 20 4 15 14 20 39 20 27
0 34 -4 34 -20 0 -13 7 -20 20 -20 16 0 20 -7 20 -35 0 -34 -1 -35 -40 -35
-33 0 -40 -3 -40 -20 0 -18 -7 -20 -55 -20 l-55 0 0 -35 0 -35 55 0 c48 0 55
-2 55 -20 0 -17 7 -20 40 -20 39 0 40 -1 40 -35 0 -28 -4 -35 -20 -35 -13 0
-20 -7 -20 -20 0 -16 -7 -20 -35 -20 -25 0 -35 4 -35 16 0 9 -9 18 -20 21 -11
3 -20 12 -20 19 0 11 -21 14 -95 14 l-95 0 0 -55 c0 -48 2 -55 20 -55 13 0 20
-7 20 -20 0 -13 7 -20 20 -20 13 0 20 -7 20 -20 0 -11 7 -20 15 -20 8 0 15 -7
15 -15 0 -13 23 -15 149 -15 140 0 149 1 154 20 3 11 12 20 21 20 9 0 16 7 16
15 0 8 9 15 20 15 13 0 20 7 20 20 0 13 7 20 20 20 18 0 20 7 20 75 0 68 -2
75 -20 75 -13 0 -20 7 -20 20 0 13 -7 20 -20 20 -16 0 -20 7 -20 35 0 28 4 35
20 35 13 0 20 7 20 20 0 13 7 20 20 20 18 0 20 7 20 75 0 68 -2 75 -20 75 -13
0 -20 7 -20 20 0 13 -7 20 -20 20 -13 0 -20 7 -20 20 0 11 -7 20 -15 20 -8 0
-15 7 -15 15 0 13 -24 15 -155 15 -131 0 -155 -2 -155 -15z"/>
<path d="M6600 5087 c0 -86 2 -95 20 -100 17 -4 20 -14 20 -61 l0 -56 55 0 55
0 0 95 c0 89 1 95 20 95 19 0 21 5 18 58 l-3 57 -92 3 -93 3 0 -94z"/>
<path d="M9784 5165 c-10 -24 9 -37 47 -33 26 2 34 8 34 23 0 16 -8 21 -38 23
-27 2 -39 -1 -43 -13z"/>
<path d="M9900 5154 c0 -23 3 -25 38 -22 30 2 38 7 40 26 3 20 -1 22 -37 22
-37 0 -41 -2 -41 -26z"/>
<path d="M10010 5155 c0 -8 9 -15 20 -15 11 0 20 7 20 15 0 8 -9 15 -20 15
-11 0 -20 -7 -20 -15z"/>
<path d="M10090 5155 c0 -8 7 -15 15 -15 8 0 15 7 15 15 0 8 -7 15 -15 15 -8
0 -15 -7 -15 -15z"/>
<path d="M10160 5155 c0 -8 9 -15 20 -15 11 0 20 7 20 15 0 8 -9 15 -20 15
-11 0 -20 -7 -20 -15z"/>
<path d="M10240 5155 c0 -8 7 -15 15 -15 8 0 15 7 15 15 0 8 -7 15 -15 15 -8
0 -15 -7 -15 -15z"/>
<path d="M10310 5155 c0 -8 9 -15 20 -15 11 0 20 7 20 15 0 8 -9 15 -20 15
-11 0 -20 -7 -20 -15z"/>
<path d="M8440 5080 c0 -16 7 -20 35 -20 28 0 35 4 35 20 0 16 -7 20 -35 20
-28 0 -35 -4 -35 -20z"/>
<path d="M8550 5080 c0 -16 7 -20 35 -20 28 0 35 4 35 20 0 16 -7 20 -35 20
-28 0 -35 -4 -35 -20z"/>
<path d="M8662 5083 c2 -13 13 -18 38 -18 25 0 36 5 38 18 3 14 -4 17 -38 17
-34 0 -41 -3 -38 -17z"/>
<path d="M8780 5080 c0 -16 7 -20 35 -20 28 0 35 4 35 20 0 16 -7 20 -35 20
-28 0 -35 -4 -35 -20z"/>
<path d="M8890 5080 c0 -16 7 -20 35 -20 28 0 35 4 35 20 0 16 -7 20 -35 20
-28 0 -35 -4 -35 -20z"/>
<path d="M9780 5080 c0 -17 7 -20 45 -20 38 0 45 3 45 20 0 17 -7 20 -45 20
-38 0 -45 -3 -45 -20z"/>
<path d="M9900 5080 c0 -17 7 -20 40 -20 33 0 40 3 40 20 0 17 -7 20 -40 20
-33 0 -40 -3 -40 -20z"/>
<path d="M10010 5080 c0 -13 7 -20 20 -20 13 0 20 7 20 20 0 13 -7 20 -20 20
-13 0 -20 -7 -20 -20z"/>
<path d="M10090 5080 c0 -11 7 -20 15 -20 8 0 15 9 15 20 0 11 -7 20 -15 20
-8 0 -15 -9 -15 -20z"/>
<path d="M10162 5083 c5 -26 38 -29 38 -4 0 15 -6 21 -21 21 -14 0 -19 -5 -17
-17z"/>
<path d="M10240 5080 c0 -11 7 -20 15 -20 8 0 15 9 15 20 0 11 -7 20 -15 20
-8 0 -15 -9 -15 -20z"/>
<path d="M10312 5083 c5 -26 38 -29 38 -4 0 15 -6 21 -21 21 -14 0 -19 -5 -17
-17z"/>
<path d="M9784 5015 c-10 -24 9 -37 47 -33 26 2 34 8 34 23 0 16 -8 21 -38 23
-27 2 -39 -1 -43 -13z"/>
<path d="M9900 5004 c0 -23 3 -25 38 -22 30 2 38 7 40 26 3 20 -1 22 -37 22
-37 0 -41 -2 -41 -26z"/>
<path d="M8440 5005 c0 -10 11 -15 35 -15 24 0 35 5 35 15 0 10 -11 15 -35 15
-24 0 -35 -5 -35 -15z"/>
<path d="M8550 5005 c0 -10 11 -15 35 -15 24 0 35 5 35 15 0 10 -11 15 -35 15
-24 0 -35 -5 -35 -15z"/>
<path d="M8660 5005 c0 -11 11 -15 40 -15 29 0 40 4 40 15 0 11 -11 15 -40 15
-29 0 -40 -4 -40 -15z"/>
<path d="M8780 5005 c0 -10 11 -15 35 -15 24 0 35 5 35 15 0 10 -11 15 -35 15
-24 0 -35 -5 -35 -15z"/>
<path d="M8890 5005 c0 -10 11 -15 35 -15 24 0 35 5 35 15 0 10 -11 15 -35 15
-24 0 -35 -5 -35 -15z"/>
<path d="M10010 5005 c0 -8 9 -15 20 -15 11 0 20 7 20 15 0 8 -9 15 -20 15
-11 0 -20 -7 -20 -15z"/>
<path d="M10090 5005 c0 -8 7 -15 15 -15 8 0 15 7 15 15 0 8 -7 15 -15 15 -8
0 -15 -7 -15 -15z"/>
<path d="M10160 5005 c0 -8 9 -15 20 -15 11 0 20 7 20 15 0 8 -9 15 -20 15
-11 0 -20 -7 -20 -15z"/>
<path d="M10240 5005 c0 -8 7 -15 15 -15 8 0 15 7 15 15 0 8 -7 15 -15 15 -8
0 -15 -7 -15 -15z"/>
<path d="M10310 5005 c0 -8 9 -15 20 -15 11 0 20 7 20 15 0 8 -9 15 -20 15
-11 0 -20 -7 -20 -15z"/>
<path d="M8440 4930 c0 -16 7 -20 35 -20 28 0 35 4 35 20 0 16 -7 20 -35 20
-28 0 -35 -4 -35 -20z"/>
<path d="M8550 4930 c0 -16 7 -20 35 -20 28 0 35 4 35 20 0 16 -7 20 -35 20
-28 0 -35 -4 -35 -20z"/>
<path d="M8662 4933 c2 -13 13 -18 38 -18 25 0 36 5 38 18 3 14 -4 17 -38 17
-34 0 -41 -3 -38 -17z"/>
<path d="M8780 4930 c0 -16 7 -20 35 -20 28 0 35 4 35 20 0 16 -7 20 -35 20
-28 0 -35 -4 -35 -20z"/>
<path d="M9780 4930 c0 -17 7 -20 45 -20 38 0 45 3 45 20 0 17 -7 20 -45 20
-38 0 -45 -3 -45 -20z"/>
<path d="M9900 4930 c0 -17 7 -20 40 -20 33 0 40 3 40 20 0 17 -7 20 -40 20
-33 0 -40 -3 -40 -20z"/>
<path d="M10010 4930 c0 -13 7 -20 20 -20 13 0 20 7 20 20 0 13 -7 20 -20 20
-13 0 -20 -7 -20 -20z"/>
<path d="M10090 4930 c0 -11 7 -20 15 -20 8 0 15 9 15 20 0 11 -7 20 -15 20
-8 0 -15 -9 -15 -20z"/>
<path d="M10162 4933 c5 -26 38 -29 38 -4 0 15 -6 21 -21 21 -14 0 -19 -5 -17
-17z"/>
<path d="M10240 4930 c0 -11 7 -20 15 -20 8 0 15 9 15 20 0 11 -7 20 -15 20
-8 0 -15 -9 -15 -20z"/>
<path d="M10312 4933 c5 -26 38 -29 38 -4 0 15 -6 21 -21 21 -14 0 -19 -5 -17
-17z"/>
<path d="M9784 4865 c-10 -24 9 -37 47 -33 26 2 34 8 34 23 0 16 -8 21 -38 23
-27 2 -39 -1 -43 -13z"/>
<path d="M9900 4854 c0 -23 3 -25 38 -22 30 2 38 7 40 26 3 20 -1 22 -37 22
-37 0 -41 -2 -41 -26z"/>
<path d="M8440 4855 c0 -10 11 -15 35 -15 24 0 35 5 35 15 0 10 -11 15 -35 15
-24 0 -35 -5 -35 -15z"/>
<path d="M8550 4855 c0 -10 11 -15 35 -15 24 0 35 5 35 15 0 10 -11 15 -35 15
-24 0 -35 -5 -35 -15z"/>
<path d="M8660 4855 c0 -11 11 -15 40 -15 29 0 40 4 40 15 0 11 -11 15 -40 15
-29 0 -40 -4 -40 -15z"/>
<path d="M8780 4855 c0 -10 11 -15 35 -15 24 0 35 5 35 15 0 10 -11 15 -35 15
-24 0 -35 -5 -35 -15z"/>
<path d="M2250 4780 c0 -13 7 -20 20 -20 13 0 20 7 20 20 0 13 -7 20 -20 20
-13 0 -20 -7 -20 -20z"/>
<path d="M8440 4780 c0 -16 7 -20 35 -20 28 0 35 4 35 20 0 16 -7 20 -35 20
-28 0 -35 -4 -35 -20z"/>
<path d="M8550 4780 c0 -16 7 -20 35 -20 28 0 35 4 35 20 0 16 -7 20 -35 20
-28 0 -35 -4 -35 -20z"/>
<path d="M8662 4783 c2 -13 13 -18 38 -18 25 0 36 5 38 18 3 14 -4 17 -38 17
-34 0 -41 -3 -38 -17z"/>
<path d="M8780 4780 c0 -16 7 -20 35 -20 28 0 35 4 35 20 0 16 -7 20 -35 20
-28 0 -35 -4 -35 -20z"/>
<path d="M9780 4780 c0 -17 7 -20 45 -20 38 0 45 3 45 20 0 17 -7 20 -45 20
-38 0 -45 -3 -45 -20z"/>
<path d="M9900 4780 c0 -17 7 -20 40 -20 33 0 40 3 40 20 0 17 -7 20 -40 20
-33 0 -40 -3 -40 -20z"/>
<path d="M9784 4715 c-10 -24 9 -37 47 -33 26 2 34 8 34 23 0 16 -8 21 -38 23
-27 2 -39 -1 -43 -13z"/>
<path d="M9900 4704 c0 -23 3 -25 38 -22 30 2 38 7 40 26 3 20 -1 22 -37 22
-37 0 -41 -2 -41 -26z"/>
<path d="M8440 4705 c0 -10 11 -15 35 -15 24 0 35 5 35 15 0 10 -11 15 -35 15
-24 0 -35 -5 -35 -15z"/>
<path d="M8550 4705 c0 -10 11 -15 35 -15 24 0 35 5 35 15 0 10 -11 15 -35 15
-24 0 -35 -5 -35 -15z"/>
<path d="M8660 4705 c0 -11 11 -15 40 -15 29 0 40 4 40 15 0 11 -11 15 -40 15
-29 0 -40 -4 -40 -15z"/>
<path d="M8780 4705 c0 -10 11 -15 35 -15 24 0 35 5 35 15 0 10 -11 15 -35 15
-24 0 -35 -5 -35 -15z"/>
<path d="M8780 4630 c0 -16 7 -20 35 -20 28 0 35 4 35 20 0 16 -7 20 -35 20
-28 0 -35 -4 -35 -20z"/>
<path d="M9780 4630 c0 -17 7 -20 45 -20 38 0 45 3 45 20 0 17 -7 20 -45 20
-38 0 -45 -3 -45 -20z"/>
<path d="M9900 4630 c0 -17 7 -20 40 -20 33 0 40 3 40 20 0 17 -7 20 -40 20
-33 0 -40 -3 -40 -20z"/>
<path d="M150 4554 c0 -33 33 -30 38 4 3 17 -2 22 -17 22 -16 0 -21 -6 -21
-26z"/>
<path d="M9784 4565 c-10 -24 9 -37 47 -33 26 2 34 8 34 23 0 16 -8 21 -38 23
-27 2 -39 -1 -43 -13z"/>
<path d="M9900 4554 c0 -23 3 -25 38 -22 30 2 38 7 40 26 3 20 -1 22 -37 22
-37 0 -41 -2 -41 -26z"/>
<path d="M9780 4480 c0 -17 7 -20 45 -20 38 0 45 3 45 20 0 17 -7 20 -45 20
-38 0 -45 -3 -45 -20z"/>
<path d="M9900 4480 c0 -17 7 -20 40 -20 33 0 40 3 40 20 0 17 -7 20 -40 20
-33 0 -40 -3 -40 -20z"/>
<path d="M9784 4415 c-10 -24 9 -37 47 -33 26 2 34 8 34 23 0 16 -8 21 -38 23
-27 2 -39 -1 -43 -13z"/>
<path d="M9900 4404 c0 -23 3 -25 38 -22 30 2 38 7 40 26 3 20 -1 22 -37 22
-37 0 -41 -2 -41 -26z"/>
<path d="M3530 4330 c0 -11 7 -20 15 -20 8 0 15 9 15 20 0 11 -7 20 -15 20 -8
0 -15 -9 -15 -20z"/>
<path d="M9780 4330 c0 -17 7 -20 45 -20 38 0 45 3 45 20 0 17 -7 20 -45 20
-38 0 -45 -3 -45 -20z"/>
<path d="M9900 4330 c0 -17 7 -20 40 -20 33 0 40 3 40 20 0 17 -7 20 -40 20
-33 0 -40 -3 -40 -20z"/>
<path d="M9784 4265 c-10 -24 9 -37 47 -33 26 2 34 8 34 23 0 16 -8 21 -38 23
-27 2 -39 -1 -43 -13z"/>
<path d="M9900 4254 c0 -23 3 -25 38 -22 30 2 38 7 40 26 3 20 -1 22 -37 22
-37 0 -41 -2 -41 -26z"/>
<path d="M11970 4215 c0 -8 7 -15 15 -15 8 0 15 7 15 15 0 8 -7 15 -15 15 -8
0 -15 -7 -15 -15z"/>
<path d="M2440 4180 c0 -16 7 -20 35 -20 28 0 35 4 35 20 0 16 -7 20 -35 20
-28 0 -35 -4 -35 -20z"/>
<path d="M2550 4180 c0 -17 7 -20 40 -20 33 0 40 3 40 20 0 17 -7 20 -40 20
-33 0 -40 -3 -40 -20z"/>
<path d="M2660 4180 c0 -17 7 -20 40 -20 33 0 40 3 40 20 0 17 -7 20 -40 20
-33 0 -40 -3 -40 -20z"/>
<path d="M2770 4180 c0 -17 7 -20 40 -20 33 0 40 3 40 20 0 17 -7 20 -40 20
-33 0 -40 -3 -40 -20z"/>
<path d="M2890 4180 c0 -16 7 -20 35 -20 28 0 35 4 35 20 0 16 -7 20 -35 20
-28 0 -35 -4 -35 -20z"/>
<path d="M3332 4183 c2 -10 13 -19 26 -21 17 -3 22 2 22 17 0 16 -6 21 -26 21
-19 0 -25 -5 -22 -17z"/>
<path d="M3520 4179 c0 -15 5 -20 22 -17 34 5 37 38 4 38 -20 0 -26 -5 -26
-21z"/>
<path d="M3632 4183 c5 -26 38 -29 38 -4 0 15 -6 21 -21 21 -14 0 -19 -5 -17
-17z"/>
<path d="M7950 4180 c0 -13 7 -20 20 -20 13 0 20 7 20 20 0 13 -7 20 -20 20
-13 0 -20 -7 -20 -20z"/>
<path d="M9780 4180 c0 -17 7 -20 45 -20 38 0 45 3 45 20 0 17 -7 20 -45 20
-38 0 -45 -3 -45 -20z"/>
<path d="M9900 4180 c0 -17 7 -20 40 -20 33 0 40 3 40 20 0 17 -7 20 -40 20
-33 0 -40 -3 -40 -20z"/>
<path d="M2440 4110 c0 -16 7 -20 35 -20 28 0 35 4 35 20 0 16 -7 20 -35 20
-28 0 -35 -4 -35 -20z"/>
<path d="M2550 4111 c0 -18 6 -21 41 -21 33 0 40 3 37 18 -2 12 -14 18 -41 20
-32 3 -37 0 -37 -17z"/>
<path d="M2660 4110 c0 -17 7 -20 40 -20 33 0 40 3 40 20 0 17 -7 20 -40 20
-33 0 -40 -3 -40 -20z"/>
<path d="M2777 4123 c-19 -19 -5 -33 33 -33 33 0 40 3 40 20 0 16 -7 20 -33
20 -19 0 -37 -3 -40 -7z"/>
<path d="M2890 4110 c0 -16 7 -20 35 -20 28 0 35 4 35 20 0 16 -7 20 -35 20
-28 0 -35 -4 -35 -20z"/>
<path d="M3634 4115 c-7 -18 3 -35 22 -35 8 0 14 10 14 25 0 27 -27 35 -36 10z"/>
<path d="M9900 4104 c0 -23 3 -25 38 -22 30 2 38 7 40 26 3 20 -1 22 -37 22
-37 0 -41 -2 -41 -26z"/>
<path d="M2440 4030 c0 -16 7 -20 35 -20 28 0 35 4 35 20 0 16 -7 20 -35 20
-28 0 -35 -4 -35 -20z"/>
<path d="M2550 4030 c0 -17 7 -20 40 -20 33 0 40 3 40 20 0 17 -7 20 -40 20
-33 0 -40 -3 -40 -20z"/>
<path d="M2660 4030 c0 -17 7 -20 40 -20 33 0 40 3 40 20 0 17 -7 20 -40 20
-33 0 -40 -3 -40 -20z"/>
<path d="M2770 4030 c0 -17 7 -20 40 -20 33 0 40 3 40 20 0 17 -7 20 -40 20
-33 0 -40 -3 -40 -20z"/>
<path d="M2890 4030 c0 -16 7 -20 35 -20 28 0 35 4 35 20 0 16 -7 20 -35 20
-28 0 -35 -4 -35 -20z"/>
<path d="M3750 3990 c0 -11 7 -20 15 -20 8 0 15 -7 15 -15 0 -8 -7 -15 -15
-15 -11 0 -15 -11 -15 -40 0 -33 3 -40 20 -40 16 0 20 7 20 35 0 24 5 35 15
35 9 0 15 9 15 25 0 16 -6 25 -15 25 -8 0 -15 7 -15 15 0 8 -9 15 -20 15 -13
0 -20 -7 -20 -20z"/>
<path d="M2440 3960 c0 -16 7 -20 35 -20 28 0 35 4 35 20 0 16 -7 20 -35 20
-28 0 -35 -4 -35 -20z"/>
<path d="M2550 3961 c0 -18 6 -21 41 -21 33 0 40 3 37 18 -2 12 -14 18 -41 20
-32 3 -37 0 -37 -17z"/>
<path d="M2660 3960 c0 -17 7 -20 40 -20 33 0 40 3 40 20 0 17 -7 20 -40 20
-33 0 -40 -3 -40 -20z"/>
<path d="M2777 3973 c-19 -19 -5 -33 33 -33 33 0 40 3 40 20 0 16 -7 20 -33
20 -19 0 -37 -3 -40 -7z"/>
<path d="M2890 3960 c0 -16 7 -20 35 -20 28 0 35 4 35 20 0 16 -7 20 -35 20
-28 0 -35 -4 -35 -20z"/>
<path d="M3976 3869 c-7 -35 -1 -49 20 -49 8 0 14 -7 14 -15 0 -8 -9 -15 -20
-15 -13 0 -20 -7 -20 -20 0 -15 7 -20 25 -20 16 0 25 6 25 15 0 8 7 15 15 15
9 0 15 9 15 25 0 16 -6 25 -15 25 -10 0 -15 11 -15 35 0 28 -4 35 -19 35 -13
0 -20 -10 -25 -31z"/>
<path d="M4050 3880 c0 -13 7 -20 20 -20 13 0 20 7 20 20 0 13 -7 20 -20 20
-13 0 -20 -7 -20 -20z"/>
<path d="M11960 3770 c0 -13 7 -20 20 -20 13 0 20 7 20 20 0 13 -7 20 -20 20
-13 0 -20 -7 -20 -20z"/>
<path d="M7130 3765 c0 -8 7 -15 15 -15 8 0 15 7 15 15 0 8 -7 15 -15 15 -8 0
-15 -7 -15 -15z"/>
<path d="M6380 3580 c0 -13 -7 -20 -20 -20 -13 0 -20 -7 -20 -20 0 -13 -7 -20
-20 -20 -16 0 -20 -7 -20 -35 0 -33 2 -35 35 -35 28 0 35 -4 35 -20 0 -11 -7
-20 -15 -20 -8 0 -15 -7 -15 -15 0 -8 -9 -15 -20 -15 -17 0 -20 -7 -20 -40 0
-33 -3 -40 -20 -40 -13 0 -20 -7 -20 -20 0 -13 -7 -20 -20 -20 -16 0 -20 -7
-20 -35 0 -34 1 -35 40 -35 33 0 40 -3 40 -20 0 -13 7 -20 20 -20 13 0 20 -7
20 -20 0 -16 7 -20 35 -20 25 0 35 -4 35 -16 0 -9 9 -18 20 -21 11 -3 20 -12
20 -19 0 -10 15 -14 55 -14 48 0 55 -2 55 -20 0 -17 7 -20 40 -20 33 0 40 -3
40 -20 0 -16 7 -20 35 -20 34 0 35 2 35 36 0 27 5 37 20 41 15 4 20 14 20 39
0 27 4 34 20 34 17 0 20 7 20 40 0 33 3 40 20 40 12 0 20 7 20 16 0 9 -9 18
-20 21 -15 4 -20 14 -20 39 0 27 4 34 20 34 18 0 20 7 20 75 l0 75 -40 0 c-29
0 -40 4 -40 15 0 12 -15 15 -75 15 -68 0 -75 2 -75 20 0 17 -7 20 -40 20 -33
0 -40 3 -40 20 0 16 -7 20 -35 20 -28 0 -35 4 -35 20 0 16 -7 20 -35 20 -28 0
-35 -4 -35 -20z"/>
<path d="M4870 3360 c0 -13 7 -20 20 -20 13 0 20 7 20 20 0 13 -7 20 -20 20
-13 0 -20 -7 -20 -20z"/>
<path d="M190 2025 c0 -33 2 -35 35 -35 24 0 35 5 35 15 0 8 -9 15 -20 15 -13
0 -20 7 -20 20 0 11 -7 20 -15 20 -10 0 -15 -11 -15 -35z"/>
<path d="M380 2005 c0 -8 7 -15 15 -15 8 0 15 7 15 15 0 8 -7 15 -15 15 -8 0
-15 -7 -15 -15z"/>
<path d="M830 1935 c0 -8 7 -15 15 -15 8 0 15 7 15 15 0 8 -7 15 -15 15 -8 0
-15 -7 -15 -15z"/>
<path d="M900 1935 c0 -8 9 -15 20 -15 11 0 20 7 20 15 0 8 -9 15 -20 15 -11
0 -20 -7 -20 -15z"/>
<path d="M980 1895 c0 -8 7 -15 15 -15 8 0 15 7 15 15 0 8 -7 15 -15 15 -8 0
-15 -7 -15 -15z"/>
<path d="M1050 1895 c0 -8 9 -15 20 -15 13 0 20 -7 20 -20 0 -18 7 -20 55 -20
42 0 55 3 55 15 0 11 -11 15 -36 15 -27 0 -37 5 -41 20 -7 25 -73 30 -73 5z"/>
<path d="M830 1785 c0 -10 11 -15 35 -15 24 0 35 5 35 15 0 10 -11 15 -35 15
-24 0 -35 -5 -35 -15z"/>
<path d="M1130 1705 c0 -8 7 -15 15 -15 8 0 15 7 15 15 0 8 -7 15 -15 15 -8 0
-15 -7 -15 -15z"/>
<path d="M1523 1533 c-38 -7 -28 -33 12 -33 28 0 35 4 35 20 0 20 -5 21 -47
13z"/>
</g>
</svg>
